SplineFontDB: 3.0
FontName: BenchNine-Light
FullName: BenchNine Light
FamilyName: BenchNine
Weight: Light
Copyright: Copyright (c) 2012, vernon adams (vern@newtypography.co.uk), with Reserved Font Name 'BenchNine'
Version: 1
ItalicAngle: 0
UnderlinePosition: 0
UnderlineWidth: 0
Ascent: 1638
Descent: 410
sfntRevision: 0x00010000
LayerCount: 2
Layer: 0 1 "Back"  1
Layer: 1 1 "Fore"  0
XUID: [1021 332 1330122705 1750457]
FSType: 0
OS2Version: 4
OS2_WeightWidthSlopeOnly: 0
OS2_UseTypoMetrics: 1
CreationTime: 1347993684
ModificationTime: 1348521393
PfmFamily: 17
TTFWeight: 300
TTFWidth: 5
LineGap: 0
VLineGap: 0
Panose: 2 0 3 3 0 0 0 0 0 0
OS2TypoAscent: 2020
OS2TypoAOffset: 0
OS2TypoDescent: -720
OS2TypoDOffset: 0
OS2TypoLinegap: 0
OS2WinAscent: 2020
OS2WinAOffset: 0
OS2WinDescent: 720
OS2WinDOffset: 0
HheadAscent: 2020
HheadAOffset: 0
HheadDescent: -720
HheadDOffset: 0
OS2SubXSize: 1331
OS2SubYSize: 1433
OS2SubXOff: 0
OS2SubYOff: 286
OS2SupXSize: 1331
OS2SupYSize: 1433
OS2SupXOff: 0
OS2SupYOff: 983
OS2StrikeYSize: 102
OS2StrikeYPos: 530
OS2Vendor: 'newt'
OS2CodePages: 00000093.00000000
OS2UnicodeRanges: a00000ef.4000204a.00000000.00000000
Lookup: 258 0 0 "'kern' Horizontal Kerning in Latin lookup 0"  {"'kern' Horizontal Kerning in Latin lookup 0 subtable"  } ['kern' ('DFLT' <'dflt' > 'latn' <'dflt' > ) ]
MarkAttachClasses: 1
DEI: 91125
KernClass2: 23 27 "'kern' Horizontal Kerning in Latin lookup 0 subtable" 
 89 A Agrave Aacute Acircumflex Atilde Adieresis Aring Amacron Abreve Aogonek uni0200 uni0202
 16 D Dcaron uni1E0A
 9 F uni1E1E
 14 K Kcommaaccent
 28 L Lacute Lcommaaccent Lcaron
 89 O Ograve Oacute Ocircumflex Otilde Odieresis Omacron Obreve Ohungarumlaut uni020C uni020E
 9 P uni1E56
 44 R Racute Rcommaaccent Rcaron uni0210 uni0212
 24 T Tcaron uni021A uni1E6A
 1 V
 37 W Wcircumflex Wgrave Wacute Wdieresis
 9 b uni1E03
 9 f uni1E1F
 52 g gcircumflex gbreve gdotaccent gcommaaccent uni01F5
 14 k kcommaaccent

StartChar: .notdef
Encoding: 65536 -1 0
Width: 349
Flags: W
LayerCount: 2
Fore
SplineSet
70 -197 m 1,0,-1
 280 -197 l 1,1,-1
 280 1373 l 1,2,-1
 70 1373 l 1,3,-1
 70 -197 l 1,0,-1
35 -299 m 1,4,-1
 35 1475 l 1,5,-1
 314 1475 l 1,6,-1
 314 -299 l 1,7,-1
 35 -299 l 1,4,-1
EndSplineSet
EndChar

StartChar: exclam
Encoding: 33 33 4
Width: 322
GlyphClass: 2
Flags: W
LayerCount: 2
Fore
SplineSet
116 0 m 2,0,1
 90 0 90 0 90 55 c 2,2,-1
 90 164 l 2,3,4
 90 219 90 219 116 219 c 2,5,-1
 208 219 l 2,6,7
 234 219 234 219 234 164 c 2,8,-1
 234 55 l 2,9,10
 234 0 234 0 208 0 c 2,11,-1
 116 0 l 2,0,1
155 388 m 2,12,13
 150 388 150 388 146.5 392 c 128,-1,14
 143 396 143 396 141 407.5 c 128,-1,15
 139 419 139 419 138.5 427.5 c 128,-1,16
 138 436 138 436 137 457 c 2,17,-1
 98 1389 l 1,18,-1
 98 1398 l 2,19,20
 98 1426 98 1426 105.5 1442 c 128,-1,21
 113 1458 113 1458 125 1458 c 2,22,23
 196 1458 l 2,24,25
 207 1458 207 1458 215.5 1441 c 128,-1,26
 224 1424 224 1424 224 1397 c 2,27,-1
 224 1389 l 1,28,-1
 186 457 l 2,29,30
 184 418 184 418 181 403 c 128,-1,31
 178 388 178 388 168 388 c 2,32,-1
 155 388 l 2,12,13
EndSplineSet
EndChar

StartChar: quotedbl
Encoding: 34 34 5
Width: 426
GlyphClass: 2
Flags: W
LayerCount: 2
Fore
SplineSet
104 800 m 2,0,1
 89 800 89 800 86 861 c 2,2,-1
 57 1389 l 1,3,-1
 57 1397 l 2,4,5
 57 1421 57 1421 64 1439.5 c 128,-1,6
 71 1458 71 1458 81 1458 c 2,7,-1
 144 1458 l 2,8,9
 154 1458 154 1458 160.5 1438.5 c 128,-1,10
 167 1419 167 1419 167 1393 c 2,11,-1
 167 1388 l 1,12,-1
 141 861 l 2,13,14
 140 842 140 842 139.5 834.5 c 128,-1,15
 139 827 139 827 137 817 c 128,-1,16
 135 807 135 807 131.5 803.5 c 128,-1,17
 128 800 128 800 123 800 c 2,18,-1
 104 800 l 2,0,1
304 800 m 2,19,20
 289 800 289 800 286 861 c 2,21,-1
 257 1389 l 1,22,-1
 257 1397 l 2,23,24
 257 1421 257 1421 264.5 1439.5 c 128,-1,25
 272 1458 272 1458 282 1458 c 2,26,-1
 344 1458 l 2,27,28
 354 1458 354 1458 360.5 1438.5 c 128,-1,29
 367 1419 367 1419 367 1393 c 2,30,-1
 367 1388 l 1,31,-1
 341 861 l 2,32,33
 340 842 340 842 339.5 834.5 c 128,-1,34
 339 827 339 827 337 817 c 128,-1,35
 335 807 335 807 331.5 803.5 c 128,-1,36
 328 800 328 800 323 800 c 2,37,-1
 304 800 l 2,19,20
EndSplineSet
EndChar

StartChar: numbersign
Encoding: 35 35 6
Width: 691
GlyphClass: 2
Flags: W
LayerCount: 2
Fore
SplineSet
155 -191 m 2,0,1
 151 -191 151 -191 148 -180 c 128,-1,2
 145 -169 145 -169 147 -156 c 1,3,-1
 181 304 l 1,4,-1
 118 304 l 2,5,6
 106 304 106 304 100.5 312 c 128,-1,7
 95 320 95 320 95 345 c 2,8,-1
 95 366 l 2,9,10
 95 392 95 392 98.5 399.5 c 128,-1,11
 102 407 102 407 114 407 c 2,12,-1
 191 407 l 1,13,-1
 229 893 l 1,14,-1
 159 893 l 2,15,16
 146 893 146 893 140 901.5 c 128,-1,17
 134 910 134 910 134 934 c 2,18,-1
 134 957 l 2,19,20
 134 998 134 998 156 998 c 2,21,-1
 240 998 l 1,22,-1
 284 1518 l 2,23,24
 285 1533 285 1533 290 1543 c 128,-1,25
 295 1553 295 1553 300 1553 c 2,26,-1
 350 1553 l 2,27,28
 360 1553 360 1553 358 1518 c 2,29,-1
 314 998 l 1,30,-1
 468 998 l 1,31,-1
 513 1518 l 1,32,33
 515 1553 515 1553 529 1553 c 2,34,-1
 577 1553 l 2,35,36
 581 1553 581 1553 583 1542 c 128,-1,37
 585 1531 585 1531 584 1518 c 2,38,-1
 540 998 l 1,39,-1
 604 998 l 2,40,41
 626 998 626 998 626 957 c 2,42,-1
 626 934 l 2,43,44
 626 909 626 909 622 901 c 128,-1,45
 618 893 618 893 607 893 c 2,46,-1
 529 893 l 1,47,-1
 492 407 l 1,48,-1
 561 407 l 2,49,50
 575 407 575 407 581.5 398.5 c 128,-1,51
 588 390 588 390 588 366 c 2,52,-1
 588 345 l 2,53,54
 588 320 588 320 583 312 c 128,-1,55
 578 304 578 304 565 304 c 2,56,-1
 481 304 l 1,57,-1
 446 -156 l 2,58,59
 443 -191 443 -191 430 -191 c 2,60,-1
 382 -191 l 2,61,62
 372 -191 372 -191 374 -156 c 2,63,-1
 409 304 l 1,64,-1
 255 304 l 1,65,-1
 220 -156 l 2,66,67
 217 -191 217 -191 203 -191 c 2,68,-1
 155 -191 l 2,0,1
265 407 m 1,69,-1
 419 407 l 1,70,-1
 456 893 l 1,71,-1
 303 893 l 1,72,-1
 265 407 l 1,69,-1
EndSplineSet
EndChar

StartChar: percent
Encoding: 37 37 8
Width: 1009
GlyphClass: 2
Flags: W
LayerCount: 2
Fore
SplineSet
364 -82 m 2,0,1
 357 -82 357 -82 352 -67.5 c 128,-1,2
 347 -53 347 -53 347 -33 c 0,3,4
 347 -26 347 -26 349 -12 c 2,5,-1
 572 1466 l 2,6,7
 576 1497 576 1497 586.5 1516.5 c 128,-1,8
 597 1536 597 1536 609 1536 c 2,9,-1
 629 1536 l 2,10,11
 636 1536 636 1536 641 1521.5 c 128,-1,12
 646 1507 646 1507 646 1488 c 0,13,14
 646 1480 646 1480 644 1466 c 2,15,-1
 421 -12 l 2,16,17
 411 -82 411 -82 385 -82 c 2,18,-1
 364 -82 l 2,0,1
204 748 m 128,-1,20
 247 748 247 748 269.5 829.5 c 128,-1,21
 292 911 292 911 292 1052 c 0,22,23
 292 1358 292 1358 204 1358 c 0,24,25
 160 1358 160 1358 137 1277 c 128,-1,26
 114 1196 114 1196 114 1052 c 0,27,28
 114 912 114 912 137.5 830 c 128,-1,19
 161 748 161 748 204 748 c 128,-1,20
204 664 m 0,29,30
 125 664 125 664 83.5 763.5 c 128,-1,31
 42 863 42 863 42 1051 c 128,-1,32
 42 1239 42 1239 83 1340.5 c 128,-1,33
 124 1442 124 1442 204 1442 c 0,34,35
 283 1442 283 1442 323.5 1340.5 c 128,-1,36
 364 1239 364 1239 364 1051 c 128,-1,37
 364 863 364 863 323 763.5 c 128,-1,38
 282 664 282 664 204 664 c 0,29,30
796 83 m 0,39,40
 839 83 839 83 861.5 164 c 128,-1,41
 884 245 884 245 884 387 c 0,42,43
 884 694 884 694 796 694 c 0,44,45
 752 694 752 694 729 612 c 128,-1,46
 706 530 706 530 706 387 c 0,47,48
 706 247 706 247 730 165 c 128,-1,49
 754 83 754 83 796 83 c 0,39,40
796 -1 m 0,50,51
 717 -1 717 -1 675.5 99 c 128,-1,52
 634 199 634 199 634 387 c 128,-1,53
 634 575 634 575 675 676.5 c 128,-1,54
 716 778 716 778 796 778 c 0,55,56
 875 778 875 778 915.5 676.5 c 128,-1,57
 956 575 956 575 956 387 c 128,-1,58
 956 199 956 199 915 99 c 128,-1,59
 874 -1 874 -1 796 -1 c 0,50,51
EndSplineSet
EndChar

StartChar: ampersand
Encoding: 38 38 9
Width: 1074
GlyphClass: 2
Flags: W
LayerCount: 2
Fore
SplineSet
465 -14 m 0,0,1
 392 -14 392 -14 334 7.5 c 128,-1,2
 276 29 276 29 228 77 c 128,-1,3
 180 125 180 125 154 211.5 c 128,-1,4
 128 298 128 298 128 418 c 0,5,6
 128 547 128 547 186.5 641 c 128,-1,7
 245 735 245 735 315 756 c 1,8,9
 289 763 289 763 264 777.5 c 128,-1,10
 239 792 239 792 213.5 819 c 128,-1,11
 188 846 188 846 169 881.5 c 128,-1,12
 150 917 150 917 138 970 c 128,-1,13
 126 1023 126 1023 126 1086 c 0,14,15
 126 1278 126 1278 203 1368.5 c 128,-1,16
 280 1459 280 1459 402 1459 c 0,17,18
 484 1459 484 1459 536 1437 c 0,19,20
 565 1424 565 1424 562 1400 c 1,21,-1
 560 1361 l 2,22,23
 560 1346 560 1346 552 1340.5 c 128,-1,24
 544 1335 544 1335 533 1341 c 1,25,-1
 522 1345 l 2,26,27
 511 1349 511 1349 501 1352 c 128,-1,28
 491 1355 491 1355 471.5 1358 c 128,-1,29
 452 1361 452 1361 431 1361 c 0,30,31
 394 1361 394 1361 362.5 1348.5 c 128,-1,32
 331 1336 331 1336 302.5 1307 c 128,-1,33
 274 1278 274 1278 257.5 1222 c 128,-1,34
 241 1166 241 1166 241 1088 c 0,35,36
 241 964 241 964 290.5 889 c 128,-1,37
 340 814 340 814 429 814 c 2,38,-1
 682 814 l 2,39,40
 697 814 697 814 697 844 c 2,41,-1
 699 1354 l 2,42,43
 700 1408 700 1408 730 1408 c 2,44,-1
 784 1408 l 2,45,46
 811 1408 811 1408 811 1354 c 2,47,-1
 811 844 l 2,48,49
 811 814 811 814 825 814 c 2,50,-1
 974 814 l 2,51,52
 989 814 989 814 997 806 c 128,-1,53
 1005 798 1005 798 1005 775 c 2,54,-1
 1005 754 l 2,55,56
 1005 711 1005 711 974 711 c 2,57,-1
 825 711 l 2,58,59
 811 711 811 711 811 682 c 2,60,-1
 811 329 l 2,61,62
 811 84 811 84 922 84 c 0,63,64
 963 84 963 84 1004 114 c 0,65,66
 1014 122 1014 122 1023 117 c 128,-1,67
 1032 112 1032 112 1036 95 c 1,68,-1
 1039 68 l 2,69,70
 1040 65 1040 65 1040 58 c 0,71,72
 1040 36 1040 36 1021 23 c 0,73,74
 965 -15 965 -15 904 -15 c 0,75,76
 842 -15 842 -15 795 22 c 128,-1,77
 748 59 748 59 735 129 c 1,78,79
 726 113 726 113 715 97.5 c 128,-1,80
 704 82 704 82 681 60.5 c 128,-1,81
 658 39 658 39 630.5 23.5 c 128,-1,82
 603 8 603 8 559.5 -3 c 128,-1,83
 516 -14 516 -14 465 -14 c 0,0,1
474 80 m 0,84,85
 508 80 508 80 537 86 c 0,86,87
 673 111 673 111 701 251 c 1,88,89
 699 287 699 287 697 683 c 0,90,91
 697 711 697 711 682 711 c 2,92,-1
 603 711 l 1,93,-1
 439 711 l 1,94,95
 360 710 360 710 301.5 634 c 128,-1,96
 243 558 243 558 243 407 c 0,97,98
 243 341 243 341 254.5 288 c 128,-1,99
 266 235 266 235 285.5 200.5 c 128,-1,100
 305 166 305 166 328 141 c 128,-1,101
 351 116 351 116 378.5 103.5 c 128,-1,102
 406 91 406 91 429 85.5 c 128,-1,103
 452 80 452 80 474 80 c 0,84,85
EndSplineSet
EndChar

StartChar: quotesingle
Encoding: 39 39 10
Width: 374
GlyphClass: 2
Flags: W
LayerCount: 2
Fore
SplineSet
178 800 m 2,0,1
 163 800 163 800 160 861 c 2,2,-1
 132 1389 l 1,3,-1
 132 1399 l 2,4,5
 132 1422 132 1422 139 1440 c 128,-1,6
 146 1458 146 1458 156 1458 c 2,7,-1
 218 1458 l 2,8,9
 228 1458 228 1458 234.5 1438.5 c 128,-1,10
 241 1419 241 1419 241 1393 c 2,11,-1
 241 1388 l 1,12,-1
 215 861 l 2,13,14
 214 842 214 842 213.5 834.5 c 128,-1,15
 213 827 213 827 211 817 c 128,-1,16
 209 807 209 807 205.5 803.5 c 128,-1,17
 202 800 202 800 197 800 c 2,18,-1
 178 800 l 2,0,1
EndSplineSet
EndChar

StartChar: parenleft
Encoding: 40 40 11
Width: 398
GlyphClass: 2
Flags: W
LayerCount: 2
Fore
SplineSet
282 -143 m 0,0,1
 232 -117 232 -117 195 -38.5 c 128,-1,2
 158 40 158 40 137 156.5 c 128,-1,3
 116 273 116 273 106 407.5 c 128,-1,4
 96 542 96 542 96 699 c 128,-1,5
 96 856 96 856 106 990.5 c 128,-1,6
 116 1125 116 1125 137 1241.5 c 128,-1,7
 158 1358 158 1358 195 1436 c 128,-1,8
 232 1514 232 1514 282 1540 c 0,9,10
 283 1541 283 1541 285 1541 c 0,11,12
 294 1541 294 1541 301 1519 c 128,-1,13
 308 1497 308 1497 308 1470 c 2,14,-1
 308 1434 l 2,15,16
 308 1417 308 1417 307 1404 c 128,-1,17
 306 1391 306 1391 304.5 1383.5 c 128,-1,18
 303 1376 303 1376 299 1367.5 c 128,-1,19
 295 1359 295 1359 292.5 1355.5 c 128,-1,20
 290 1352 290 1352 283.5 1343.5 c 128,-1,21
 277 1335 277 1335 274 1330 c 0,22,23
 190 1204 190 1204 190 699 c 128,-1,24
 190 194 190 194 275 66 c 0,25,26
 277 64 277 64 285 53 c 128,-1,27
 293 42 293 42 294 40 c 128,-1,28
 295 38 295 38 299.5 28.5 c 128,-1,29
 304 19 304 19 304.5 11.5 c 128,-1,30
 305 4 305 4 306.5 -9 c 128,-1,31
 308 -22 308 -22 308 -39 c 2,32,-1
 308 -73 l 2,33,34
 308 -100 308 -100 301 -122 c 128,-1,35
 294 -144 294 -144 285 -144 c 0,36,37
 283 -144 283 -144 282 -143 c 0,0,1
EndSplineSet
EndChar

StartChar: parenright
Encoding: 41 41 12
Width: 403
GlyphClass: 2
Flags: W
LayerCount: 2
Fore
SplineSet
118 -143 m 0,0,1
 117 -144 117 -144 115 -144 c 0,2,3
 106 -144 106 -144 98.5 -121.5 c 128,-1,4
 91 -99 91 -99 91 -73 c 2,5,-1
 91 -37 l 2,6,7
 91 -17 91 -17 92.5 -3 c 128,-1,8
 94 11 94 11 97.5 21 c 128,-1,9
 101 31 101 31 104 36 c 128,-1,10
 107 41 107 41 114 51.5 c 128,-1,11
 121 62 121 62 125 67 c 0,12,13
 210 192 210 192 210 698 c 0,14,15
 210 1206 210 1206 125 1331 c 0,16,17
 122 1336 122 1336 114.5 1346.5 c 128,-1,18
 107 1357 107 1357 104.5 1362 c 128,-1,19
 102 1367 102 1367 98 1377.5 c 128,-1,20
 94 1388 94 1388 92.5 1402 c 128,-1,21
 91 1416 91 1416 91 1436 c 2,22,-1
 91 1470 l 2,23,24
 91 1496 91 1496 98.5 1518.5 c 128,-1,25
 106 1541 106 1541 115 1541 c 0,26,27
 117 1541 117 1541 118 1540 c 0,28,29
 184 1505 184 1505 227.5 1376.5 c 128,-1,30
 271 1248 271 1248 288 1079 c 128,-1,31
 305 910 305 910 305 698 c 0,32,33
 305 485 305 485 288 316 c 128,-1,34
 271 147 271 147 227.5 19 c 128,-1,35
 184 -109 184 -109 118 -143 c 0,0,1
EndSplineSet
EndChar

StartChar: asterisk
Encoding: 42 42 13
Width: 709
GlyphClass: 2
Flags: W
LayerCount: 2
Fore
SplineSet
247 422 m 0,0,1
 225 422 225 422 204.5 432.5 c 128,-1,2
 184 443 184 443 184 460 c 0,3,4
 184 478 184 478 203 515.5 c 128,-1,5
 222 553 222 553 242 583.5 c 128,-1,6
 262 614 262 614 290 654 c 128,-1,7
 318 694 318 694 321 698 c 1,8,-1
 135 753 l 2,9,10
 119 758 119 758 109 774.5 c 128,-1,11
 99 791 99 791 99 813 c 0,12,13
 99 839 99 839 110.5 858.5 c 128,-1,14
 122 878 122 878 141 878 c 0,15,16
 154 878 154 878 194 850 c 128,-1,17
 234 822 234 822 280 786 c 128,-1,18
 326 750 326 750 336 743 c 1,19,20
 333 768 333 768 325 822.5 c 128,-1,21
 317 877 317 877 313 917.5 c 128,-1,22
 309 958 309 958 309 997 c 0,23,24
 309 1021 309 1021 322 1033.5 c 128,-1,25
 335 1046 335 1046 355 1046 c 0,26,27
 400 1046 400 1046 400 1001 c 0,28,29
 400 999 400 999 379 743 c 1,30,-1
 537 843 l 1,31,32
 547 848 547 848 555 848 c 0,33,34
 575 848 575 848 589.5 830 c 128,-1,35
 604 812 604 812 604 790 c 0,36,37
 604 753 604 753 564 743 c 2,38,-1
 388 698 l 1,39,-1
 549 517 l 2,40,41
 558 506 558 506 558 494 c 0,42,43
 558 476 558 476 541.5 461.5 c 128,-1,44
 525 447 525 447 506 447 c 0,45,46
 485 447 485 447 472 467 c 2,47,-1
 353 667 l 1,48,-1
 269 431 l 2,49,50
 266 422 266 422 247 422 c 0,0,1
EndSplineSet
EndChar

StartChar: plus
Encoding: 43 43 14
Width: 801
GlyphClass: 2
Flags: W
LayerCount: 2
Fore
SplineSet
395 298 m 2,0,1
 378 298 378 298 370 306.5 c 128,-1,2
 362 315 362 315 362 343 c 2,3,-1
 362 541 l 2,4,5
 362 555 362 555 358.5 559 c 128,-1,6
 355 563 355 563 347 563 c 2,7,-1
 159 563 l 2,8,9
 144 563 144 563 136 570 c 128,-1,10
 128 577 128 577 128 600 c 2,11,-1
 128 615 l 2,12,13
 128 631 128 631 132.5 639.5 c 128,-1,14
 137 648 137 648 143 650 c 128,-1,15
 149 652 149 652 159 652 c 2,16,-1
 347 652 l 2,17,18
 355 652 355 652 358.5 656 c 128,-1,19
 362 660 362 660 362 674 c 2,20,-1
 362 867 l 2,21,22
 362 895 362 895 370 903.5 c 128,-1,23
 378 912 378 912 395 912 c 2,24,-1
 427 912 l 2,25,26
 443 912 443 912 450.5 903.5 c 128,-1,27
 458 895 458 895 458 867 c 2,28,-1
 458 674 l 2,29,30
 458 660 458 660 462 656 c 128,-1,31
 466 652 466 652 475 652 c 2,32,-1
 660 652 l 2,33,34
 675 652 675 652 683 645 c 128,-1,35
 691 638 691 638 691 615 c 2,36,-1
 691 600 l 2,37,38
 691 584 691 584 686 575.5 c 128,-1,39
 681 567 681 567 675 565 c 128,-1,40
 669 563 669 563 660 563 c 2,41,-1
 475 563 l 2,42,43
 466 563 466 563 462 559 c 128,-1,44
 458 555 458 555 458 541 c 2,45,-1
 458 343 l 2,46,47
 458 315 458 315 450.5 306.5 c 128,-1,48
 443 298 443 298 427 298 c 2,49,-1
 395 298 l 2,0,1
EndSplineSet
EndChar

StartChar: comma
Encoding: 44 44 15
Width: 323
GlyphClass: 2
Flags: W
LayerCount: 2
Fore
SplineSet
98 -283 m 0,0,1
 94 -285 94 -285 91 -285 c 0,2,3
 75 -285 75 -285 75 -246 c 2,4,-1
 75 -234 l 2,5,6
 75 -225 75 -225 75.5 -219 c 128,-1,7
 76 -213 76 -213 78 -207.5 c 128,-1,8
 80 -202 80 -202 82 -199 c 128,-1,9
 84 -196 84 -196 88.5 -189.5 c 128,-1,10
 93 -183 93 -183 97 -177 c 0,11,12
 114 -149 114 -149 124.5 -102.5 c 128,-1,13
 135 -56 135 -56 135 -27 c 0,14,15
 135 0 135 0 129 0 c 2,16,-1
 91 0 l 2,17,18
 70 0 70 0 70 52 c 2,19,-1
 70 152 l 2,20,21
 70 182 70 182 80.5 198.5 c 128,-1,22
 91 215 91 215 104 215 c 2,23,-1
 180 215 l 2,24,25
 191 215 191 215 198.5 194.5 c 128,-1,26
 206 174 206 174 206 142 c 2,27,-1
 206 81 l 2,28,29
 206 -81 206 -81 173.5 -171.5 c 128,-1,30
 141 -262 141 -262 98 -283 c 0,0,1
EndSplineSet
EndChar

StartChar: hyphen
Encoding: 45 45 16
Width: 410
GlyphClass: 2
Flags: W
LayerCount: 2
Fore
SplineSet
75 561 m 2,0,1
 52 561 52 561 52 616 c 2,2,-1
 52 623 l 2,3,4
 52 678 52 678 75 678 c 2,5,-1
 330 678 l 2,6,7
 355 678 355 678 355 623 c 2,8,-1
 355 616 l 2,9,10
 355 561 355 561 330 561 c 2,11,-1
 75 561 l 2,0,1
EndSplineSet
EndChar

StartChar: period
Encoding: 46 46 17
Width: 303
GlyphClass: 2
Flags: W
LayerCount: 2
Fore
SplineSet
108 0 m 2,0,1
 81 0 81 0 81 55 c 2,2,-1
 81 164 l 2,3,4
 81 219 81 219 108 219 c 2,5,-1
 200 219 l 2,6,7
 226 219 226 219 226 164 c 2,8,-1
 226 55 l 2,9,10
 226 0 226 0 200 0 c 2,11,-1
 108 0 l 2,0,1
EndSplineSet
EndChar

StartChar: slash
Encoding: 47 47 18
Width: 490
GlyphClass: 2
Flags: W
LayerCount: 2
Fore
SplineSet
85 -205 m 2,0,1
 76 -205 76 -205 76 -179 c 0,2,3
 76 -178 76 -178 76.5 -175 c 128,-1,4
 77 -172 77 -172 77 -170 c 2,5,-1
 311 1612 l 2,6,7
 312 1627 312 1627 317.5 1637 c 128,-1,8
 323 1647 323 1647 328 1647 c 2,9,10
 409 1647 l 2,11,12
 417 1647 417 1647 417 1620 c 0,13,14
 417 1612 l 1,15,-1
 183 -170 l 2,16,17
 178 -205 178 -205 167 -205 c 2,18,-1
 85 -205 l 2,0,1
EndSplineSet
EndChar

StartChar: zero
Encoding: 48 48 19
Width: 820
GlyphClass: 2
Flags: W
LayerCount: 2
Fore
SplineSet
410 74 m 128,-1,1
 481 74 481 74 524.5 136 c 128,-1,2
 568 198 568 198 590.5 342.5 c 128,-1,3
 613 487 613 487 613 729 c 0,4,5
 613 962 613 962 591 1101 c 128,-1,6
 569 1240 569 1240 525 1301 c 128,-1,7
 481 1362 481 1362 409 1362 c 128,-1,8
 337 1362 337 1362 292.5 1300.5 c 128,-1,9
 248 1239 248 1239 226 1100 c 128,-1,10
 204 961 204 961 204 729 c 0,11,12
 204 490 204 490 227 344.5 c 128,-1,13
 250 199 250 199 294.5 136.5 c 128,-1,0
 339 74 339 74 410 74 c 128,-1,1
409 -20 m 0,14,15
 353 -20 353 -20 307.5 1.5 c 128,-1,16
 262 23 262 23 221.5 76 c 128,-1,17
 181 129 181 129 153 213 c 128,-1,18
 125 297 125 297 109 427.5 c 128,-1,19
 93 558 93 558 93 729 c 0,20,21
 93 899 93 899 109 1027.5 c 128,-1,22
 125 1156 125 1156 152.5 1236 c 128,-1,23
 180 1316 180 1316 221 1366 c 128,-1,24
 262 1416 262 1416 307 1435.5 c 128,-1,25
 352 1455 352 1455 408 1455 c 0,26,27
 465 1455 465 1455 510 1436 c 128,-1,28
 555 1417 555 1417 596.5 1367.5 c 128,-1,29
 638 1318 638 1318 665.5 1237.5 c 128,-1,30
 693 1157 693 1157 709 1028.5 c 128,-1,31
 725 900 725 900 725 729 c 0,32,33
 725 517 725 517 701.5 367 c 128,-1,34
 678 217 678 217 633.5 134.5 c 128,-1,35
 589 52 589 52 534.5 16 c 128,-1,36
 480 -20 480 -20 409 -20 c 0,14,15
EndSplineSet
EndChar

StartChar: one
Encoding: 49 49 20
Width: 450
GlyphClass: 2
Flags: W
LayerCount: 2
Fore
SplineSet
223 0 m 2,0,1
 201 0 201 0 201 67 c 2,2,-1
 201 1274 l 2,3,4
 201 1288 201 1288 197.5 1293.5 c 128,-1,5
 194 1299 194 1299 187 1297 c 2,6,-1
 94 1273 l 2,7,8
 83 1270 83 1270 77.5 1275.5 c 128,-1,9
 72 1281 72 1281 72 1302 c 2,10,-1
 72 1356 l 2,11,12
 72 1376 72 1376 94 1383 c 2,13,-1
 277 1434 l 2,14,15
 288 1437 288 1437 295 1437 c 0,16,17
 313 1437 313 1437 313 1399 c 2,18,-1
 313 67 l 2,19,20
 313 0 313 0 290 0 c 2,21,-1
 223 0 l 2,0,1
EndSplineSet
EndChar

StartChar: two
Encoding: 50 50 21
Width: 759
GlyphClass: 2
Flags: W
LayerCount: 2
Fore
SplineSet
616 0 m 2,0,1
 130 0 l 2,2,3
 118 0 118 0 112 9 c 128,-1,4
 106 18 106 18 106 44 c 0,5,6
 106 103 106 103 107 105 c 0,7,8
 109 208 109 208 135.5 300.5 c 128,-1,9
 162 393 162 393 203.5 463 c 128,-1,10
 245 533 245 533 294.5 597.5 c 128,-1,11
 344 662 344 662 393.5 720.5 c 128,-1,12
 443 779 443 779 483.5 836.5 c 128,-1,13
 524 894 524 894 549.5 962 c 128,-1,14
 575 1030 575 1030 575 1102 c 0,15,16
 575 1358 575 1358 372 1358 c 0,17,18
 325 1358 325 1358 284.5 1351.5 c 128,-1,19
 244 1345 244 1345 223.5 1339 c 128,-1,20
 203 1333 203 1333 162 1317.5 c 128,-1,21
 121 1302 121 1302 103 1296 c 1,22,23
 97 1290 97 1290 95 1300 c 1,24,25
 87 1309 87 1309 80 1330.5 c 128,-1,26
 73 1352 73 1352 73 1365 c 0,27,28
 73 1384 73 1384 79 1388 c 1,29,30
 160 1421 160 1421 225 1436.5 c 128,-1,31
 290 1452 290 1452 373 1452 c 0,32,33
 438 1452 438 1452 490.5 1435.5 c 128,-1,34
 543 1419 543 1419 588 1381.5 c 128,-1,35
 633 1344 633 1344 658 1276 c 128,-1,36
 683 1208 683 1208 683 1114 c 0,37,38
 683 1037 683 1037 658.5 964 c 128,-1,39
 634 891 634 891 595 830 c 128,-1,40
 556 769 556 769 508 708 c 128,-1,41
 460 647 460 647 411 583.5 c 128,-1,42
 362 520 362 520 320.5 454.5 c 128,-1,43
 279 389 279 389 250.5 306.5 c 128,-1,44
 222 224 222 224 216 136 c 0,45,46
 215 132 215 132 216.5 109.5 c 128,-1,47
 218 87 218 87 220 87 c 2,48,-1
 617 87 l 2,49,50
 628 87 628 87 632.5 80.5 c 128,-1,51
 637 74 637 74 637 52 c 2,52,-1
 637 33 l 2,53,54
 637 12 637 12 632.5 6 c 128,-1,55
 628 0 628 0 616 0 c 2,0,1
EndSplineSet
EndChar

StartChar: three
Encoding: 51 51 22
Width: 692
GlyphClass: 2
Flags: W
LayerCount: 2
Fore
SplineSet
498 1058 m 0,0,1
 498 1221 498 1221 449 1289.5 c 128,-1,2
 400 1358 400 1358 299 1358 c 0,3,4
 178 1358 178 1358 86 1303 c 0,5,6
 83 1301 83 1301 81.5 1302.5 c 128,-1,7
 80 1304 80 1304 79 1310 c 1,8,9
 76 1310 76 1310 72 1326.5 c 128,-1,10
 68 1343 68 1343 68 1353 c 0,11,12
 68 1386 68 1386 84 1396 c 0,13,14
 181 1452 181 1452 307 1452 c 0,15,16
 608 1452 608 1452 608 1062 c 0,17,18
 608 920 608 920 560 841.5 c 128,-1,19
 512 763 512 763 413 735 c 1,20,21
 619 699 619 699 619 371 c 0,22,23
 619 -13 619 -13 292 -13 c 0,24,25
 161 -13 161 -13 87 31 c 1,26,27
 74 40 74 40 74 72 c 0,28,29
 74 84 74 84 77.5 101.5 c 128,-1,30
 81 119 81 119 86 119 c 1,31,32
 87 125 87 125 88.5 127 c 128,-1,33
 90 129 90 129 93 126 c 1,34,35
 174 80 174 80 284 80 c 0,36,37
 405 80 405 80 459 151.5 c 128,-1,38
 513 223 513 223 513 392 c 1,39,40
 512 550 512 550 461 614.5 c 128,-1,41
 410 679 410 679 302 683 c 1,42,-1
 266 683 l 2,43,44
 253 683 253 683 249 689 c 128,-1,45
 245 695 245 695 245 710 c 2,46,-1
 245 762 l 2,47,48
 245 787 245 787 266 787 c 0,49,50
 392 787 392 787 445 848 c 128,-1,51
 498 909 498 909 498 1058 c 0,0,1
EndSplineSet
EndChar

StartChar: four
Encoding: 52 52 23
Width: 861
GlyphClass: 2
Flags: W
LayerCount: 2
Fore
SplineSet
577 0 m 2,0,1
 558 0 558 0 550 10.5 c 128,-1,2
 542 21 542 21 542 51 c 2,3,-1
 542 284 l 1,4,-1
 168 284 l 2,5,6
 141 284 141 284 123.5 298 c 128,-1,7
 106 312 106 312 106 338 c 0,8,9
 106 347 106 347 107 351 c 2,10,-1
 242 1371 l 2,11,12
 247 1407 247 1407 254.5 1422.5 c 128,-1,13
 262 1438 262 1438 279 1438 c 2,14,-1
 318 1438 l 2,15,16
 346 1438 346 1438 346 1393 c 0,17,18
 346 1383 346 1383 344 1371 c 2,19,-1
 229 413 l 2,20,21
 226 390 226 390 248 390 c 2,22,-1
 542 390 l 1,23,-1
 542 1385 l 2,24,25
 542 1416 542 1416 550.5 1427 c 128,-1,26
 559 1438 559 1438 577 1438 c 2,27,-1
 614 1438 l 2,28,29
 632 1438 632 1438 640.5 1427 c 128,-1,30
 649 1416 649 1416 649 1385 c 2,31,-1
 649 390 l 1,32,-1
 810 390 l 2,33,34
 841 390 841 390 851.5 382.5 c 128,-1,35
 862 375 862 375 862 349 c 2,36,-1
 862 326 l 2,37,38
 862 300 862 300 851 292 c 128,-1,39
 840 284 840 284 810 284 c 2,40,-1
 649 284 l 1,41,-1
 649 51 l 2,42,43
 649 21 649 21 641 10.5 c 128,-1,44
 633 0 633 0 614 0 c 2,45,-1
 577 0 l 2,0,1
EndSplineSet
EndChar

StartChar: five
Encoding: 53 53 24
Width: 880
GlyphClass: 2
Flags: W
LayerCount: 2
Fore
SplineSet
421 -14 m 1,0,1
 389 -12 389 -12 282.5 4.5 c 128,-1,2
 176 21 176 21 149 36 c 0,3,4
 141 41 141 41 135 58.5 c 128,-1,5
 129 76 129 76 129 84 c 0,6,7
 129 138 129 138 146 138 c 0,8,9
 149 138 149 138 155 136 c 0,10,11
 156 136 156 136 167.5 131.5 c 128,-1,12
 179 127 179 127 191.5 123 c 128,-1,13
 204 119 204 119 223.5 113 c 128,-1,14
 243 107 243 107 264.5 102 c 128,-1,15
 286 97 286 97 310 92 c 128,-1,16
 334 87 334 87 361 84.5 c 128,-1,17
 388 82 388 82 414 82 c 0,18,19
 493 82 493 82 549 111 c 128,-1,20
 605 140 605 140 636 193.5 c 128,-1,21
 667 247 667 247 681 314 c 128,-1,22
 695 381 695 381 695 467 c 0,23,24
 695 528 695 528 691 575.5 c 128,-1,25
 687 623 687 623 673.5 675 c 128,-1,26
 660 727 660 727 636.5 761 c 128,-1,27
 613 795 613 795 572 817 c 128,-1,28
 531 839 531 839 475 839 c 0,29,30
 428 839 428 839 387.5 822.5 c 128,-1,31
 347 806 347 806 320 782 c 128,-1,32
 293 758 293 758 271 734.5 c 128,-1,33
 249 711 249 711 230.5 694.5 c 128,-1,34
 212 678 212 678 197 678 c 2,35,-1
 168 678 l 2,36,37
 160 678 160 678 154.5 683 c 128,-1,38
 149 688 149 688 147 699.5 c 128,-1,39
 145 711 145 711 144.5 720 c 128,-1,40
 144 729 144 729 143 747 c 0,41,42
 143 754 143 754 143 758 c 2,43,-1
 125 1378 l 1,44,-1
 125 1390 l 2,45,46
 125 1416 125 1416 130.5 1427 c 128,-1,47
 136 1438 136 1438 153 1438 c 2,48,-1
 721 1438 l 2,49,50
 749 1438 749 1438 749 1408 c 2,51,-1
 748 1372 l 2,52,53
 747 1329 747 1329 734 1329 c 2,54,-1
 248 1329 l 2,55,56
 236 1329 236 1329 231.5 1321.5 c 128,-1,57
 227 1314 227 1314 227 1290 c 2,58,-1
 227 794 l 1,59,60
 329 931 329 931 495 931 c 0,61,62
 581 931 581 931 641.5 898.5 c 128,-1,63
 702 866 702 866 736.5 802.5 c 128,-1,64
 771 739 771 739 786 657 c 128,-1,65
 801 575 801 575 801 465 c 0,66,67
 801 352 801 352 783 268 c 128,-1,68
 765 184 765 184 733 130.5 c 128,-1,69
 701 77 701 77 652 44.5 c 128,-1,70
 603 12 603 12 547.5 -1 c 128,-1,71
 492 -14 492 -14 421 -14 c 1,0,1
EndSplineSet
EndChar

StartChar: six
Encoding: 54 54 25
Width: 795
GlyphClass: 2
Flags: W
LayerCount: 2
Fore
SplineSet
94 721 m 0,0,1
 94 997 94 997 132 1158.5 c 128,-1,2
 170 1320 170 1320 243.5 1386 c 128,-1,3
 317 1452 317 1452 438 1452 c 0,4,5
 499 1452 499 1452 557 1430.5 c 128,-1,6
 615 1409 615 1409 647 1381 c 0,7,8
 659 1370 659 1370 659 1348 c 1,9,10
 660 1343 660 1343 657.5 1326.5 c 128,-1,11
 655 1310 655 1310 653 1306 c 0,12,13
 644 1279 644 1279 629 1290 c 0,14,15
 627 1291 627 1291 616 1299 c 128,-1,16
 605 1307 605 1307 600 1310.5 c 128,-1,17
 595 1314 595 1314 582.5 1321 c 128,-1,18
 570 1328 570 1328 561.5 1332 c 128,-1,19
 553 1336 553 1336 538.5 1342 c 128,-1,20
 524 1348 524 1348 511 1351 c 128,-1,21
 498 1354 498 1354 481 1356 c 128,-1,22
 464 1358 464 1358 447 1358 c 0,23,24
 323 1358 323 1358 267.5 1242 c 128,-1,25
 212 1126 212 1126 212 854 c 2,26,-1
 212 816 l 1,27,28
 336 864 336 864 426 864 c 0,29,30
 509 864 509 864 567 830.5 c 128,-1,31
 625 797 625 797 656 735 c 128,-1,32
 687 673 687 673 700 599.5 c 128,-1,33
 713 526 713 526 713 431 c 0,34,35
 713 326 713 326 697 247 c 128,-1,36
 681 168 681 168 654.5 119 c 128,-1,37
 628 70 628 70 587.5 40 c 128,-1,38
 547 10 547 10 503 -1.5 c 128,-1,39
 459 -13 459 -13 404 -13 c 0,40,41
 341 -13 341 -13 292.5 8 c 128,-1,42
 244 29 244 29 210 73.5 c 128,-1,43
 176 118 176 118 153 177.5 c 128,-1,44
 130 237 130 237 117.5 323 c 128,-1,45
 105 409 105 409 99.5 503 c 128,-1,46
 94 597 94 597 94 721 c 0,0,1
408 81 m 0,47,48
 474 81 474 81 514.5 111 c 128,-1,49
 555 141 555 141 578.5 221 c 128,-1,50
 602 301 602 301 602 439 c 0,51,52
 602 508 602 508 594.5 561.5 c 128,-1,53
 587 615 587 615 568.5 664.5 c 128,-1,54
 550 714 550 714 512.5 741 c 128,-1,55
 475 768 475 768 421 768 c 0,56,57
 334 768 334 768 209 721 c 1,58,-1
 209 665 l 2,59,60
 209 343 209 343 252 212 c 128,-1,61
 295 81 295 81 408 81 c 0,47,48
EndSplineSet
EndChar

StartChar: seven
Encoding: 55 55 26
Width: 499
GlyphClass: 2
Flags: W
LayerCount: 2
Fore
SplineSet
192 0 m 2,0,1
 168 0 168 0 168 36 c 0,2,3
 168 46 168 46 169 51 c 2,4,-1
 291 1320 l 2,5,6
 292 1335 292 1335 281 1335 c 2,7,-1
 107 1335 l 2,8,9
 94 1335 94 1335 89 1340.5 c 128,-1,10
 84 1346 84 1346 84 1366 c 2,11,-1
 84 1411 l 2,12,13
 84 1428 84 1428 89.5 1433 c 128,-1,14
 95 1438 95 1438 107 1438 c 2,15,-1
 392 1438 l 2,16,17
 404 1438 404 1438 409.5 1431.5 c 128,-1,18
 415 1425 415 1425 415 1406 c 0,19,20
 415 1395 415 1395 414 1389 c 2,21,-1
 281 51 l 2,22,23
 278 20 278 20 273 10 c 128,-1,24
 268 0 268 0 257 0 c 2,25,-1
 192 0 l 2,0,1
EndSplineSet
EndChar

StartChar: eight
Encoding: 56 56 27
Width: 811
GlyphClass: 2
Flags: W
LayerCount: 2
Fore
SplineSet
515 759 m 1,0,1
 583 898 583 898 583 1035 c 0,2,3
 583 1211 583 1211 539 1286 c 128,-1,4
 495 1361 495 1361 407 1361 c 0,5,6
 315 1361 315 1361 272 1284 c 128,-1,7
 229 1207 229 1207 228 1042 c 0,8,9
 228 995 228 995 232.5 962.5 c 128,-1,10
 237 930 237 930 252 903 c 128,-1,11
 267 876 267 876 284 859 c 128,-1,12
 301 842 301 842 339 823.5 c 128,-1,13
 377 805 377 805 413 792.5 c 128,-1,14
 449 780 449 780 515 759 c 1,0,1
406 -13 m 0,15,16
 97 -13 97 -13 97 412 c 0,17,18
 97 523 97 523 136.5 626.5 c 128,-1,19
 176 730 176 730 219 780 c 1,20,21
 175 817 175 817 150 879 c 128,-1,22
 125 941 125 941 125 1062 c 0,23,24
 125 1262 125 1262 199.5 1356.5 c 128,-1,25
 274 1451 274 1451 406 1451 c 0,26,27
 682 1451 682 1451 682 1040 c 0,28,29
 682 942 682 942 651 855 c 128,-1,30
 620 768 620 768 583 718 c 1,31,32
 715 632 715 632 715 399 c 0,33,34
 715 281 715 281 691.5 198 c 128,-1,35
 668 115 668 115 624.5 70 c 128,-1,36
 581 25 581 25 528 6 c 128,-1,37
 475 -13 475 -13 406 -13 c 0,15,16
408 89 m 0,38,39
 511 89 511 89 560 161.5 c 128,-1,40
 609 234 609 234 609 416 c 0,41,42
 609 477 609 477 599.5 517.5 c 128,-1,43
 590 558 590 558 571.5 589.5 c 128,-1,44
 553 621 553 621 512 646 c 128,-1,45
 471 671 471 671 421 691 c 128,-1,46
 371 711 371 711 286 738 c 1,47,48
 254 688 254 688 227.5 588.5 c 128,-1,49
 201 489 201 489 201 420 c 0,50,51
 201 239 201 239 252.5 164 c 128,-1,52
 304 89 304 89 408 89 c 0,38,39
EndSplineSet
EndChar

StartChar: nine
Encoding: 57 57 28
Width: 770
GlyphClass: 2
Flags: W
LayerCount: 2
Fore
SplineSet
358 -13 m 0,0,1
 307 -13 307 -13 247 9.5 c 128,-1,2
 187 32 187 32 158 65 c 1,3,4
 149 73 149 73 149 104 c 1,5,-1
 153 147 l 2,6,7
 154 158 154 158 156 164 c 128,-1,8
 158 170 158 170 159.5 172.5 c 128,-1,9
 161 175 161 175 164 174.5 c 128,-1,10
 167 174 167 174 168.5 173 c 128,-1,11
 170 172 170 172 172.5 169 c 128,-1,12
 175 166 175 166 176 166 c 0,13,14
 202 140 202 140 251.5 116 c 128,-1,15
 301 92 301 92 358 92 c 0,16,17
 463 92 463 92 512.5 193.5 c 128,-1,18
 562 295 562 295 562 522 c 2,19,-1
 562 626 l 1,20,21
 481 559 481 559 379 559 c 0,22,23
 93 559 93 559 93 1001 c 0,24,25
 93 1243 93 1243 173.5 1356 c 128,-1,26
 254 1469 254 1469 389 1469 c 0,27,28
 460 1469 460 1469 509.5 1441.5 c 128,-1,29
 559 1414 559 1414 592.5 1359.5 c 128,-1,30
 626 1305 626 1305 645 1211 c 128,-1,31
 664 1117 664 1117 672 998.5 c 128,-1,32
 680 880 680 880 680 711 c 0,33,34
 680 533 680 533 665.5 404.5 c 128,-1,35
 651 276 651 276 626 195.5 c 128,-1,36
 601 115 601 115 559.5 68.5 c 128,-1,37
 518 22 518 22 470.5 4.5 c 128,-1,38
 423 -13 423 -13 358 -13 c 0,0,1
385 657 m 0,39,40
 490 657 490 657 565 723 c 1,41,-1
 565 886 l 2,42,43
 565 1147 565 1147 524 1258 c 128,-1,44
 483 1369 483 1369 387 1369 c 0,45,46
 299 1369 299 1369 253 1274 c 128,-1,47
 207 1179 207 1179 207 999 c 0,48,49
 207 833 207 833 248 745 c 128,-1,50
 289 657 289 657 385 657 c 0,39,40
EndSplineSet
EndChar

StartChar: colon
Encoding: 58 58 29
Width: 306
GlyphClass: 2
Flags: W
LayerCount: 2
Fore
SplineSet
124 0 m 2,0,1
 113 0 113 0 105.5 20.5 c 128,-1,2
 98 41 98 41 98 73 c 2,3,-1
 98 235 l 2,4,5
 98 267 98 267 105.5 287.5 c 128,-1,6
 113 308 113 308 124 308 c 2,7,-1
 184 308 l 2,8,9
 195 308 195 308 202.5 287.5 c 128,-1,10
 210 267 210 267 210 235 c 2,11,-1
 210 73 l 2,12,13
 210 41 210 41 202.5 20.5 c 128,-1,14
 195 0 195 0 184 0 c 2,15,-1
 124 0 l 2,0,1
124 734 m 2,16,17
 113 734 113 734 105.5 754.5 c 128,-1,18
 98 775 98 775 98 807 c 2,19,-1
 98 970 l 2,20,21
 98 1002 98 1002 105.5 1022.5 c 128,-1,22
 113 1043 113 1043 124 1043 c 2,23,-1
 184 1043 l 2,24,25
 195 1043 195 1043 202.5 1022.5 c 128,-1,26
 210 1002 210 1002 210 970 c 2,27,-1
 210 807 l 2,28,29
 210 775 210 775 202.5 754.5 c 128,-1,30
 195 734 195 734 184 734 c 2,31,-1
 124 734 l 2,16,17
EndSplineSet
EndChar

StartChar: semicolon
Encoding: 59 59 30
Width: 320
GlyphClass: 2
Flags: W
LayerCount: 2
Fore
SplineSet
121 -309 m 0,0,1
 119 -310 119 -310 116 -310 c 0,2,3
 98 -310 98 -310 98 -264 c 2,4,-1
 98 -252 l 2,5,6
 98 -236 98 -236 98.5 -226.5 c 128,-1,7
 99 -217 99 -217 101 -209.5 c 128,-1,8
 103 -202 103 -202 104.5 -199.5 c 128,-1,9
 106 -197 106 -197 111 -189.5 c 128,-1,10
 116 -182 116 -182 119 -177 c 0,11,12
 137 -149 137 -149 147 -103 c 128,-1,13
 157 -57 157 -57 157 -27 c 0,14,15
 157 0 157 0 151 0 c 2,16,-1
 119 0 l 2,17,18
 98 0 98 0 98 52 c 2,19,-1
 98 252 l 2,20,21
 98 314 98 314 119 314 c 2,22,-1
 202 314 l 2,23,24
 213 314 213 314 221 293.5 c 128,-1,25
 229 273 229 273 229 241 c 2,26,-1
 229 81 l 2,27,28
 229 -83 229 -83 195.5 -186 c 128,-1,29
 162 -289 162 -289 121 -309 c 0,0,1
130 734 m 2,30,31
 119 734 119 734 112 754.5 c 128,-1,32
 105 775 105 775 105 807 c 2,33,-1
 105 970 l 2,34,35
 105 1002 105 1002 112 1022.5 c 128,-1,36
 119 1043 119 1043 130 1043 c 2,37,-1
 195 1043 l 2,38,39
 206 1043 206 1043 213.5 1022.5 c 128,-1,40
 221 1002 221 1002 221 970 c 2,41,-1
 221 807 l 2,42,43
 221 775 221 775 213.5 754.5 c 128,-1,44
 206 734 206 734 195 734 c 2,45,-1
 130 734 l 2,30,31
EndSplineSet
EndChar

StartChar: less
Encoding: 60 60 31
Width: 672
GlyphClass: 2
Flags: W
LayerCount: 2
Fore
SplineSet
432 115 m 0,0,1
 429 115 429 115 415 131 c 1,2,-1
 134 514 l 2,3,4
 112 543 112 543 105.5 559.5 c 128,-1,5
 99 576 99 576 99 606 c 2,6,-1
 99 624 l 2,7,8
 99 645 99 645 103.5 659 c 128,-1,9
 108 673 108 673 113 681.5 c 128,-1,10
 118 690 118 690 135 713 c 1,11,-1
 414 1131 l 2,12,13
 422 1142 422 1142 432 1142 c 0,14,15
 449 1142 449 1142 449 1100 c 2,16,-1
 449 1072 l 2,17,18
 449 1042 449 1042 442 1025 c 128,-1,19
 435 1008 435 1008 418 985 c 1,20,-1
 183 627 l 2,21,22
 178 620 178 620 178 612 c 128,-1,23
 178 604 178 604 184 598 c 1,24,-1
 417 272 l 2,25,26
 418 270 418 270 423.5 263.5 c 128,-1,27
 429 257 429 257 430.5 255.5 c 128,-1,28
 432 254 432 254 436 248 c 128,-1,29
 440 242 440 242 441 239.5 c 128,-1,30
 442 237 442 237 444 231 c 128,-1,31
 446 225 446 225 447 220 c 128,-1,32
 448 215 448 215 448.5 208 c 128,-1,33
 449 201 449 201 449 193 c 2,34,-1
 449 154 l 2,35,36
 449 115 449 115 432 115 c 0,0,1
EndSplineSet
EndChar

StartChar: equal
Encoding: 61 61 32
Width: 469
GlyphClass: 2
Flags: W
LayerCount: 2
Fore
SplineSet
69 357 m 2,0,1
 56 357 56 357 52 364 c 128,-1,2
 48 371 48 371 48 401 c 2,3,-1
 48 417 l 2,4,5
 48 438 48 438 50.5 447.5 c 128,-1,6
 53 457 53 457 56.5 458.5 c 128,-1,7
 60 460 60 460 69 460 c 2,8,-1
 400 460 l 2,9,10
 413 460 413 460 417 453.5 c 128,-1,11
 421 447 421 447 421 417 c 2,12,-1
 421 401 l 2,13,14
 421 371 421 371 417 364 c 128,-1,15
 413 357 413 357 400 357 c 2,16,-1
 69 357 l 2,0,1
69 627 m 2,17,18
 56 627 56 627 52 634 c 128,-1,19
 48 641 48 641 48 671 c 2,20,-1
 48 686 l 2,21,22
 48 716 48 716 52 723 c 128,-1,23
 56 730 56 730 69 730 c 2,24,-1
 400 730 l 2,25,26
 413 730 413 730 417 723 c 128,-1,27
 421 716 421 716 421 686 c 2,28,-1
 421 671 l 2,29,30
 421 641 421 641 417 634 c 128,-1,31
 413 627 413 627 400 627 c 2,32,-1
 69 627 l 2,17,18
EndSplineSet
EndChar

StartChar: greater
Encoding: 62 62 33
Width: 672
GlyphClass: 2
Flags: W
LayerCount: 2
Fore
SplineSet
116 115 m 0,0,1
 99 115 99 115 99 157 c 2,2,-1
 99 185 l 2,3,4
 99 215 99 215 106 232 c 128,-1,5
 113 249 113 249 130 272 c 1,6,-1
 365 630 l 2,7,8
 370 637 370 637 370 645 c 128,-1,9
 370 653 370 653 364 659 c 1,10,-1
 131 985 l 2,11,12
 130 987 130 987 124.5 993.5 c 128,-1,13
 119 1000 119 1000 117.5 1001.5 c 128,-1,14
 116 1003 116 1003 112 1009 c 128,-1,15
 108 1015 108 1015 107 1017.5 c 128,-1,16
 106 1020 106 1020 104 1026 c 128,-1,17
 102 1032 102 1032 101 1037 c 128,-1,18
 100 1042 100 1042 99.5 1049 c 128,-1,19
 99 1056 99 1056 99 1064 c 2,20,-1
 99 1103 l 2,21,22
 99 1142 99 1142 116 1142 c 0,23,24
 119 1142 119 1142 133 1126 c 1,25,-1
 414 743 l 2,26,27
 436 714 436 714 442.5 697.5 c 128,-1,28
 449 681 449 681 449 651 c 2,29,-1
 449 632 l 2,30,31
 449 612 449 612 444.5 597.5 c 128,-1,32
 440 583 440 583 435 575 c 128,-1,33
 430 567 430 567 413 543 c 2,34,-1
 134 126 l 2,35,36
 126 115 126 115 116 115 c 0,0,1
EndSplineSet
EndChar

StartChar: question
Encoding: 63 63 34
Width: 733
GlyphClass: 2
Flags: W
LayerCount: 2
Fore
SplineSet
250 481 m 1,0,1
 248 484 248 484 243.5 489.5 c 128,-1,2
 239 495 239 495 235.5 500 c 128,-1,3
 232 505 232 505 229 511 c 0,4,5
 221 525 221 525 223.5 536 c 128,-1,6
 226 547 226 547 230 553 c 1,7,8
 267 657 267 657 300.5 699 c 128,-1,9
 334 741 334 741 414 792 c 0,10,11
 498 845 498 845 540.5 923 c 128,-1,12
 583 1001 583 1001 583 1087 c 0,13,14
 582 1201 582 1201 515 1276.5 c 128,-1,15
 448 1352 448 1352 343 1352 c 0,16,17
 237 1352 237 1352 131 1285 c 0,18,19
 117 1277 117 1277 106 1290 c 1,20,21
 94 1290 94 1290 84 1307.5 c 128,-1,22
 74 1325 74 1325 74 1339 c 0,23,24
 74 1368 74 1368 103 1381 c 1,25,26
 228 1451 228 1451 345 1451 c 0,27,28
 500 1451 500 1451 589 1353.5 c 128,-1,29
 678 1256 678 1256 680 1090 c 1,30,31
 680 970 680 970 607.5 863 c 128,-1,32
 535 756 535 756 413 692 c 0,33,34
 397 683 397 683 384 673.5 c 128,-1,35
 371 664 371 664 359.5 649.5 c 128,-1,36
 348 635 348 635 341.5 626 c 128,-1,37
 335 617 335 617 325.5 596 c 128,-1,38
 316 575 316 575 312.5 566.5 c 128,-1,39
 309 558 309 558 298.5 530 c 128,-1,40
 288 502 288 502 284 493 c 0,41,42
 271 466 271 466 250 481 c 1,0,1
231 0 m 2,43,44
 198 0 198 0 198 54 c 2,45,-1
 198 109 l 2,46,47
 198 163 198 163 231 163 c 2,48,-1
 285 163 l 2,49,50
 318 163 318 163 318 109 c 2,51,-1
 318 54 l 2,52,53
 318 0 318 0 285 0 c 2,54,-1
 231 0 l 2,43,44
EndSplineSet
EndChar

StartChar: at
Encoding: 64 64 35
Width: 1258
GlyphClass: 2
Flags: W
LayerCount: 2
Fore
SplineSet
648 -121 m 0,0,1
 519 -121 519 -121 418.5 -78 c 128,-1,2
 318 -35 318 -35 253.5 37.5 c 128,-1,3
 189 110 189 110 147 214.5 c 128,-1,4
 105 319 105 319 88 433 c 128,-1,5
 71 547 71 547 71 682 c 0,6,7
 71 789 71 789 82.5 884.5 c 128,-1,8
 94 980 94 980 118.5 1072 c 128,-1,9
 143 1164 143 1164 186.5 1237.5 c 128,-1,10
 230 1311 230 1311 290 1367 c 128,-1,11
 350 1423 350 1423 436 1453.5 c 128,-1,12
 522 1484 522 1484 627 1484 c 0,13,14
 727 1484 727 1484 807 1462 c 128,-1,15
 887 1440 887 1440 944 1402 c 128,-1,16
 1001 1364 1001 1364 1042.5 1305 c 128,-1,17
 1084 1246 1084 1246 1109.5 1182 c 128,-1,18
 1135 1118 1135 1118 1150 1033.5 c 128,-1,19
 1165 949 1165 949 1170.5 870 c 128,-1,20
 1176 791 1176 791 1176 692 c 0,21,22
 1176 238 1176 238 993 238 c 0,23,24
 923 238 923 238 895 288 c 128,-1,25
 867 338 867 338 859 444 c 1,26,27
 855 481 855 481 849 481 c 0,28,29
 846 481 846 481 838 449 c 1,30,31
 776 230 776 230 598 230 c 0,32,33
 481 230 481 230 407 336.5 c 128,-1,34
 333 443 333 443 333 660 c 0,35,36
 333 874 333 874 408.5 980.5 c 128,-1,37
 484 1087 484 1087 601 1087 c 0,38,39
 684 1087 684 1087 744.5 1028.5 c 128,-1,40
 805 970 805 970 828 864 c 0,41,42
 829 858 829 858 832 851 c 128,-1,43
 835 844 835 844 837 844 c 0,44,45
 840 844 840 844 842 857 c 2,46,47
 854 994 l 1,48,49
 858 1020 858 1020 864.5 1030.5 c 128,-1,50
 871 1041 871 1041 885 1041 c 2,51,-1
 891 1041 l 2,52,53
 913 1041 913 1041 913 991 c 2,54,-1
 913 504 l 2,55,56
 913 423 913 423 923.5 379 c 128,-1,57
 934 335 934 335 950 322.5 c 128,-1,58
 966 310 966 310 994 310 c 0,59,60
 1015 310 1015 310 1030.5 327 c 128,-1,61
 1046 344 1046 344 1058.5 385.5 c 128,-1,62
 1071 427 1071 427 1077.5 503.5 c 128,-1,63
 1084 580 1084 580 1084 692 c 0,64,65
 1084 783 1084 783 1079 857 c 128,-1,66
 1074 931 1074 931 1061 1006 c 128,-1,67
 1048 1081 1048 1081 1026.5 1137.5 c 128,-1,68
 1005 1194 1005 1194 970 1244.5 c 128,-1,69
 935 1295 935 1295 888.5 1327.5 c 128,-1,70
 842 1360 842 1360 776.5 1378.5 c 128,-1,71
 711 1397 711 1397 630 1397 c 0,72,73
 554 1397 554 1397 490 1375.5 c 128,-1,74
 426 1354 426 1354 378.5 1316 c 128,-1,75
 331 1278 331 1278 294 1224 c 128,-1,76
 257 1170 257 1170 233 1108.5 c 128,-1,77
 209 1047 209 1047 193.5 974 c 128,-1,78
 178 901 178 901 171.5 828.5 c 128,-1,79
 165 756 165 756 165 678 c 0,80,81
 165 -43 165 -43 656 -43 c 0,82,83
 703 -43 703 -43 794 -9 c 128,-1,84
 885 25 885 25 915 25 c 0,85,86
 920 25 920 25 930 -1 c 128,-1,87
 940 -27 940 -27 940 -39 c 0,88,89
 940 -42 940 -42 938 -44 c 0,90,91
 882 -75 882 -75 803 -98 c 128,-1,92
 724 -121 724 -121 648 -121 c 0,0,1
611 309 m 0,93,94
 696 309 696 309 751 399 c 128,-1,95
 806 489 806 489 806 652 c 0,96,97
 806 817 806 817 752.5 909 c 128,-1,98
 699 1001 699 1001 614 1001 c 0,99,100
 527 1001 527 1001 477 917.5 c 128,-1,101
 427 834 427 834 427 657 c 0,102,103
 427 309 427 309 611 309 c 0,93,94
EndSplineSet
EndChar

StartChar: A
Encoding: 65 65 36
Width: 764
GlyphClass: 2
Flags: W
LayerCount: 2
Fore
SplineSet
72 0 m 2,0,1
 57 0 57 0 57 31 c 2,2,-1
 57 42 l 2,3,4
 57 50 57 50 58 56 c 2,5,-1
 306 1383 l 2,6,7
 316 1435 316 1435 342 1438 c 1,8,-1
 437 1438 l 1,9,10
 463 1435 463 1435 472 1383 c 2,11,-1
 706 56 l 2,12,13
 707 51 707 51 709.5 43.5 c 128,-1,14
 712 36 712 36 712 30 c 0,15,16
 712 0 712 0 697 0 c 2,17,-1
 626 0 l 2,18,19
 594 0 594 0 586 49 c 2,20,-1
 541 337 l 1,21,22
 538 347 538 347 535 347 c 2,23,-1
 222 347 l 2,24,25
 220 347 220 347 217 336 c 2,26,-1
 165 50 l 2,27,28
 159 21 159 21 151.5 10.5 c 128,-1,29
 144 0 144 0 130 0 c 2,30,-1
 72 0 l 2,0,1
251 427 m 2,31,32
 520 427 l 2,33,34
 524 427 524 427 524 436 c 0,35,36
 524 441 524 441 522 442 c 1,37,-1
 389 1296 l 1,38,-1
 387 1300 l 1,39,40
 385 1300 385 1300 385 1296 c 2,41,-1
 242 447 l 2,42,43
 241 442 241 442 241 438 c 0,44,45
 241 427 241 427 251 427 c 2,31,32
EndSplineSet
EndChar

StartChar: B
Encoding: 66 66 37
Width: 862
GlyphClass: 2
Flags: W
LayerCount: 2
Fore
SplineSet
135 0 m 2,0,1
 120 0 120 0 114 6.5 c 128,-1,2
 108 13 108 13 108 39 c 2,3,-1
 108 1397 l 2,4,5
 108 1416 108 1416 112 1425.5 c 128,-1,6
 116 1435 116 1435 120.5 1436.5 c 128,-1,7
 125 1438 125 1438 135 1438 c 2,8,-1
 451 1438 l 2,9,10
 524 1438 524 1438 579 1417.5 c 128,-1,11
 634 1397 634 1397 676 1352.5 c 128,-1,12
 718 1308 718 1308 740 1230 c 128,-1,13
 762 1152 762 1152 762 1042 c 0,14,15
 762 848 762 848 648 775 c 0,16,17
 640 770 640 770 640 766 c 128,-1,18
 640 762 640 762 649 758 c 1,19,20
 800 664 800 664 800 424 c 0,21,22
 800 303 800 303 776.5 220 c 128,-1,23
 753 137 753 137 704.5 89 c 128,-1,24
 656 41 656 41 590.5 20.5 c 128,-1,25
 525 0 525 0 431 0 c 2,26,-1
 135 0 l 2,0,1
234 88 m 2,27,28
 430 88 l 2,29,30
 567 88 567 88 627.5 171.5 c 128,-1,31
 688 255 688 255 688 420 c 0,32,33
 688 558 688 558 628.5 639.5 c 128,-1,34
 569 721 569 721 481 721 c 2,35,36
 234 721 l 2,37,38
 220 721 220 721 220 700 c 2,39,-1
 220 104 l 2,40,41
 220 96 220 96 222 92.5 c 128,-1,42
 224 89 224 89 226.5 88.5 c 128,-1,43
 229 88 229 88 234 88 c 2,27,28
234 807 m 2,44,-1
 488 807 l 2,45,46
 562 807 562 807 607 868 c 128,-1,47
 652 929 652 929 652 1043 c 0,48,49
 652 1200 652 1200 599.5 1274 c 128,-1,50
 547 1348 547 1348 438 1348 c 2,51,52
 234 1348 l 2,53,54
 226 1348 226 1348 223 1345 c 128,-1,55
 220 1342 220 1342 220 1328 c 2,56,-1
 220 823 l 2,57,58
 220 815 220 815 222 811.5 c 128,-1,59
 224 808 224 808 226.5 807.5 c 128,-1,60
 229 807 229 807 234 807 c 2,44,-1
EndSplineSet
EndChar

StartChar: C
Encoding: 67 67 38
Width: 677
GlyphClass: 2
Flags: W
LayerCount: 2
Fore
SplineSet
451 -14 m 0,0,1
 407 -14 407 -14 375.5 -10 c 128,-1,2
 344 -6 344 -6 304 11 c 128,-1,3
 264 28 264 28 235.5 57.5 c 128,-1,4
 207 87 207 87 177.5 141.5 c 128,-1,5
 148 196 148 196 130 272.5 c 128,-1,6
 112 349 112 349 100.5 463 c 128,-1,7
 89 577 89 577 89 721 c 0,8,9
 89 859 89 859 100.5 969.5 c 128,-1,10
 112 1080 112 1080 130.5 1155.5 c 128,-1,11
 149 1231 149 1231 178 1286.5 c 128,-1,12
 207 1342 207 1342 237 1373 c 128,-1,13
 267 1404 267 1404 307 1422.5 c 128,-1,14
 347 1441 347 1441 382 1446.5 c 128,-1,15
 417 1452 417 1452 461 1452 c 0,16,17
 548 1452 548 1452 602 1427 c 0,18,19
 614 1421 614 1421 614 1411 c 2,20,-1
 614 1345 l 2,21,22
 614 1335 614 1335 607 1335 c 1,23,-1
 600 1338 l 1,24,25
 592 1340 592 1340 580 1343 c 128,-1,26
 568 1346 568 1346 552.5 1349.5 c 128,-1,27
 537 1353 537 1353 517 1355.5 c 128,-1,28
 497 1358 497 1358 478 1358 c 0,29,30
 430 1358 430 1358 394.5 1347 c 128,-1,31
 359 1336 359 1336 321 1297.5 c 128,-1,32
 283 1259 283 1259 259 1191.5 c 128,-1,33
 235 1124 235 1124 219.5 1005 c 128,-1,34
 204 886 204 886 204 721 c 0,35,36
 204 553 204 553 217 434 c 128,-1,37
 230 315 230 315 251 247 c 128,-1,38
 272 179 272 179 307.5 140.5 c 128,-1,39
 343 102 343 102 377 91 c 128,-1,40
 411 80 411 80 460 80 c 0,41,42
 528 80 528 80 588 100 c 0,43,44
 591 101 591 101 593.5 96.5 c 128,-1,45
 596 92 596 92 596 88 c 2,46,-1
 596 19 l 2,47,48
 596 9 596 9 588 7 c 0,49,50
 531 -14 531 -14 451 -14 c 0,0,1
EndSplineSet
EndChar

StartChar: D
Encoding: 68 68 39
Width: 899
GlyphClass: 2
Flags: W
LayerCount: 2
Fore
SplineSet
232 90 m 2,0,1
 423 90 l 2,2,3
 490 90 490 90 535.5 109.5 c 128,-1,4
 581 129 581 129 613.5 171.5 c 128,-1,5
 646 214 646 214 664 290.5 c 128,-1,6
 682 367 682 367 689.5 469 c 128,-1,7
 697 571 697 571 697 723 c 0,8,9
 697 1057 697 1057 635.5 1202.5 c 128,-1,10
 574 1348 574 1348 426 1348 c 2,11,-1
 231 1348 l 2,12,13
 220 1348 220 1348 220 1331 c 2,14,-1
 220 110 l 2,15,16
 220 90 220 90 232 90 c 2,0,1
131 0 m 2,17,18
 118 0 118 0 113 7.5 c 128,-1,19
 108 15 108 15 108 39 c 2,20,-1
 108 1407 l 2,21,22
 108 1426 108 1426 113.5 1432 c 128,-1,23
 119 1438 119 1438 131 1438 c 2,24,-1
 434 1438 l 2,25,26
 508 1438 508 1438 564.5 1418 c 128,-1,27
 621 1398 621 1398 669 1348.5 c 128,-1,28
 717 1299 717 1299 747.5 1218.5 c 128,-1,29
 778 1138 778 1138 795 1014 c 128,-1,30
 812 890 812 890 812 723 c 0,31,32
 812 541 812 541 797.5 414.5 c 128,-1,33
 783 288 783 288 755.5 206.5 c 128,-1,34
 728 125 728 125 679 79.5 c 128,-1,35
 630 34 630 34 571.5 17 c 128,-1,36
 513 0 513 0 426 0 c 2,37,-1
 131 0 l 2,17,18
EndSplineSet
EndChar

StartChar: E
Encoding: 69 69 40
Width: 688
GlyphClass: 2
Flags: W
LayerCount: 2
Fore
SplineSet
131 0 m 2,0,1
 122 0 122 0 118 1.5 c 128,-1,2
 114 3 114 3 111 11 c 128,-1,3
 108 19 108 19 108 35 c 2,4,-1
 108 1403 l 2,5,6
 108 1424 108 1424 113.5 1431 c 128,-1,7
 119 1438 119 1438 131 1438 c 2,8,-1
 597 1438 l 2,9,10
 610 1438 610 1438 615 1433 c 128,-1,11
 620 1428 620 1428 620 1407 c 2,12,-1
 620 1379 l 2,13,14
 620 1364 620 1364 616.5 1357 c 128,-1,15
 613 1350 613 1350 609.5 1349 c 128,-1,16
 606 1348 606 1348 597 1348 c 2,17,-1
 230 1348 l 2,18,19
 220 1348 220 1348 220 1320 c 2,20,-1
 220 801 l 2,21,22
 220 798 220 798 222.5 792.5 c 128,-1,23
 225 787 225 787 226 787 c 2,24,-1
 545 787 l 2,25,26
 558 787 558 787 563 781.5 c 128,-1,27
 568 776 568 776 568 756 c 2,28,-1
 568 727 l 2,29,30
 568 706 568 706 563 700 c 128,-1,31
 558 694 558 694 545 694 c 2,32,-1
 227 694 l 2,33,34
 226 694 226 694 223 685 c 128,-1,35
 220 676 220 676 220 673 c 2,36,-1
 220 90 l 1,37,-1
 599 90 l 2,38,39
 608 90 608 90 611.5 89 c 128,-1,40
 615 88 615 88 618.5 81 c 128,-1,41
 622 74 622 74 622 59 c 2,42,-1
 622 31 l 2,43,44
 622 10 622 10 617 5 c 128,-1,45
 612 0 612 0 599 0 c 2,46,-1
 131 0 l 2,0,1
EndSplineSet
EndChar

StartChar: F
Encoding: 70 70 41
Width: 633
GlyphClass: 2
Flags: W
LayerCount: 2
Fore
SplineSet
131 0 m 2,0,1
 122 0 122 0 118 1.5 c 128,-1,2
 114 3 114 3 111 11 c 128,-1,3
 108 19 108 19 108 35 c 2,4,-1
 108 1403 l 2,5,6
 108 1424 108 1424 113.5 1431 c 128,-1,7
 119 1438 119 1438 131 1438 c 2,8,-1
 575 1438 l 2,9,10
 588 1438 588 1438 593 1433 c 128,-1,11
 598 1428 598 1428 598 1407 c 2,12,-1
 598 1379 l 2,13,14
 598 1364 598 1364 594.5 1357 c 128,-1,15
 591 1350 591 1350 587.5 1349 c 128,-1,16
 584 1348 584 1348 575 1348 c 2,17,-1
 230 1348 l 2,18,19
 220 1348 220 1348 220 1322 c 2,20,-1
 220 792 l 2,21,22
 220 789 220 789 222.5 784.5 c 128,-1,23
 225 780 225 780 226 780 c 2,24,-1
 526 780 l 2,25,26
 539 780 539 780 544 775 c 128,-1,27
 549 770 549 770 549 751 c 2,28,-1
 549 718 l 2,29,30
 549 697 549 697 544 692 c 128,-1,31
 539 687 539 687 526 687 c 2,32,-1
 227 687 l 2,33,34
 226 687 226 687 223 679 c 128,-1,35
 220 671 220 671 220 668 c 2,36,-1
 220 35 l 2,37,38
 220 19 220 19 217 11 c 128,-1,39
 214 3 214 3 210 1.5 c 128,-1,40
 206 0 206 0 197 0 c 2,41,-1
 131 0 l 2,0,1
EndSplineSet
EndChar

StartChar: G
Encoding: 71 71 42
Width: 856
GlyphClass: 2
Flags: W
LayerCount: 2
Fore
SplineSet
749 -15 m 0,0,1
 721 -15 721 -15 714 39 c 1,2,3
 700 207 700 207 700 226 c 0,4,5
 700 234 700 234 697 234 c 0,6,7
 693 234 693 234 692 227 c 0,8,9
 672 114 672 114 612.5 50 c 128,-1,10
 553 -14 553 -14 465 -14 c 0,11,12
 422 -14 422 -14 387.5 -8 c 128,-1,13
 353 -2 353 -2 313 17 c 128,-1,14
 273 36 273 36 242.5 68 c 128,-1,15
 212 100 212 100 182.5 156 c 128,-1,16
 153 212 153 212 133.5 287.5 c 128,-1,17
 114 363 114 363 102.5 473.5 c 128,-1,18
 91 584 91 584 91 721 c 0,19,20
 91 833 91 833 99 927 c 128,-1,21
 107 1021 107 1021 121 1090.5 c 128,-1,22
 135 1160 135 1160 157 1215.5 c 128,-1,23
 179 1271 179 1271 202 1308.5 c 128,-1,24
 225 1346 225 1346 256.5 1373 c 128,-1,25
 288 1400 288 1400 316.5 1415 c 128,-1,26
 345 1430 345 1430 382.5 1438.5 c 128,-1,27
 420 1447 420 1447 449.5 1449.5 c 128,-1,28
 479 1452 479 1452 518 1452 c 0,29,30
 602 1452 602 1452 678 1425 c 1,31,-1
 682 1423 l 2,32,33
 685 1421 685 1421 686.5 1419.5 c 128,-1,34
 688 1418 688 1418 689.5 1415 c 128,-1,35
 691 1412 691 1412 691 1408 c 2,36,-1
 691 1342 l 2,37,38
 691 1332 691 1332 683 1332 c 1,39,-1
 674 1334 l 2,40,41
 665 1337 665 1337 649.5 1341 c 128,-1,42
 634 1345 634 1345 615.5 1349 c 128,-1,43
 597 1353 597 1353 573.5 1355.5 c 128,-1,44
 550 1358 550 1358 529 1358 c 0,45,46
 489 1358 489 1358 460 1354 c 128,-1,47
 431 1350 431 1350 395 1335 c 128,-1,48
 359 1320 359 1320 333.5 1294 c 128,-1,49
 308 1268 308 1268 282 1220 c 128,-1,50
 256 1172 256 1172 240.5 1106 c 128,-1,51
 225 1040 225 1040 215 942.5 c 128,-1,52
 205 845 205 845 205 721 c 0,53,54
 205 603 205 603 213 508 c 128,-1,55
 221 413 221 413 234.5 347 c 128,-1,56
 248 281 248 281 268.5 232 c 128,-1,57
 289 183 289 183 311 154.5 c 128,-1,58
 333 126 333 126 361.5 108.5 c 128,-1,59
 390 91 390 91 416 85.5 c 128,-1,60
 442 80 442 80 473 80 c 0,61,62
 531 80 531 80 571 116.5 c 128,-1,63
 611 153 611 153 631.5 222 c 128,-1,64
 652 291 652 291 660 371 c 128,-1,65
 668 451 668 451 668 557 c 0,66,67
 668 626 668 626 660 626 c 2,68,-1
 485 626 l 2,69,70
 475 626 475 626 469.5 627.5 c 128,-1,71
 464 629 464 629 459 637 c 128,-1,72
 454 645 454 645 454 661 c 2,73,-1
 454 694 l 2,74,75
 454 710 454 710 458.5 718.5 c 128,-1,76
 463 727 463 727 468.5 728.5 c 128,-1,77
 474 730 474 730 483 730 c 2,78,-1
 749 730 l 2,79,80
 759 730 759 730 763 728.5 c 128,-1,81
 767 727 767 727 771 717 c 128,-1,82
 775 707 775 707 775 687 c 2,83,-1
 775 40 l 2,84,85
 775 -15 775 -15 749 -15 c 0,0,1
EndSplineSet
EndChar

StartChar: H
Encoding: 72 72 43
Width: 881
GlyphClass: 2
Flags: W
LayerCount: 2
Fore
SplineSet
132 0 m 2,0,1
 119 0 119 0 113.5 8.5 c 128,-1,2
 108 17 108 17 108 47 c 2,3,-1
 108 1391 l 2,4,5
 108 1421 108 1421 113.5 1429.5 c 128,-1,6
 119 1438 119 1438 132 1438 c 2,7,-1
 194 1438 l 2,8,9
 208 1438 208 1438 214 1429.5 c 128,-1,10
 220 1421 220 1421 220 1391 c 2,11,-1
 220 804 l 2,12,13
 220 801 220 801 222.5 794 c 128,-1,14
 225 787 225 787 226 787 c 2,15,-1
 653 787 l 2,16,17
 654 787 654 787 658 795.5 c 128,-1,18
 662 804 662 804 662 807 c 2,19,-1
 662 1391 l 2,20,21
 662 1421 662 1421 668 1429.5 c 128,-1,22
 674 1438 674 1438 689 1438 c 2,23,-1
 751 1438 l 2,24,25
 763 1438 763 1438 768.5 1429.5 c 128,-1,26
 774 1421 774 1421 774 1391 c 2,27,-1
 774 47 l 2,28,29
 774 17 774 17 768.5 8.5 c 128,-1,30
 763 0 763 0 751 0 c 2,31,-1
 689 0 l 2,32,33
 674 0 674 0 668 8.5 c 128,-1,34
 662 17 662 17 662 47 c 2,35,-1
 662 672 l 2,36,37
 662 675 662 675 658.5 683 c 128,-1,38
 655 691 655 691 654 691 c 2,39,-1
 227 691 l 2,40,41
 226 691 226 691 223.5 684 c 128,-1,42
 221 677 221 677 221 674 c 2,43,-1
 221 47 l 2,44,45
 221 17 221 17 215 8.5 c 128,-1,46
 209 0 209 0 195 0 c 2,47,-1
 132 0 l 2,0,1
EndSplineSet
EndChar

StartChar: I
Encoding: 73 73 44
Width: 332
GlyphClass: 2
Flags: W
LayerCount: 2
Fore
SplineSet
135 0 m 2,0,1
 122 0 122 0 117 8.5 c 128,-1,2
 112 17 112 17 112 47 c 2,3,-1
 112 1391 l 2,4,5
 112 1421 112 1421 117 1429.5 c 128,-1,6
 122 1438 122 1438 135 1438 c 2,7,-1
 201 1438 l 2,8,9
 214 1438 214 1438 219 1429.5 c 128,-1,10
 224 1421 224 1421 224 1391 c 2,11,-1
 224 47 l 2,12,13
 224 17 224 17 219 8.5 c 128,-1,14
 214 0 214 0 201 0 c 2,15,-1
 135 0 l 2,0,1
EndSplineSet
EndChar

StartChar: J
Encoding: 74 74 45
Width: 471
GlyphClass: 2
Flags: W
LayerCount: 2
Fore
SplineSet
31 -145 m 0,0,1
 20 -145 20 -145 20 -120 c 2,2,-1
 20 -67 l 2,3,4
 20 -40 20 -40 31 -40 c 0,5,6
 60 -40 60 -40 76 -39 c 128,-1,7
 92 -38 92 -38 114 -34.5 c 128,-1,8
 136 -31 136 -31 147.5 -25 c 128,-1,9
 159 -19 159 -19 174.5 -8 c 128,-1,10
 190 3 190 3 197.5 19.5 c 128,-1,11
 205 36 205 36 215 60 c 128,-1,12
 225 84 225 84 229 115.5 c 128,-1,13
 233 147 233 147 237.5 189 c 128,-1,14
 242 231 242 231 243.5 283 c 128,-1,15
 245 335 245 335 245 400 c 2,16,-1
 245 1387 l 2,17,18
 245 1438 245 1438 266 1438 c 2,19,-1
 336 1438 l 2,20,21
 357 1438 357 1438 357 1387 c 2,22,-1
 357 384 l 2,23,24
 357 274 357 274 349 191 c 128,-1,25
 341 108 341 108 329.5 51.5 c 128,-1,26
 318 -5 318 -5 293 -43 c 128,-1,27
 268 -81 268 -81 247 -101 c 128,-1,28
 226 -121 226 -121 185 -131 c 128,-1,29
 144 -141 144 -141 115 -143 c 128,-1,30
 86 -145 86 -145 31 -145 c 0,0,1
EndSplineSet
EndChar

StartChar: K
Encoding: 75 75 46
Width: 708
GlyphClass: 2
Flags: W
LayerCount: 2
Fore
SplineSet
131 0 m 2,0,1
 108 0 108 0 108 63 c 2,2,-1
 108 1375 l 2,3,4
 108 1438 108 1438 131 1438 c 2,5,-1
 194 1438 l 2,6,7
 220 1438 220 1438 220 1375 c 2,8,-1
 220 743 l 1,9,-1
 532 1379 l 2,10,11
 542 1401 542 1401 546.5 1410.5 c 128,-1,12
 551 1420 551 1420 559 1429 c 128,-1,13
 567 1438 567 1438 575 1438 c 2,14,-1
 656 1438 l 2,15,16
 669 1438 669 1438 669 1421 c 128,-1,17
 669 1404 669 1404 657 1380 c 2,18,-1
 343 755 l 1,19,20
 339 739 339 739 339 736 c 0,21,22
 339 726 339 726 343 719 c 2,23,-1
 676 67 l 1,24,25
 693 36 693 36 693 17 c 0,26,27
 693 0 693 0 681 0 c 2,28,-1
 615 0 l 2,29,30
 603 0 603 0 592.5 11.5 c 128,-1,31
 582 23 582 23 564 57 c 2,32,-1
 221 708 l 1,33,-1
 221 58 l 2,34,35
 221 0 221 0 194 0 c 2,36,-1
 131 0 l 2,0,1
EndSplineSet
EndChar

StartChar: L
Encoding: 76 76 47
Width: 574
GlyphClass: 2
Flags: W
LayerCount: 2
Fore
SplineSet
131 0 m 2,0,1
 118 0 118 0 113 8.5 c 128,-1,2
 108 17 108 17 108 47 c 2,3,-1
 108 1391 l 2,4,5
 108 1421 108 1421 113 1429.5 c 128,-1,6
 118 1438 118 1438 131 1438 c 2,7,-1
 197 1438 l 2,8,9
 210 1438 210 1438 215 1429.5 c 128,-1,10
 220 1421 220 1421 220 1391 c 2,11,-1
 220 110 l 2,12,13
 220 101 220 101 222 96 c 128,-1,14
 224 91 224 91 226.5 90.5 c 128,-1,15
 229 90 229 90 234 90 c 2,16,-1
 500 90 l 2,17,18
 513 90 513 90 518.5 85.5 c 128,-1,19
 524 81 524 81 524 61 c 2,20,-1
 524 31 l 2,21,22
 524 17 524 17 520.5 10 c 128,-1,23
 517 3 517 3 513 1.5 c 128,-1,24
 509 0 509 0 500 0 c 2,25,-1
 131 0 l 2,0,1
EndSplineSet
EndChar

StartChar: M
Encoding: 77 77 48
Width: 1027
GlyphClass: 2
Flags: W
LayerCount: 2
Fore
SplineSet
124 0 m 2,0,1
 101 0 101 0 101 57 c 2,2,-1
 101 63 l 1,3,-1
 143 1374 l 2,4,5
 144 1435 144 1435 166 1438 c 1,6,-1
 246 1438 l 1,7,8
 276 1434 276 1434 288 1384 c 1,9,-1
 506 253 l 2,10,11
 507 251 507 251 511 251 c 128,-1,12
 515 251 515 251 515 253 c 2,13,-1
 732 1376 l 1,14,15
 745 1435 745 1435 770 1438 c 1,16,-1
 861 1438 l 1,17,18
 882 1435 882 1435 883 1374 c 1,19,-1
 926 63 l 1,20,-1
 926 56 l 2,21,22
 926 0 926 0 904 0 c 2,23,-1
 853 0 l 2,24,25
 829 0 829 0 828 63 c 2,26,-1
 795 1225 l 2,27,28
 795 1226 795 1226 793 1227 c 0,29,30
 790 1229 790 1229 790 1227 c 2,31,-1
 567 61 l 2,32,33
 555 1 555 1 530 1 c 0,34,35
 529 1 529 1 490 0 c 0,36,37
 468 0 468 0 454 61 c 1,38,-1
 235 1217 l 1,39,-1
 232 1212 l 1,40,-1
 197 63 l 2,41,42
 196 0 196 0 176 0 c 2,43,-1
 124 0 l 2,0,1
EndSplineSet
EndChar

StartChar: N
Encoding: 78 78 49
Width: 889
GlyphClass: 2
Flags: W
LayerCount: 2
Fore
SplineSet
132 0 m 2,0,1
 108 0 108 0 108 55 c 2,2,-1
 108 1389 l 2,3,4
 108 1419 108 1419 113.5 1428.5 c 128,-1,5
 119 1438 119 1438 132 1438 c 2,6,-1
 191 1438 l 2,7,8
 204 1438 204 1438 215 1413 c 2,9,-1
 672 295 l 1,10,-1
 677 308 l 1,11,-1
 677 1389 l 2,12,13
 677 1419 677 1419 683.5 1428.5 c 128,-1,14
 690 1438 690 1438 704 1438 c 2,15,-1
 758 1438 l 2,16,17
 771 1438 771 1438 776.5 1428.5 c 128,-1,18
 782 1419 782 1419 782 1389 c 2,19,-1
 782 47 l 2,20,21
 782 17 782 17 776.5 8.5 c 128,-1,22
 771 0 771 0 758 0 c 2,23,-1
 712 0 l 2,24,25
 705 0 705 0 694 14.5 c 128,-1,26
 683 29 683 29 677 43 c 2,27,-1
 217 1145 l 1,28,-1
 212 1136 l 1,29,-1
 212 55 l 2,30,31
 212 0 212 0 186 0 c 2,32,-1
 132 0 l 2,0,1
EndSplineSet
EndChar

StartChar: O
Encoding: 79 79 50
Width: 870
GlyphClass: 2
Flags: W
LayerCount: 2
Fore
SplineSet
434 79 m 0,0,1
 525 79 525 79 572 127.5 c 128,-1,2
 619 176 619 176 642.5 315.5 c 128,-1,3
 666 455 666 455 666 725 c 0,4,5
 666 974 666 974 644 1109 c 128,-1,6
 622 1244 622 1244 573 1301 c 128,-1,7
 524 1358 524 1358 434 1358 c 0,8,9
 346 1358 346 1358 297 1297.5 c 128,-1,10
 248 1237 248 1237 226 1101.5 c 128,-1,11
 204 966 204 966 204 725 c 0,12,13
 204 460 204 460 227.5 320.5 c 128,-1,14
 251 181 251 181 298.5 130 c 128,-1,15
 346 79 346 79 434 79 c 0,0,1
434 -14 m 0,16,17
 355 -14 355 -14 301 6 c 128,-1,18
 247 26 247 26 204.5 74 c 128,-1,19
 162 122 162 122 137.5 207.5 c 128,-1,20
 113 293 113 293 101 418.5 c 128,-1,21
 89 544 89 544 89 725 c 0,22,23
 89 1005 89 1005 124 1162.5 c 128,-1,24
 159 1320 159 1320 232.5 1386 c 128,-1,25
 306 1452 306 1452 434 1452 c 0,26,27
 565 1452 565 1452 638 1388 c 128,-1,28
 711 1324 711 1324 746 1166.5 c 128,-1,29
 781 1009 781 1009 781 725 c 0,30,31
 781 542 781 542 769 415.5 c 128,-1,32
 757 289 757 289 733 204 c 128,-1,33
 709 119 709 119 666 71.5 c 128,-1,34
 623 24 623 24 568.5 5 c 128,-1,35
 514 -14 514 -14 434 -14 c 0,16,17
EndSplineSet
EndChar

StartChar: P
Encoding: 80 80 51
Width: 796
GlyphClass: 2
Flags: W
LayerCount: 2
Fore
SplineSet
131 0 m 2,0,1
 119 0 119 0 113.5 9 c 128,-1,2
 108 18 108 18 108 45 c 2,3,-1
 108 1392 l 2,4,5
 108 1422 108 1422 113 1430 c 128,-1,6
 118 1438 118 1438 131 1438 c 2,7,-1
 364 1438 l 2,8,9
 401 1438 401 1438 426.5 1437 c 128,-1,10
 452 1436 452 1436 486 1431 c 128,-1,11
 520 1426 520 1426 543.5 1417.5 c 128,-1,12
 567 1409 567 1409 595.5 1392.5 c 128,-1,13
 624 1376 624 1376 643 1353 c 128,-1,14
 662 1330 662 1330 681 1296 c 128,-1,15
 700 1262 700 1262 711 1218 c 128,-1,16
 722 1174 722 1174 729 1115 c 128,-1,17
 736 1056 736 1056 736 985 c 0,18,19
 736 898 736 898 726 830 c 128,-1,20
 716 762 716 762 700.5 715.5 c 128,-1,21
 685 669 685 669 658.5 636 c 128,-1,22
 632 603 632 603 606 584.5 c 128,-1,23
 580 566 580 566 542 555.5 c 128,-1,24
 504 545 504 545 472 542.5 c 128,-1,25
 440 540 440 540 396 540 c 2,26,-1
 228 540 l 2,27,28
 220 540 220 540 220 526 c 2,29,-1
 220 45 l 2,30,31
 220 19 220 19 214.5 9.5 c 128,-1,32
 209 0 209 0 197 0 c 2,33,-1
 131 0 l 2,0,1
227 631 m 2,34,35
 388 631 l 2,36,37
 441 631 441 631 474 637 c 128,-1,38
 507 643 507 643 538 663 c 128,-1,39
 569 683 569 683 585.5 721.5 c 128,-1,40
 602 760 602 760 612 825 c 128,-1,41
 622 890 622 890 622 985 c 0,42,43
 622 1059 622 1059 615 1115.5 c 128,-1,44
 608 1172 608 1172 597 1210 c 128,-1,45
 586 1248 586 1248 566 1274.5 c 128,-1,46
 546 1301 546 1301 527.5 1315.5 c 128,-1,47
 509 1330 509 1330 477.5 1337.5 c 128,-1,48
 446 1345 446 1345 422.5 1346.5 c 128,-1,49
 399 1348 399 1348 360 1348 c 2,50,-1
 228 1348 l 2,51,52
 220 1348 220 1348 220 1335 c 2,53,-1
 220 643 l 2,54,55
 220 631 220 631 227 631 c 2,34,35
EndSplineSet
EndChar

StartChar: Q
Encoding: 81 81 52
Width: 934
GlyphClass: 2
Flags: W
LayerCount: 2
Fore
SplineSet
590 -318 m 2,0,1
 508 -10 l 1,2,3
 490 -14 490 -14 452 -14 c 0,4,5
 374 -12 374 -12 320.5 5.5 c 128,-1,6
 267 23 267 23 220 70 c 128,-1,7
 173 117 173 117 146 198.5 c 128,-1,8
 119 280 119 280 104 409.5 c 128,-1,9
 89 539 89 539 89 723 c 0,10,11
 89 899 89 899 104.5 1025.5 c 128,-1,12
 120 1152 120 1152 149 1234.5 c 128,-1,13
 178 1317 178 1317 225.5 1365.5 c 128,-1,14
 273 1414 273 1414 330 1433 c 128,-1,15
 387 1452 387 1452 466 1452 c 0,16,17
 546 1452 546 1452 603.5 1433.5 c 128,-1,18
 661 1415 661 1415 709 1367.5 c 128,-1,19
 757 1320 757 1320 785.5 1238 c 128,-1,20
 814 1156 814 1156 829.5 1028.5 c 128,-1,21
 845 901 845 901 845 723 c 0,22,23
 845 473 845 473 818.5 321.5 c 128,-1,24
 792 170 792 170 742 99 c 128,-1,25
 692 28 692 28 607 2 c 1,26,27
 609 -6 609 -6 628 -80 c 128,-1,28
 647 -154 647 -154 665 -224.5 c 128,-1,29
 683 -295 683 -295 683 -298 c 0,30,31
 684 -301 684 -301 685.5 -307.5 c 128,-1,32
 687 -314 687 -314 687.5 -316 c 128,-1,33
 688 -318 688 -318 689 -322.5 c 128,-1,34
 690 -327 690 -327 690 -328.5 c 128,-1,35
 690 -330 690 -330 689.5 -333 c 128,-1,36
 689 -336 689 -336 687.5 -337.5 c 128,-1,37
 686 -339 686 -339 684 -341 c 128,-1,38
 682 -343 682 -343 678.5 -344.5 c 128,-1,39
 675 -346 675 -346 671 -347 c 0,40,41
 632 -359 632 -359 621 -359 c 0,42,43
 600 -359 600 -359 590 -318 c 2,0,1
466 79 m 0,44,45
 513 79 513 79 545.5 87 c 128,-1,46
 578 95 578 95 610 118.5 c 128,-1,47
 642 142 642 142 662.5 186.5 c 128,-1,48
 683 231 683 231 699 301.5 c 128,-1,49
 715 372 715 372 722.5 476.5 c 128,-1,50
 730 581 730 581 730 723 c 0,51,52
 730 917 730 917 714 1043 c 128,-1,53
 698 1169 698 1169 663 1237.5 c 128,-1,54
 628 1306 628 1306 582 1332 c 128,-1,55
 536 1358 536 1358 466 1358 c 0,56,57
 375 1358 375 1358 320 1306 c 128,-1,58
 265 1254 265 1254 234.5 1112.5 c 128,-1,59
 204 971 204 971 204 723 c 0,60,61
 204 557 204 557 215.5 440.5 c 128,-1,62
 227 324 227 324 247 253.5 c 128,-1,63
 267 183 267 183 301.5 144 c 128,-1,64
 336 105 336 105 373.5 92 c 128,-1,65
 411 79 411 79 466 79 c 0,44,45
EndSplineSet
EndChar

StartChar: R
Encoding: 82 82 53
Width: 873
GlyphClass: 2
Flags: W
LayerCount: 2
Fore
SplineSet
131 0 m 2,0,1
 119 0 119 0 113.5 8 c 128,-1,2
 108 16 108 16 108 43 c 2,3,-1
 108 1393 l 2,4,5
 108 1423 108 1423 113 1430.5 c 128,-1,6
 118 1438 118 1438 131 1438 c 2,7,-1
 394 1438 l 2,8,9
 444 1438 444 1438 479.5 1436 c 128,-1,10
 515 1434 515 1434 557.5 1426 c 128,-1,11
 600 1418 600 1418 629 1403.5 c 128,-1,12
 658 1389 658 1389 687.5 1362.5 c 128,-1,13
 717 1336 717 1336 734.5 1299 c 128,-1,14
 752 1262 752 1262 763 1207 c 128,-1,15
 774 1152 774 1152 774 1082 c 0,16,17
 774 941 774 941 730.5 868.5 c 128,-1,18
 687 796 687 796 603 761 c 1,19,20
 597 757 597 757 597 753 c 128,-1,21
 597 749 597 749 602 749 c 1,22,23
 605 748 605 748 611 745 c 0,24,25
 639 732 639 732 656.5 722.5 c 128,-1,26
 674 713 674 713 697.5 691.5 c 128,-1,27
 721 670 721 670 735 643 c 128,-1,28
 749 616 749 616 759.5 570.5 c 128,-1,29
 770 525 770 525 771 465 c 1,30,-1
 771 54 l 2,31,32
 771 0 771 0 748 0 c 2,33,-1
 680 0 l 2,34,35
 659 0 659 0 659 52 c 2,36,-1
 659 171 l 1,37,-1
 659 498 l 2,38,39
 659 561 659 561 639.5 604.5 c 128,-1,40
 620 648 620 648 587.5 668 c 128,-1,41
 555 688 555 688 524.5 696 c 128,-1,42
 494 704 494 704 460 704 c 2,43,-1
 229 704 l 2,44,45
 220 704 220 704 220 688 c 2,46,-1
 220 43 l 2,47,48
 220 17 220 17 215 8.5 c 128,-1,49
 210 0 210 0 197 0 c 2,50,-1
 131 0 l 2,0,1
228 793 m 2,51,52
 405 793 l 2,53,54
 540 793 540 793 599.5 854 c 128,-1,55
 659 915 659 915 659 1079 c 0,56,57
 659 1149 659 1149 645.5 1198 c 128,-1,58
 632 1247 632 1247 610.5 1276 c 128,-1,59
 589 1305 589 1305 551 1321.5 c 128,-1,60
 513 1338 513 1338 473.5 1343 c 128,-1,61
 434 1348 434 1348 377 1348 c 2,62,-1
 228 1348 l 2,63,64
 220 1348 220 1348 220 1335 c 2,65,-1
 220 808 l 2,66,67
 220 793 220 793 228 793 c 2,51,52
EndSplineSet
EndChar

StartChar: S
Encoding: 83 83 54
Width: 742
GlyphClass: 2
Flags: W
LayerCount: 2
Fore
SplineSet
389 1452 m 0,0,1
 557 1452 557 1452 656 1328 c 0,2,3
 664 1317 664 1317 664 1304 c 0,4,5
 664 1283 664 1283 646 1263.5 c 128,-1,6
 628 1244 628 1244 613 1244 c 0,7,8
 606 1244 606 1244 603 1248 c 0,9,10
 517 1356 517 1356 391 1356 c 0,11,12
 299 1356 299 1356 248.5 1284.5 c 128,-1,13
 198 1213 198 1213 198 1101 c 0,14,15
 198 1032 198 1032 222.5 978 c 128,-1,16
 247 924 247 924 275 897 c 128,-1,17
 303 870 303 870 347 840 c 2,18,-1
 482 750 l 2,19,20
 526 721 526 721 558 691.5 c 128,-1,21
 590 662 590 662 620.5 618 c 128,-1,22
 651 574 651 574 666.5 513.5 c 128,-1,23
 682 453 682 453 682 377 c 0,24,25
 682 207 682 207 596.5 96.5 c 128,-1,26
 511 -14 511 -14 368 -14 c 0,27,28
 163 -14 163 -14 50 169 c 0,29,30
 46 176 46 176 46 185 c 0,31,32
 46 206 46 206 64 226 c 128,-1,33
 82 246 82 246 100 246 c 0,34,35
 111 246 111 246 116 238 c 0,36,37
 170 156 170 156 229 120 c 128,-1,38
 288 84 288 84 365 84 c 0,39,40
 461 84 461 84 518 161 c 128,-1,41
 575 238 575 238 575 363 c 0,42,43
 575 421 575 421 564.5 464.5 c 128,-1,44
 554 508 554 508 531 541 c 128,-1,45
 508 574 508 574 483.5 596 c 128,-1,46
 459 618 459 618 421 644 c 2,47,-1
 284 737 l 2,48,49
 245 764 245 764 217 789 c 128,-1,50
 189 814 189 814 157.5 855.5 c 128,-1,51
 126 897 126 897 109.5 955.5 c 128,-1,52
 93 1014 93 1014 93 1086 c 0,53,54
 93 1250 93 1250 173.5 1351 c 128,-1,55
 254 1452 254 1452 389 1452 c 0,0,1
EndSplineSet
EndChar

StartChar: T
Encoding: 84 84 55
Width: 598
GlyphClass: 2
Flags: W
LayerCount: 2
Fore
SplineSet
270 0 m 2,0,1
 258 0 258 0 252.5 8.5 c 128,-1,2
 247 17 247 17 247 47 c 2,3,-1
 247 1317 l 2,4,5
 247 1342 247 1342 237 1342 c 2,6,-1
 56 1342 l 2,7,8
 47 1342 47 1342 43 1343 c 128,-1,9
 39 1344 39 1344 35.5 1351 c 128,-1,10
 32 1358 32 1358 32 1373 c 2,11,-1
 32 1401 l 2,12,13
 32 1426 32 1426 37.5 1432 c 128,-1,14
 43 1438 43 1438 56 1438 c 2,15,-1
 547 1438 l 2,16,17
 560 1438 560 1438 565 1432 c 128,-1,18
 570 1426 570 1426 570 1401 c 2,19,-1
 570 1373 l 2,20,21
 570 1358 570 1358 567 1351 c 128,-1,22
 564 1344 564 1344 560 1343 c 128,-1,23
 556 1342 556 1342 547 1342 c 2,24,-1
 369 1342 l 2,25,26
 359 1342 359 1342 359 1317 c 2,27,-1
 359 47 l 2,28,29
 359 17 359 17 353.5 8.5 c 128,-1,30
 348 0 348 0 335 0 c 2,31,-1
 270 0 l 2,0,1
EndSplineSet
EndChar

StartChar: U
Encoding: 85 85 56
Width: 918
GlyphClass: 2
Flags: W
LayerCount: 2
Fore
SplineSet
467 -14 m 0,0,1
 414 -14 414 -14 376 -9.5 c 128,-1,2
 338 -5 338 -5 297 10 c 128,-1,3
 256 25 256 25 228 52 c 128,-1,4
 200 79 200 79 174 124.5 c 128,-1,5
 148 170 148 170 132.5 234.5 c 128,-1,6
 117 299 117 299 108 390.5 c 128,-1,7
 99 482 99 482 99 600 c 2,8,-1
 99 1391 l 2,9,10
 99 1421 99 1421 104.5 1429.5 c 128,-1,11
 110 1438 110 1438 123 1438 c 2,12,-1
 188 1438 l 2,13,14
 200 1438 200 1438 205.5 1429.5 c 128,-1,15
 211 1421 211 1421 211 1391 c 2,16,-1
 211 602 l 2,17,18
 211 463 211 463 222.5 367.5 c 128,-1,19
 234 272 234 272 253 215.5 c 128,-1,20
 272 159 272 159 306 128.5 c 128,-1,21
 340 98 340 98 375.5 89 c 128,-1,22
 411 80 411 80 466 80 c 0,23,24
 505 80 505 80 531.5 84 c 128,-1,25
 558 88 558 88 585.5 100 c 128,-1,26
 613 112 613 112 630.5 135 c 128,-1,27
 648 158 648 158 663.5 196 c 128,-1,28
 679 234 679 234 687.5 289.5 c 128,-1,29
 696 345 696 345 701 422.5 c 128,-1,30
 706 500 706 500 706 602 c 2,31,-1
 706 1391 l 2,32,33
 706 1421 706 1421 711.5 1429.5 c 128,-1,34
 717 1438 717 1438 730 1438 c 2,35,-1
 795 1438 l 2,36,37
 808 1438 808 1438 813 1429.5 c 128,-1,38
 818 1421 818 1421 818 1391 c 2,39,-1
 818 600 l 2,40,41
 818 482 818 482 809.5 390.5 c 128,-1,42
 801 299 801 299 787 234.5 c 128,-1,43
 773 170 773 170 748 124.5 c 128,-1,44
 723 79 723 79 696.5 52 c 128,-1,45
 670 25 670 25 631 10 c 128,-1,46
 592 -5 592 -5 555.5 -9.5 c 128,-1,47
 519 -14 519 -14 467 -14 c 0,0,1
EndSplineSet
EndChar

StartChar: V
Encoding: 86 86 57
Width: 743
GlyphClass: 2
Flags: W
LayerCount: 2
Fore
SplineSet
345 0 m 1,0,1
 321 4 321 4 310 59 c 2,2,-1
 58 1371 l 2,3,4
 54 1395 54 1395 54 1404 c 0,5,6
 54 1438 54 1438 69 1438 c 2,7,-1
 140 1438 l 2,8,9
 162 1438 162 1438 174 1375 c 2,10,-1
 386 211 l 1,11,-1
 580 1375 l 2,12,13
 590 1438 590 1438 613 1438 c 2,14,-1
 674 1438 l 2,15,16
 689 1438 689 1438 689 1405 c 0,17,18
 689 1390 689 1390 686 1371 c 2,19,-1
 450 59 l 2,20,21
 440 3 440 3 416 0 c 1,22,-1
 345 0 l 1,0,1
EndSplineSet
EndChar

StartChar: W
Encoding: 87 87 58
Width: 1152
GlyphClass: 2
Flags: W
LayerCount: 2
Fore
SplineSet
287 0 m 1,0,1
 264 3 264 3 253 68 c 1,2,-1
 62 1370 l 1,3,4
 58 1387 58 1387 58 1405 c 0,5,6
 58 1438 58 1438 73 1438 c 2,7,-1
 137 1438 l 2,8,9
 162 1438 162 1438 173 1370 c 1,10,-1
 323 290 l 1,11,-1
 504 1362 l 1,12,13
 515 1418 515 1418 542 1418 c 2,14,-1
 609 1418 l 1,15,16
 637 1416 637 1416 647 1361 c 2,17,-1
 848 259 l 1,18,-1
 991 1370 l 2,19,20
 1000 1438 1000 1438 1025 1438 c 2,21,-1
 1082 1438 l 2,22,23
 1097 1438 1097 1438 1097 1406 c 0,24,25
 1097 1398 1097 1398 1093 1370 c 2,26,-1
 914 68 l 2,27,28
 905 3 905 3 882 0 c 1,29,-1
 818 0 l 1,30,31
 792 3 792 3 780 68 c 2,32,-1
 571 1225 l 1,33,-1
 374 68 l 2,34,35
 363 4 363 4 345 0 c 1,36,-1
 287 0 l 1,0,1
EndSplineSet
EndChar

StartChar: X
Encoding: 88 88 59
Width: 779
GlyphClass: 2
Flags: W
LayerCount: 2
Fore
SplineSet
69 0 m 2,0,1
 58 0 58 0 58 22 c 0,2,3
 58 42 58 42 67 64 c 2,4,-1
 330 733 l 1,5,-1
 91 1373 l 1,6,7
 81 1411 81 1411 81 1417 c 0,8,9
 81 1438 81 1438 92 1438 c 2,10,-1
 176 1438 l 2,11,12
 190 1438 190 1438 201.5 1428 c 128,-1,13
 213 1418 213 1418 223 1389 c 2,14,-1
 408 880 l 1,15,-1
 599 1389 l 1,16,17
 619 1438 619 1438 648 1438 c 2,18,-1
 704 1438 l 2,19,20
 720 1438 720 1438 720 1414 c 0,21,22
 720 1398 720 1398 714 1384 c 2,23,-1
 467 760 l 1,24,-1
 716 65 l 2,25,26
 724 41 724 41 724 26 c 0,27,28
 724 0 724 0 708 0 c 2,29,-1
 638 0 l 2,30,31
 624 0 624 0 613 10 c 128,-1,32
 602 20 602 20 592 49 c 2,33,-1
 390 616 l 1,34,-1
 167 48 l 2,35,36
 156 20 156 20 146 10 c 128,-1,37
 136 0 136 0 122 0 c 2,38,-1
 69 0 l 2,0,1
EndSplineSet
EndChar

StartChar: Y
Encoding: 89 89 60
Width: 645
GlyphClass: 2
Flags: W
LayerCount: 2
Fore
SplineSet
290 0 m 2,0,1
 278 0 278 0 272.5 10.5 c 128,-1,2
 267 21 267 21 267 52 c 2,3,-1
 267 540 l 1,4,-1
 47 1380 l 1,5,6
 40 1401 40 1401 40 1416 c 0,7,8
 40 1438 40 1438 60 1438 c 2,9,-1
 119 1438 l 2,10,11
 149 1438 149 1438 160 1396 c 2,12,-1
 329 729 l 1,13,-1
 496 1396 l 2,14,15
 500 1416 500 1416 511 1427 c 128,-1,16
 522 1438 522 1438 534 1438 c 2,17,-1
 586 1438 l 2,18,19
 605 1438 605 1438 605 1414 c 0,20,21
 605 1396 605 1396 600 1380 c 2,22,-1
 381 543 l 1,23,-1
 381 52 l 2,24,25
 381 21 381 21 375.5 10.5 c 128,-1,26
 370 0 370 0 358 0 c 2,27,-1
 290 0 l 2,0,1
EndSplineSet
EndChar

StartChar: Z
Encoding: 90 90 61
Width: 645
GlyphClass: 2
Flags: W
LayerCount: 2
Fore
SplineSet
104 0 m 2,0,1
 92 0 92 0 87 5 c 128,-1,2
 82 10 82 10 82 31 c 2,3,-1
 82 52 l 2,4,5
 82 73 82 73 91 105 c 2,6,-1
 444 1301 l 1,7,8
 449 1326 449 1326 449 1329 c 0,9,10
 449 1348 449 1348 438 1348 c 2,11,-1
 110 1348 l 2,12,13
 101 1348 101 1348 97 1349 c 128,-1,14
 93 1350 93 1350 89.5 1357 c 128,-1,15
 86 1364 86 1364 86 1379 c 2,16,-1
 86 1407 l 2,17,18
 86 1428 86 1428 91.5 1433 c 128,-1,19
 97 1438 97 1438 110 1438 c 2,20,-1
 556 1438 l 2,21,22
 568 1438 568 1438 573.5 1433 c 128,-1,23
 579 1428 579 1428 579 1407 c 2,24,-1
 579 1390 l 2,25,26
 579 1347 579 1347 566 1303 c 2,27,-1
 221 129 l 2,28,29
 216 114 216 114 216 104 c 0,30,31
 216 90 216 90 223 90 c 2,32,-1
 565 90 l 2,33,34
 574 90 574 90 577.5 89.5 c 128,-1,35
 581 89 581 89 584.5 82.5 c 128,-1,36
 588 76 588 76 588 61 c 2,37,-1
 588 31 l 2,38,39
 588 17 588 17 584.5 10 c 128,-1,40
 581 3 581 3 577 1.5 c 128,-1,41
 573 0 573 0 565 0 c 2,42,-1
 104 0 l 2,0,1
EndSplineSet
EndChar

StartChar: bracketleft
Encoding: 91 91 62
Width: 479
GlyphClass: 2
Flags: W
LayerCount: 2
Fore
SplineSet
134 -78 m 2,0,1
 107 -78 107 -78 107 -11 c 2,2,-1
 107 1430 l 2,3,4
 107 1462 107 1462 114.5 1481.5 c 128,-1,5
 122 1501 122 1501 134 1501 c 2,6,-1
 365 1501 l 2,7,8
 388 1501 388 1501 388 1446 c 2,9,-1
 388 1407 l 2,10,11
 388 1352 388 1352 365 1352 c 2,12,-1
 232 1352 l 2,13,14
 222 1352 222 1352 222 1323 c 2,15,-1
 222 91 l 2,16,17
 222 62 222 62 232 62 c 2,18,-1
 365 62 l 2,19,20
 388 62 388 62 388 5 c 2,21,-1
 388 -27 l 2,22,23
 388 -57 388 -57 382.5 -67.5 c 128,-1,24
 377 -78 377 -78 365 -78 c 2,25,-1
 134 -78 l 2,0,1
EndSplineSet
EndChar

StartChar: backslash
Encoding: 92 92 63
Width: 528
GlyphClass: 2
Flags: W
LayerCount: 2
Fore
SplineSet
354 -205 m 2,0,1
 342 -205 342 -205 337 -170 c 2,2,-1
 104 1612 l 2,3,4
 104 1614 104 1614 103.5 1618 c 128,-1,5
 103 1622 103 1622 103 1623 c 0,6,7
 103 1647 103 1647 111 1647 c 2,8,-1
 193 1647 l 2,9,10
 204 1647 204 1647 209 1612 c 2,11,-1
 443 -170 l 2,12,13
 443 -172 443 -172 443.5 -175 c 128,-1,14
 444 -178 444 -178 444 -179 c 0,15,16
 444 -205 444 -205 436 -205 c 2,17,-1
 354 -205 l 2,0,1
EndSplineSet
EndChar

StartChar: bracketright
Encoding: 93 93 64
Width: 480
GlyphClass: 2
Flags: W
LayerCount: 2
Fore
SplineSet
117 -84 m 2,0,1
 93 -84 93 -84 93 -29 c 2,2,-1
 93 50 l 2,3,4
 93 105 93 105 116 105 c 2,5,-1
 248 105 l 2,6,7
 258 105 258 105 258 134 c 2,8,-1
 258 1291 l 2,9,10
 258 1320 258 1320 248 1320 c 2,11,-1
 117 1320 l 2,12,13
 93 1320 93 1320 93 1377 c 2,14,-1
 93 1444 l 2,15,16
 93 1501 93 1501 117 1501 c 2,17,-1
 347 1501 l 2,18,19
 358 1501 358 1501 365.5 1480.5 c 128,-1,20
 373 1460 373 1460 373 1428 c 2,21,-1
 373 -13 l 2,22,23
 373 -45 373 -45 365.5 -64.5 c 128,-1,24
 358 -84 358 -84 347 -84 c 2,25,-1
 117 -84 l 2,0,1
EndSplineSet
EndChar

StartChar: asciicircum
Encoding: 94 94 65
Width: 1030
GlyphClass: 2
Flags: W
LayerCount: 2
Fore
SplineSet
127 247 m 2,0,1
 99 247 99 247 99 276 c 0,2,3
 99 293 99 293 107 314 c 2,4,-1
 418 1186 l 1,5,6
 432 1222 432 1222 448 1237.5 c 128,-1,7
 464 1253 464 1253 497 1253 c 2,8,-1
 530 1253 l 2,9,10
 553 1253 553 1253 567.5 1244 c 128,-1,11
 582 1235 582 1235 589 1223 c 128,-1,12
 596 1211 596 1211 607 1185 c 1,13,-1
 924 315 l 2,14,15
 932 291 932 291 932 278 c 0,16,17
 932 247 932 247 903 247 c 2,18,-1
 870 247 l 2,19,20
 850 247 850 247 838 261 c 128,-1,21
 826 275 826 275 812 316 c 2,22,-1
 534 1095 l 2,23,24
 527 1115 527 1115 523.5 1120.5 c 128,-1,25
 520 1126 520 1126 513 1126 c 128,-1,26
 506 1126 506 1126 502.5 1120.5 c 128,-1,27
 499 1115 499 1115 492 1095 c 2,28,-1
 222 316 l 2,29,30
 208 273 208 273 196.5 260 c 128,-1,31
 185 247 185 247 159 247 c 2,32,-1
 127 247 l 2,0,1
EndSplineSet
EndChar

StartChar: underscore
Encoding: 95 95 66
Width: 666
GlyphClass: 2
Flags: W
LayerCount: 2
Fore
SplineSet
63 -39 m 2,0,1
 47 -39 47 -39 39.5 -32.5 c 128,-1,2
 32 -26 32 -26 32 -6 c 2,3,-1
 32 14 l 2,4,5
 32 35 32 35 39.5 41.5 c 128,-1,6
 47 48 47 48 63 48 c 2,7,-1
 605 48 l 2,8,9
 621 48 621 48 629 41.5 c 128,-1,10
 637 35 637 35 637 16 c 2,11,-1
 637 -5 l 2,12,13
 637 -26 637 -26 629 -32.5 c 128,-1,14
 621 -39 621 -39 605 -39 c 2,15,-1
 63 -39 l 2,0,1
EndSplineSet
EndChar

StartChar: grave
Encoding: 96 96 67
Width: 596
GlyphClass: 2
Flags: W
LayerCount: 2
Fore
SplineSet
447 1167 m 2,0,1
 434 1167 434 1167 427 1206 c 2,2,-1
 365 1538 l 2,3,4
 361 1562 361 1562 361 1575 c 0,5,6
 361 1603 361 1603 371 1603 c 2,7,-1
 435 1603 l 2,8,9
 447 1603 447 1603 452.5 1591.5 c 128,-1,10
 458 1580 458 1580 461 1548 c 2,11,-1
 481 1234 l 2,12,13
 482 1220 482 1220 482 1199 c 0,14,15
 482 1180 482 1180 479 1173.5 c 128,-1,16
 476 1167 476 1167 468 1167 c 2,17,-1
 447 1167 l 2,0,1
EndSplineSet
EndChar

StartChar: a
Encoding: 97 97 68
Width: 669
GlyphClass: 2
Flags: W
LayerCount: 2
Fore
SplineSet
277 -12 m 0,0,1
 174 -12 174 -12 123.5 54 c 128,-1,2
 73 120 73 120 73 238 c 0,3,4
 73 323 73 323 99.5 388 c 128,-1,5
 126 453 126 453 164.5 489 c 128,-1,6
 203 525 203 525 254.5 550 c 128,-1,7
 306 575 306 575 347 584 c 128,-1,8
 388 593 388 593 428 600 c 128,-1,9
 468 607 468 607 476 610 c 1,10,-1
 476 668 l 2,11,12
 476 717 476 717 473.5 753 c 128,-1,13
 471 789 471 789 462.5 825 c 128,-1,14
 454 861 454 861 440 883.5 c 128,-1,15
 426 906 426 906 401.5 920 c 128,-1,16
 377 934 377 934 343 934 c 0,17,18
 304 934 304 934 277 923.5 c 128,-1,19
 250 913 250 913 231.5 888.5 c 128,-1,20
 213 864 213 864 202.5 841 c 128,-1,21
 192 818 192 818 178 776 c 0,22,23
 166 742 166 742 148 748 c 1,24,25
 96 759 96 759 92 775 c 1,26,27
 86 787 86 787 97 820 c 0,28,29
 111 866 111 866 128.5 899.5 c 128,-1,30
 146 933 146 933 174.5 961 c 128,-1,31
 203 989 203 989 245.5 1003.5 c 128,-1,32
 288 1018 288 1018 345 1018 c 0,33,34
 469 1018 469 1018 525.5 929.5 c 128,-1,35
 582 841 582 841 582 640 c 2,36,-1
 582 47 l 2,37,38
 582 -3 582 -3 563 -3 c 2,39,-1
 549 -3 l 2,40,41
 532 -3 532 -3 525 38 c 0,42,43
 524 47 524 47 513 116 c 128,-1,44
 502 185 502 185 501 206 c 0,45,46
 501 208 501 208 500 210 c 0,47,48
 495 216 495 216 493 206 c 0,49,50
 447 -12 447 -12 277 -12 c 0,0,1
293 70 m 0,51,52
 384 70 384 70 431 183 c 128,-1,53
 478 296 478 296 478 473 c 0,54,55
 478 536 478 536 472 536 c 0,56,57
 471 536 471 536 442.5 532 c 128,-1,58
 414 528 414 528 412 527 c 0,59,60
 340 513 340 513 291 486 c 128,-1,61
 242 459 242 459 215.5 421 c 128,-1,62
 189 383 189 383 178 341.5 c 128,-1,63
 167 300 167 300 167 248 c 0,64,65
 167 70 167 70 293 70 c 0,51,52
EndSplineSet
EndChar

StartChar: b
Encoding: 98 98 69
Width: 712
GlyphClass: 2
Flags: W
LayerCount: 2
Fore
SplineSet
389 -12 m 0,0,1
 324 -12 324 -12 269 41 c 128,-1,2
 214 94 214 94 182 209 c 0,3,4
 180 214 180 214 179 214 c 0,5,6
 175 214 175 214 170.5 160.5 c 128,-1,7
 166 107 166 107 155.5 53.5 c 128,-1,8
 145 0 145 0 128 0 c 2,9,-1
 117 0 l 2,10,11
 106 0 106 0 102 12 c 128,-1,12
 98 24 98 24 98 56 c 2,13,-1
 98 1366 l 2,14,15
 98 1435 98 1435 121 1435 c 2,16,-1
 181 1435 l 2,17,18
 204 1435 204 1435 204 1366 c 2,19,-1
 204 845 l 2,20,21
 204 834 204 834 207 834 c 128,-1,22
 210 834 210 834 210 839 c 1,23,24
 240 927 240 927 291.5 973 c 128,-1,25
 343 1019 343 1019 401 1019 c 0,26,27
 450 1019 450 1019 489.5 994 c 128,-1,28
 529 969 529 969 563 913.5 c 128,-1,29
 597 858 597 858 616 753.5 c 128,-1,30
 635 649 635 649 635 503 c 0,31,32
 635 363 635 363 613 258.5 c 128,-1,33
 591 154 591 154 554.5 97.5 c 128,-1,34
 518 41 518 41 476.5 14.5 c 128,-1,35
 435 -12 435 -12 389 -12 c 0,0,1
370 73 m 0,36,37
 443 73 443 73 486.5 177 c 128,-1,38
 530 281 530 281 530 506 c 0,39,40
 530 728 530 728 488.5 831 c 128,-1,41
 447 934 447 934 377 934 c 0,42,43
 308 934 308 934 256 814.5 c 128,-1,44
 204 695 204 695 204 506 c 0,45,46
 204 323 204 323 252 198 c 128,-1,47
 300 73 300 73 370 73 c 0,36,37
EndSplineSet
EndChar

StartChar: c
Encoding: 99 99 70
Width: 528
GlyphClass: 2
Flags: W
LayerCount: 2
Fore
SplineSet
350 -12 m 0,0,1
 321 -12 321 -12 296.5 -8 c 128,-1,2
 272 -4 272 -4 243.5 9.5 c 128,-1,3
 215 23 215 23 192.5 45.5 c 128,-1,4
 170 68 170 68 148 107.5 c 128,-1,5
 126 147 126 147 112 200.5 c 128,-1,6
 98 254 98 254 89 332 c 128,-1,7
 80 410 80 410 80 507 c 0,8,9
 80 640 80 640 97 737.5 c 128,-1,10
 114 835 114 835 138.5 888 c 128,-1,11
 163 941 163 941 201.5 971.5 c 128,-1,12
 240 1002 240 1002 272.5 1010.5 c 128,-1,13
 305 1019 305 1019 348 1019 c 0,14,15
 411 1019 411 1019 465 998 c 0,16,17
 466 998 466 998 469.5 992.5 c 128,-1,18
 473 987 473 987 473 986 c 2,19,-1
 473 926 l 2,20,21
 473 925 473 925 471 921.5 c 128,-1,22
 469 918 469 918 467 916 c 2,23,-1
 465 914 l 1,24,25
 406 932 406 932 368 932 c 0,26,27
 338 932 338 932 317.5 927 c 128,-1,28
 297 922 297 922 270 898 c 128,-1,29
 243 874 243 874 227 831 c 128,-1,30
 211 788 211 788 199.5 705.5 c 128,-1,31
 188 623 188 623 188 507 c 0,32,33
 188 394 188 394 198.5 313 c 128,-1,34
 209 232 209 232 224.5 186.5 c 128,-1,35
 240 141 240 141 265.5 115 c 128,-1,36
 291 89 291 89 314.5 82 c 128,-1,37
 338 75 338 75 370 75 c 0,38,39
 410 75 410 75 465 94 c 0,40,41
 466 94 466 94 470.5 88 c 128,-1,42
 475 82 475 82 475 81 c 2,43,-1
 475 23 l 2,44,45
 475 19 475 19 465 9 c 1,46,47
 409 -12 409 -12 350 -12 c 0,0,1
EndSplineSet
EndChar

StartChar: d
Encoding: 100 100 71
Width: 716
GlyphClass: 2
Flags: W
LayerCount: 2
Fore
SplineSet
539 224 m 1,0,1
 508 99 508 99 457 43.5 c 128,-1,2
 406 -12 406 -12 328 -12 c 0,3,4
 289 -12 289 -12 257 -2.5 c 128,-1,5
 225 7 225 7 190 39.5 c 128,-1,6
 155 72 155 72 132 126 c 128,-1,7
 109 180 109 180 93.5 276.5 c 128,-1,8
 78 373 78 373 78 504 c 0,9,10
 78 633 78 633 92 727.5 c 128,-1,11
 106 822 106 822 127.5 877.5 c 128,-1,12
 149 933 149 933 183 965.5 c 128,-1,13
 217 998 217 998 250.5 1008.5 c 128,-1,14
 284 1019 284 1019 327 1019 c 0,15,16
 384 1019 384 1019 430 974.5 c 128,-1,17
 476 930 476 930 506 842 c 0,18,19
 506 841 506 841 508 836.5 c 128,-1,20
 510 832 510 832 511 830 c 0,21,22
 512 830 512 830 512 843 c 2,23,-1
 512 1370 l 2,24,25
 512 1435 512 1435 537 1435 c 2,26,-1
 594 1435 l 2,27,28
 618 1435 618 1435 618 1370 c 2,29,-1
 618 67 l 2,30,31
 618 0 618 0 598 0 c 2,32,-1
 586 0 l 2,33,34
 571 0 571 0 561.5 48.5 c 128,-1,35
 552 97 552 97 547 156.5 c 128,-1,36
 542 216 542 216 539 224 c 1,0,1
512 506 m 0,37,38
 512 707 512 707 465 820.5 c 128,-1,39
 418 934 418 934 346 934 c 0,40,41
 317 934 317 934 295 924 c 128,-1,42
 273 914 273 914 252 886 c 128,-1,43
 231 858 231 858 217 811.5 c 128,-1,44
 203 765 203 765 194.5 688 c 128,-1,45
 186 611 186 611 186 507 c 0,46,47
 186 340 186 340 206.5 241.5 c 128,-1,48
 227 143 227 143 260.5 108 c 128,-1,49
 294 73 294 73 345 73 c 0,50,51
 419 73 419 73 465.5 191.5 c 128,-1,52
 512 310 512 310 512 506 c 0,37,38
EndSplineSet
EndChar

StartChar: e
Encoding: 101 101 72
Width: 662
GlyphClass: 2
Flags: W
LayerCount: 2
Fore
SplineSet
361 -12 m 0,0,1
 80 -12 80 -12 80 504 c 0,2,3
 80 1019 80 1019 352 1019 c 0,4,5
 472 1019 472 1019 533 910 c 128,-1,6
 594 801 594 801 594 556 c 0,7,8
 594 481 594 481 556 481 c 2,9,-1
 194 481 l 2,10,11
 188 481 188 481 188 466 c 0,12,13
 188 410 188 410 193.5 358 c 128,-1,14
 199 306 199 306 212 253 c 128,-1,15
 225 200 225 200 244.5 161 c 128,-1,16
 264 122 264 122 295.5 97.5 c 128,-1,17
 327 73 327 73 367 73 c 0,18,19
 402 73 402 73 428 88.5 c 128,-1,20
 454 104 454 104 468 124.5 c 128,-1,21
 482 145 482 145 491.5 177.5 c 128,-1,22
 501 210 501 210 504.5 232.5 c 128,-1,23
 508 255 508 255 510 285 c 1,24,25
 514 304 514 304 519 304 c 2,26,-1
 571 304 l 2,27,28
 583 304 583 304 584 291 c 1,29,-1
 584 274 l 1,30,31
 585 256 585 256 585 252 c 0,32,33
 585 141 585 141 527.5 64.5 c 128,-1,34
 470 -12 470 -12 361 -12 c 0,0,1
192 549 m 2,35,36
 504 549 l 2,37,38
 505 549 505 549 505 558 c 0,39,40
 497 759 497 759 463 846.5 c 128,-1,41
 429 934 429 934 350 934 c 0,42,43
 320 934 320 934 296 920.5 c 128,-1,44
 272 907 272 907 249 873 c 128,-1,45
 226 839 226 839 210.5 772 c 128,-1,46
 195 705 195 705 189 608 c 1,47,48
 189 549 189 549 192 549 c 2,35,36
EndSplineSet
EndChar

StartChar: f
Encoding: 102 102 73
Width: 434
GlyphClass: 2
Flags: W
LayerCount: 2
Fore
SplineSet
155 0 m 2,0,1
 144 0 144 0 136.5 20 c 128,-1,2
 129 40 129 40 129 72 c 2,3,-1
 129 887 l 2,4,5
 129 903 129 903 128 907.5 c 128,-1,6
 127 912 127 912 121 912 c 2,7,-1
 71 912 l 2,8,9
 58 912 58 912 52.5 917.5 c 128,-1,10
 47 923 47 923 47 940 c 2,11,-1
 47 977 l 2,12,13
 47 994 47 994 53 1000 c 128,-1,14
 59 1006 59 1006 71 1006 c 2,15,-1
 121 1006 l 2,16,17
 129 1006 129 1006 129 1036 c 0,18,19
 129 1204 129 1204 147.5 1289.5 c 128,-1,20
 166 1375 166 1375 206.5 1407 c 128,-1,21
 247 1439 247 1439 326 1439 c 0,22,23
 379 1439 379 1439 387 1437 c 0,24,25
 394 1436 394 1436 396.5 1435.5 c 128,-1,26
 399 1435 399 1435 403 1428.5 c 128,-1,27
 407 1422 407 1422 407 1409 c 2,28,-1
 407 1380 l 2,29,30
 407 1354 407 1354 405.5 1349 c 128,-1,31
 404 1344 404 1344 394 1344 c 2,32,-1
 341 1344 l 2,33,34
 274 1344 274 1344 254.5 1296 c 128,-1,35
 235 1248 235 1248 235 1093 c 2,36,-1
 235 1012 l 2,37,38
 235 1006 235 1006 238 1006 c 2,39,-1
 378 1006 l 2,40,41
 390 1006 390 1006 395 1001 c 128,-1,42
 400 996 400 996 400 980 c 2,43,-1
 400 940 l 2,44,45
 400 923 400 923 395 917.5 c 128,-1,46
 390 912 390 912 378 912 c 2,47,-1
 244 912 l 2,48,49
 235 912 235 912 235 887 c 2,50,-1
 235 72 l 2,51,52
 235 40 235 40 228 20 c 128,-1,53
 221 0 221 0 210 0 c 2,54,-1
 155 0 l 2,0,1
EndSplineSet
EndChar

StartChar: g
Encoding: 103 103 74
Width: 634
GlyphClass: 2
Flags: W
LayerCount: 2
Fore
SplineSet
320 -292 m 0,0,1
 200 -292 200 -292 141.5 -246.5 c 128,-1,2
 83 -201 83 -201 83 -123 c 0,3,4
 83 -79 83 -79 104.5 -17 c 128,-1,5
 126 45 126 45 160 102 c 0,6,7
 164 110 164 110 164 116 c 128,-1,8
 164 122 164 122 155 127 c 0,9,10
 80 162 80 162 80 233 c 0,11,12
 80 247 80 247 81 260.5 c 128,-1,13
 82 274 82 274 83 284 c 128,-1,14
 84 294 84 294 87.5 305 c 128,-1,15
 91 316 91 316 92.5 322.5 c 128,-1,16
 94 329 94 329 99.5 339.5 c 128,-1,17
 105 350 105 350 106.5 353.5 c 128,-1,18
 108 357 108 357 115.5 367.5 c 128,-1,19
 123 378 123 378 124 379.5 c 128,-1,20
 125 381 125 381 134 392.5 c 128,-1,21
 143 404 143 404 144 405 c 0,22,23
 150 414 150 414 150 421 c 0,24,25
 150 429 150 429 145 436 c 0,26,27
 72 532 72 532 72 677 c 0,28,29
 72 751 72 751 85 810.5 c 128,-1,30
 98 870 98 870 125.5 918 c 128,-1,31
 153 966 153 966 202 992.5 c 128,-1,32
 251 1019 251 1019 318 1019 c 0,33,34
 334 1019 334 1019 381 1008 c 0,35,36
 388 1006 388 1006 391.5 1009.5 c 128,-1,37
 395 1013 395 1013 396 1025 c 2,38,-1
 420 1271 l 2,39,40
 422 1299 422 1299 428.5 1306.5 c 128,-1,41
 435 1314 435 1314 450 1314 c 2,42,-1
 499 1314 l 2,43,44
 507 1314 507 1314 511 1301.5 c 128,-1,45
 515 1289 515 1289 511 1273 c 2,46,-1
 444 996 l 2,47,48
 439 974 439 974 455 963 c 1,49,50
 503 926 503 926 534 849 c 128,-1,51
 565 772 565 772 565 677 c 0,52,53
 565 517 565 517 514 433 c 128,-1,54
 463 349 463 349 336 349 c 0,55,56
 268 349 268 349 218 379 c 1,57,58
 162 327 162 327 162 256 c 0,59,60
 162 221 162 221 188 197 c 128,-1,61
 214 173 214 173 263 173 c 2,62,-1
 381 173 l 2,63,64
 503 173 503 173 555.5 121 c 128,-1,65
 608 69 608 69 608 -26 c 0,66,67
 608 -292 608 -292 320 -292 c 0,0,1
315 -218 m 0,68,69
 426 -218 426 -218 473.5 -172.5 c 128,-1,70
 521 -127 521 -127 521 -31 c 0,71,72
 521 101 521 101 379 101 c 2,73,-1
 263 101 l 2,74,75
 239 101 239 101 209.5 35.5 c 128,-1,76
 180 -30 180 -30 180 -100 c 0,77,78
 180 -155 180 -155 209.5 -186.5 c 128,-1,79
 239 -218 239 -218 315 -218 c 0,68,69
333 424 m 0,80,81
 377 424 377 424 405 442.5 c 128,-1,82
 433 461 433 461 446 498.5 c 128,-1,83
 459 536 459 536 463 574 c 128,-1,84
 467 612 467 612 467 671 c 0,85,86
 467 724 467 724 459.5 769.5 c 128,-1,87
 452 815 452 815 435 855.5 c 128,-1,88
 418 896 418 896 386.5 919 c 128,-1,89
 355 942 355 942 312 942 c 0,90,91
 175 942 175 942 175 682 c 0,92,93
 175 424 175 424 333 424 c 0,80,81
EndSplineSet
EndChar

StartChar: h
Encoding: 104 104 75
Width: 684
GlyphClass: 2
Flags: W
LayerCount: 2
Fore
SplineSet
122 0 m 2,0,1
 110 0 110 0 104.5 10.5 c 128,-1,2
 99 21 99 21 99 51 c 2,3,-1
 99 1383 l 2,4,5
 99 1438 99 1438 122 1438 c 2,6,-1
 181 1438 l 2,7,8
 205 1438 205 1438 205 1383 c 2,9,-1
 205 839 l 2,10,11
 205 831 205 831 208 831 c 0,12,13
 212 831 212 831 213 835 c 0,14,15
 244 931 244 931 298 975 c 128,-1,16
 352 1019 352 1019 409 1019 c 0,17,18
 475 1019 475 1019 514 983.5 c 128,-1,19
 553 948 553 948 574.5 853 c 128,-1,20
 596 758 596 758 596 591 c 2,21,-1
 596 51 l 2,22,23
 596 0 596 0 573 0 c 2,24,-1
 513 0 l 2,25,26
 501 0 501 0 495.5 10.5 c 128,-1,27
 490 21 490 21 490 51 c 2,28,-1
 490 621 l 2,29,30
 490 789 490 789 467.5 861.5 c 128,-1,31
 445 934 445 934 388 934 c 0,32,33
 343 934 343 934 300 886.5 c 128,-1,34
 257 839 257 839 231 762.5 c 128,-1,35
 205 686 205 686 205 605 c 2,36,-1
 205 51 l 2,37,38
 205 21 205 21 199.5 10.5 c 128,-1,39
 194 0 194 0 182 0 c 2,40,-1
 122 0 l 2,0,1
EndSplineSet
EndChar

StartChar: i
Encoding: 105 105 76
Width: 310
GlyphClass: 2
Flags: W
LayerCount: 2
Fore
SplineSet
122 1174 m 2,0,1
 110 1174 110 1174 104.5 1183.5 c 128,-1,2
 99 1193 99 1193 99 1223 c 2,3,-1
 99 1295 l 2,4,5
 99 1325 99 1325 104.5 1334.5 c 128,-1,6
 110 1344 110 1344 122 1344 c 2,7,-1
 198 1344 l 2,8,9
 210 1344 210 1344 215.5 1334.5 c 128,-1,10
 221 1325 221 1325 221 1295 c 2,11,-1
 221 1223 l 2,12,13
 221 1193 221 1193 215.5 1183.5 c 128,-1,14
 210 1174 210 1174 198 1174 c 2,15,-1
 122 1174 l 2,0,1
130 0 m 2,16,17
 118 0 118 0 112.5 11 c 128,-1,18
 107 22 107 22 107 53 c 2,19,-1
 107 953 l 2,20,21
 107 984 107 984 112.5 995 c 128,-1,22
 118 1006 118 1006 130 1006 c 2,23,-1
 190 1006 l 2,24,25
 202 1006 202 1006 207.5 995 c 128,-1,26
 213 984 213 984 213 953 c 2,27,-1
 213 53 l 2,28,29
 213 22 213 22 207.5 11 c 128,-1,30
 202 0 202 0 190 0 c 2,31,-1
 130 0 l 2,16,17
EndSplineSet
EndChar

StartChar: j
Encoding: 106 106 77
Width: 350
GlyphClass: 2
Flags: W
LayerCount: 2
Fore
SplineSet
37 -304 m 2,0,1
 16 -304 16 -304 16 -269 c 2,2,-1
 16 -229 l 2,3,4
 16 -198 16 -198 37 -198 c 2,5,-1
 76 -198 l 2,6,7
 116 -198 116 -198 129 -157.5 c 128,-1,8
 142 -117 142 -117 142 11 c 2,9,-1
 142 953 l 2,10,11
 142 1006 142 1006 165 1006 c 2,12,13
 224 1006 l 2,14,15
 237 1006 237 1006 242.5 995 c 128,-1,16
 248 984 248 984 248 953 c 2,17,-1
 248 3 l 2,18,19
 248 -79 248 -79 241.5 -135 c 128,-1,20
 235 -191 235 -191 223.5 -224.5 c 128,-1,21
 212 -258 212 -258 191 -275.5 c 128,-1,22
 170 -293 170 -293 147.5 -298.5 c 128,-1,23
 125 -304 125 -304 90 -304 c 2,24,-1
 37 -304 l 2,0,1
157 1174 m 2,25,26
 145 1174 145 1174 139.5 1183.5 c 128,-1,27
 134 1193 134 1193 134 1223 c 2,28,-1
 134 1295 l 2,29,30
 134 1325 134 1325 139.5 1334.5 c 128,-1,31
 145 1344 145 1344 157 1344 c 2,32,-1
 230 1344 l 2,33,34
 242 1344 242 1344 247.5 1334.5 c 128,-1,35
 253 1325 253 1325 253 1295 c 2,36,-1
 253 1223 l 2,37,38
 253 1193 253 1193 247.5 1183.5 c 128,-1,39
 242 1174 242 1174 230 1174 c 2,40,-1
 157 1174 l 2,25,26
EndSplineSet
EndChar

StartChar: k
Encoding: 107 107 78
Width: 654
GlyphClass: 2
Flags: W
LayerCount: 2
Fore
SplineSet
122 0 m 2,0,1
 99 0 99 0 99 65 c 2,2,-1
 99 1380 l 2,3,4
 99 1445 99 1445 122 1445 c 2,5,-1
 181 1445 l 2,6,7
 205 1445 205 1445 205 1380 c 2,8,-1
 205 481 l 2,9,10
 205 470 205 470 209 470 c 1,11,-1
 212 473 l 1,12,-1
 478 943 l 1,13,14
 490 962 490 962 494.5 968.5 c 128,-1,15
 499 975 499 975 507 986.5 c 128,-1,16
 515 998 515 998 521 1002 c 128,-1,17
 527 1006 527 1006 532 1006 c 2,18,-1
 600 1006 l 2,19,20
 610 1006 610 1006 610 987 c 0,21,22
 610 967 610 967 596 943 c 2,23,-1
 382 567 l 2,24,25
 378 559 378 559 378 555 c 0,26,27
 378 552 378 552 380 548.5 c 128,-1,28
 382 545 382 545 382 544 c 2,29,-1
 612 64 l 2,30,31
 622 44 622 44 622 24 c 0,32,33
 622 0 622 0 610 0 c 2,34,-1
 540 0 l 2,35,36
 523 0 523 0 498 61 c 1,37,-1
 311 479 l 1,38,39
 309 487 309 487 304 487 c 0,40,41
 302 487 302 487 298 482 c 0,42,43
 289 468 289 468 267 430.5 c 128,-1,44
 245 393 245 393 228 362.5 c 128,-1,45
 211 332 211 332 210 332 c 0,46,47
 205 320 205 320 205 302 c 2,48,-1
 205 65 l 2,49,50
 205 0 205 0 181 0 c 2,51,-1
 122 0 l 2,0,1
EndSplineSet
EndChar

StartChar: l
Encoding: 108 108 79
Width: 309
GlyphClass: 2
Flags: W
LayerCount: 2
Fore
SplineSet
132 0 m 2,0,1
 109 0 109 0 109 63 c 2,2,-1
 109 1380 l 2,3,4
 109 1445 109 1445 132 1445 c 2,5,-1
 192 1445 l 2,6,7
 215 1445 215 1445 215 1380 c 2,8,-1
 215 63 l 2,9,10
 215 0 215 0 192 0 c 2,11,-1
 132 0 l 2,0,1
EndSplineSet
EndChar

StartChar: m
Encoding: 109 109 80
Width: 1044
GlyphClass: 2
Flags: W
LayerCount: 2
Fore
SplineSet
121 0 m 2,0,1
 97 0 97 0 97 57 c 2,2,-1
 97 937 l 2,3,4
 97 1006 97 1006 119 1006 c 2,5,-1
 134 1006 l 2,6,7
 147 1006 147 1006 153.5 995 c 128,-1,8
 160 984 160 984 164 950 c 1,9,-1
 176 797 l 2,10,11
 178 784 178 784 182 784 c 0,12,13
 185 784 185 784 187 798 c 1,14,15
 215 915 215 915 267 967 c 128,-1,16
 319 1019 319 1019 381 1019 c 0,17,18
 449 1019 449 1019 491.5 971.5 c 128,-1,19
 534 924 534 924 560 803 c 0,20,21
 562 797 562 797 563 797 c 0,22,23
 566 797 566 797 567 803 c 0,24,25
 594 915 594 915 647 967 c 128,-1,26
 700 1019 700 1019 760 1019 c 0,27,28
 798 1019 798 1019 826 1009 c 128,-1,29
 854 999 854 999 879.5 972 c 128,-1,30
 905 945 905 945 921 899.5 c 128,-1,31
 937 854 937 854 946.5 780.5 c 128,-1,32
 956 707 956 707 956 606 c 2,33,-1
 956 57 l 2,34,35
 956 0 956 0 933 0 c 2,36,-1
 874 0 l 2,37,38
 850 0 850 0 850 57 c 2,39,-1
 850 649 l 2,40,41
 850 808 850 808 825 871 c 128,-1,42
 800 934 800 934 747 934 c 0,43,44
 702 934 702 934 663 886.5 c 128,-1,45
 624 839 624 839 602 765 c 128,-1,46
 580 691 580 691 580 611 c 2,47,-1
 580 57 l 2,48,49
 580 0 580 0 556 0 c 2,50,-1
 498 0 l 2,51,52
 474 0 474 0 474 57 c 2,53,-1
 474 645 l 2,54,55
 474 806 474 806 448.5 870 c 128,-1,56
 423 934 423 934 370 934 c 0,57,58
 322 934 322 934 283 882 c 128,-1,59
 244 830 244 830 223.5 756 c 128,-1,60
 203 682 203 682 203 608 c 2,61,-1
 203 57 l 2,62,63
 203 0 203 0 179 0 c 2,64,-1
 121 0 l 2,0,1
EndSplineSet
EndChar

StartChar: n
Encoding: 110 110 81
Width: 679
GlyphClass: 2
Flags: W
LayerCount: 2
Fore
SplineSet
122 0 m 2,0,1
 110 0 110 0 104 10.5 c 128,-1,2
 98 21 98 21 98 51 c 2,3,-1
 98 941 l 2,4,5
 98 1006 98 1006 120 1006 c 2,6,-1
 134 1006 l 2,7,8
 147 1006 147 1006 153.5 997 c 128,-1,9
 160 988 160 988 164 954 c 1,10,-1
 176 817 l 1,11,12
 179 805 179 805 183 805 c 0,13,14
 186 805 186 805 188 818 c 1,15,16
 239 1019 239 1019 393 1019 c 0,17,18
 440 1019 440 1019 474.5 1000.5 c 128,-1,19
 509 982 509 982 536 938.5 c 128,-1,20
 563 895 563 895 577 816.5 c 128,-1,21
 591 738 591 738 591 625 c 2,22,-1
 591 51 l 2,23,24
 591 21 591 21 585.5 10.5 c 128,-1,25
 580 0 580 0 568 0 c 2,26,-1
 508 0 l 2,27,28
 496 0 496 0 490.5 10.5 c 128,-1,29
 485 21 485 21 485 51 c 2,30,-1
 485 645 l 2,31,32
 485 799 485 799 458 866.5 c 128,-1,33
 431 934 431 934 377 934 c 0,34,35
 304 934 304 934 254 842.5 c 128,-1,36
 204 751 204 751 204 629 c 2,37,-1
 204 51 l 2,38,39
 204 21 204 21 198.5 10.5 c 128,-1,40
 193 0 193 0 181 0 c 2,41,-1
 122 0 l 2,0,1
EndSplineSet
EndChar

StartChar: o
Encoding: 111 111 82
Width: 702
GlyphClass: 2
Flags: W
LayerCount: 2
Fore
SplineSet
352 73 m 128,-1,1
 390 73 390 73 416.5 88.5 c 128,-1,2
 443 104 443 104 467 147.5 c 128,-1,3
 491 191 491 191 503 280 c 128,-1,4
 515 369 515 369 515 504 c 0,5,6
 515 616 515 616 506 696.5 c 128,-1,7
 497 777 497 777 483 822.5 c 128,-1,8
 469 868 469 868 446 893.5 c 128,-1,9
 423 919 423 919 402 926.5 c 128,-1,10
 381 934 381 934 352 934 c 128,-1,11
 323 934 323 934 301.5 926.5 c 128,-1,12
 280 919 280 919 257 893 c 128,-1,13
 234 867 234 867 220 821.5 c 128,-1,14
 206 776 206 776 197 696 c 128,-1,15
 188 616 188 616 188 504 c 0,16,17
 188 370 188 370 200 281.5 c 128,-1,18
 212 193 212 193 236 149 c 128,-1,19
 260 105 260 105 287 89 c 128,-1,0
 314 73 314 73 352 73 c 128,-1,1
353 -12 m 0,20,21
 310 -12 310 -12 275.5 -2 c 128,-1,22
 241 8 241 8 202.5 40 c 128,-1,23
 164 72 164 72 138.5 126.5 c 128,-1,24
 113 181 113 181 96.5 277.5 c 128,-1,25
 80 374 80 374 80 504 c 0,26,27
 80 636 80 636 96 733 c 128,-1,28
 112 830 112 830 137 884 c 128,-1,29
 162 938 162 938 200 969.5 c 128,-1,30
 238 1001 238 1001 273 1010 c 128,-1,31
 308 1019 308 1019 353 1019 c 128,-1,32
 398 1019 398 1019 432.5 1010 c 128,-1,33
 467 1001 467 1001 504.5 969.5 c 128,-1,34
 542 938 542 938 566 884 c 128,-1,35
 590 830 590 830 606 733 c 128,-1,36
 622 636 622 636 622 504 c 0,37,38
 622 374 622 374 605.5 277.5 c 128,-1,39
 589 181 589 181 564 127 c 128,-1,40
 539 73 539 73 501.5 40.5 c 128,-1,41
 464 8 464 8 429.5 -2 c 128,-1,42
 395 -12 395 -12 353 -12 c 0,20,21
EndSplineSet
EndChar

StartChar: p
Encoding: 112 112 83
Width: 718
GlyphClass: 2
Flags: W
LayerCount: 2
Fore
SplineSet
121 -401 m 2,0,1
 98 -401 98 -401 98 -337 c 2,2,-1
 98 949 l 2,3,4
 98 1010 98 1010 118 1010 c 2,5,-1
 129 1010 l 2,6,7
 150 1010 150 1010 160 930 c 0,8,9
 174 825 174 825 174 791 c 1,10,11
 176 780 176 780 179 780 c 0,12,13
 181 780 181 780 184 787 c 1,14,15
 214 901 214 901 271 959.5 c 128,-1,16
 328 1018 328 1018 390 1018 c 0,17,18
 494 1018 494 1018 566 890 c 128,-1,19
 638 762 638 762 638 508 c 0,20,21
 638 240 638 240 567.5 114 c 128,-1,22
 497 -12 497 -12 387 -12 c 0,23,24
 332 -12 332 -12 285.5 33.5 c 128,-1,25
 239 79 239 79 210 166 c 0,26,27
 208 172 208 172 206 172 c 128,-1,28
 204 172 204 172 204 162 c 2,29,-1
 204 -337 l 2,30,31
 204 -401 204 -401 181 -401 c 2,32,-1
 121 -401 l 2,0,1
369 73 m 0,33,34
 531 73 531 73 531 505 c 0,35,36
 531 705 531 705 485 819.5 c 128,-1,37
 439 934 439 934 369 934 c 128,-1,38
 299 934 299 934 251.5 813 c 128,-1,39
 204 692 204 692 204 505 c 0,40,41
 204 309 204 309 252 191 c 128,-1,42
 300 73 300 73 369 73 c 0,33,34
EndSplineSet
EndChar

StartChar: q
Encoding: 113 113 84
Width: 711
GlyphClass: 2
Flags: W
LayerCount: 2
Fore
SplineSet
535 -401 m 2,0,1
 511 -401 511 -401 511 -342 c 2,2,-1
 511 162 l 2,3,4
 511 172 511 172 508 172 c 0,5,6
 506 172 506 172 504 166 c 0,7,8
 475 78 475 78 429.5 33 c 128,-1,9
 384 -12 384 -12 329 -12 c 0,10,11
 276 -12 276 -12 233.5 13.5 c 128,-1,12
 191 39 191 39 155.5 95.5 c 128,-1,13
 120 152 120 152 100 257 c 128,-1,14
 80 362 80 362 80 508 c 0,15,16
 80 621 80 621 95 710.5 c 128,-1,17
 110 800 110 800 134.5 857 c 128,-1,18
 159 914 159 914 193.5 951.5 c 128,-1,19
 228 989 228 989 263.5 1004 c 128,-1,20
 299 1019 299 1019 339 1019 c 0,21,22
 470 1019 470 1019 531 778 c 1,23,24
 534 771 534 771 536 771 c 0,25,26
 541 771 541 771 541 782 c 0,27,28
 541 828 541 828 555 933 c 1,29,30
 564 1010 564 1010 584 1010 c 2,31,-1
 598 1010 l 2,32,33
 617 1010 617 1010 617 952 c 2,34,-1
 617 -342 l 2,35,36
 617 -401 617 -401 594 -401 c 2,37,-1
 535 -401 l 2,0,1
348 73 m 0,38,39
 417 73 417 73 464 190.5 c 128,-1,40
 511 308 511 308 511 505 c 0,41,42
 511 692 511 692 464.5 813 c 128,-1,43
 418 934 418 934 348 934 c 128,-1,44
 278 934 278 934 232.5 820 c 128,-1,45
 187 706 187 706 187 505 c 0,46,47
 187 73 187 73 348 73 c 0,38,39
EndSplineSet
EndChar

StartChar: r
Encoding: 114 114 85
Width: 429
GlyphClass: 2
Flags: W
LayerCount: 2
Fore
SplineSet
121 0 m 2,0,1
 97 0 97 0 97 58 c 2,2,-1
 97 929 l 2,3,4
 97 1006 97 1006 118 1006 c 2,5,-1
 134 1006 l 2,6,7
 146 1006 146 1006 151.5 992.5 c 128,-1,8
 157 979 157 979 162 942 c 1,9,-1
 175 801 l 1,10,11
 179 781 179 781 182 781 c 1,12,-1
 188 801 l 1,13,14
 212 893 212 893 252 952.5 c 128,-1,15
 292 1012 292 1012 336 1012 c 2,16,17
 352 1012 l 2,18,19
 369 1012 369 1012 375.5 1003.5 c 128,-1,20
 382 995 382 995 382 970 c 2,21,-1
 382 934 l 2,22,23
 382 910 382 910 377 902 c 128,-1,24
 372 894 372 894 359 894 c 2,25,-1
 327 892 l 1,26,27
 277 887 277 887 240 774 c 128,-1,28
 203 661 203 661 203 556 c 2,29,-1
 203 58 l 2,30,31
 203 0 203 0 179 0 c 2,32,-1
 121 0 l 2,0,1
EndSplineSet
EndChar

StartChar: s
Encoding: 115 115 86
Width: 561
GlyphClass: 2
Flags: W
LayerCount: 2
Fore
SplineSet
515 252 m 0,0,1
 515 134 515 134 451 61 c 128,-1,2
 387 -12 387 -12 275 -12 c 0,3,4
 141 -12 141 -12 44 102 c 0,5,6
 38 110 38 110 38 118 c 0,7,8
 38 136 38 136 56 155.5 c 128,-1,9
 74 175 74 175 87 175 c 0,10,11
 91 175 91 175 94 172 c 0,12,13
 140 120 140 120 180 96.5 c 128,-1,14
 220 73 220 73 274 73 c 0,15,16
 344 73 344 73 382.5 125 c 128,-1,17
 421 177 421 177 421 253 c 0,18,19
 421 328 421 328 384.5 374 c 128,-1,20
 348 420 348 420 273 468 c 0,21,22
 226 498 226 498 198 520 c 128,-1,23
 170 542 170 542 139 578 c 128,-1,24
 108 614 108 614 93.5 660.5 c 128,-1,25
 79 707 79 707 79 767 c 0,26,27
 79 878 79 878 138 948.5 c 128,-1,28
 197 1019 197 1019 292 1019 c 0,29,30
 402 1019 402 1019 485 934 c 0,31,32
 490 929 490 929 490 921 c 0,33,34
 490 904 490 904 474.5 884 c 128,-1,35
 459 864 459 864 447 864 c 0,36,37
 443 864 443 864 441 866 c 0,38,39
 404 900 404 900 372.5 916 c 128,-1,40
 341 932 341 932 298 932 c 0,41,42
 239 932 239 932 206 885.5 c 128,-1,43
 173 839 173 839 173 773 c 0,44,45
 173 701 173 701 204 655.5 c 128,-1,46
 235 610 235 610 304 568 c 0,47,48
 353 539 353 539 384.5 514 c 128,-1,49
 416 489 416 489 449 451.5 c 128,-1,50
 482 414 482 414 498.5 364 c 128,-1,51
 515 314 515 314 515 252 c 0,0,1
EndSplineSet
EndChar

StartChar: t
Encoding: 116 116 87
Width: 449
GlyphClass: 2
Flags: W
LayerCount: 2
Fore
SplineSet
309 -3 m 2,0,1
 266 -3 266 -3 234.5 11 c 128,-1,2
 203 25 203 25 178 58 c 128,-1,3
 153 91 153 91 140.5 153 c 128,-1,4
 128 215 128 215 128 305 c 2,5,-1
 128 895 l 2,6,7
 128 912 128 912 118 912 c 2,8,-1
 52 912 l 2,9,10
 39 912 39 912 33.5 918.5 c 128,-1,11
 28 925 28 925 28 949 c 2,12,-1
 28 968 l 2,13,14
 28 992 28 992 33.5 999 c 128,-1,15
 39 1006 39 1006 52 1006 c 2,16,-1
 118 1006 l 2,17,18
 128 1006 128 1006 128 1033 c 1,19,-1
 144 1426 l 2,20,21
 145 1456 145 1456 150 1465.5 c 128,-1,22
 155 1475 155 1475 167 1475 c 2,23,-1
 210 1475 l 2,24,25
 222 1475 222 1475 227.5 1465.5 c 128,-1,26
 233 1456 233 1456 233 1426 c 2,27,-1
 233 1033 l 2,28,29
 233 1006 233 1006 244 1006 c 2,30,-1
 374 1006 l 2,31,32
 387 1006 387 1006 392.5 999 c 128,-1,33
 398 992 398 992 398 968 c 2,34,-1
 398 949 l 2,35,36
 398 925 398 925 392.5 918.5 c 128,-1,37
 387 912 387 912 374 912 c 2,38,-1
 244 912 l 2,39,40
 237 912 237 912 235 909 c 128,-1,41
 233 906 233 906 233 895 c 2,42,-1
 233 307 l 2,43,44
 233 236 233 236 240 190.5 c 128,-1,45
 247 145 247 145 261.5 123.5 c 128,-1,46
 276 102 276 102 291 95 c 128,-1,47
 306 88 306 88 328 88 c 2,48,-1
 394 88 l 2,49,50
 422 88 422 88 422 67 c 2,51,-1
 422 24 l 2,52,53
 422 -3 422 -3 394 -3 c 2,54,-1
 309 -3 l 2,0,1
EndSplineSet
EndChar

StartChar: u
Encoding: 117 117 88
Width: 675
GlyphClass: 2
Flags: W
LayerCount: 2
Fore
SplineSet
291 -12 m 0,0,1
 252 -12 252 -12 223.5 -4 c 128,-1,2
 195 4 195 4 168 28.5 c 128,-1,3
 141 53 141 53 124.5 95 c 128,-1,4
 108 137 108 137 98 206.5 c 128,-1,5
 88 276 88 276 88 373 c 2,6,-1
 88 955 l 2,7,8
 88 985 88 985 93.5 995.5 c 128,-1,9
 99 1006 99 1006 111 1006 c 2,10,-1
 171 1006 l 2,11,12
 183 1006 183 1006 188.5 995.5 c 128,-1,13
 194 985 194 985 194 955 c 2,14,-1
 194 327 l 2,15,16
 194 181 194 181 220 127 c 128,-1,17
 246 73 246 73 302 73 c 0,18,19
 373 73 373 73 422.5 167.5 c 128,-1,20
 472 262 472 262 472 369 c 2,21,-1
 472 955 l 2,22,23
 472 1006 472 1006 496 1006 c 2,24,-1
 554 1006 l 2,25,26
 566 1006 566 1006 572 995.5 c 128,-1,27
 578 985 578 985 578 955 c 2,28,-1
 578 65 l 2,29,30
 578 0 578 0 556 0 c 2,31,-1
 543 0 l 2,32,33
 530 0 530 0 523.5 9 c 128,-1,34
 517 18 517 18 513 52 c 2,35,-1
 500 191 l 2,36,37
 498 204 498 204 494 204 c 128,-1,38
 490 204 490 204 488 190 c 1,39,40
 441 -12 441 -12 291 -12 c 0,0,1
EndSplineSet
EndChar

StartChar: v
Encoding: 118 118 89
Width: 586
GlyphClass: 2
Flags: W
LayerCount: 2
Fore
SplineSet
253 1 m 2,0,1
 234 1 234 1 221 67 c 2,2,-1
 54 940 l 2,3,4
 50 957 50 957 50 975 c 0,5,6
 50 1006 50 1006 64 1006 c 2,7,-1
 132 1006 l 2,8,9
 152 1006 152 1006 164 941 c 1,10,-1
 290 165 l 2,11,12
 292 156 292 156 294 156 c 256,13,14
 296 156 296 156 297 165 c 2,15,-1
 426 941 l 2,16,17
 436 1006 436 1006 459 1006 c 2,18,-1
 523 1006 l 2,19,20
 536 1006 536 1006 536 979 c 0,21,22
 536 967 536 967 531 940 c 2,23,-1
 360 67 l 2,24,25
 347 1 347 1 324 1 c 2,26,-1
 253 1 l 2,0,1
EndSplineSet
EndChar

StartChar: w
Encoding: 119 119 90
Width: 909
GlyphClass: 2
Flags: W
LayerCount: 2
Fore
SplineSet
237 0 m 2,0,1
 215 0 215 0 204 64 c 2,2,-1
 56 940 l 1,3,4
 52 957 52 957 52 974 c 0,5,6
 52 1006 52 1006 67 1006 c 2,7,-1
 125 1006 l 2,8,9
 145 1006 145 1006 156 940 c 1,10,-1
 269 181 l 1,11,12
 273 171 273 171 274 171 c 0,13,14
 276 171 276 171 278 181 c 2,15,-1
 406 941 l 2,16,17
 416 1006 416 1006 437 1006 c 2,18,-1
 486 1006 l 2,19,20
 503 1006 503 1006 514 941 c 2,21,-1
 648 180 l 2,22,23
 649 173 649 173 651 173 c 0,24,25
 655 173 655 173 655 181 c 1,26,-1
 758 941 l 2,27,28
 766 1006 766 1006 791 1006 c 2,29,-1
 843 1006 l 2,30,31
 857 1006 857 1006 857 978 c 0,32,33
 857 967 857 967 852 940 c 2,34,-1
 717 64 l 2,35,36
 707 0 707 0 681 0 c 2,37,-1
 621 0 l 2,38,39
 595 0 595 0 584 64 c 2,40,-1
 462 772 l 2,41,42
 461 779 461 779 459 779 c 0,43,44
 456 779 456 779 454 772 c 2,45,-1
 336 64 l 2,46,47
 326 0 326 0 299 0 c 2,48,-1
 237 0 l 2,0,1
EndSplineSet
EndChar

StartChar: x
Encoding: 120 120 91
Width: 600
GlyphClass: 2
Flags: W
LayerCount: 2
Fore
SplineSet
60 0 m 2,0,1
 52 0 52 0 52 26 c 0,2,3
 52 39 52 39 55 46 c 0,4,5
 180 360 180 360 234 483 c 0,6,7
 236 489 236 489 236 494 c 0,8,9
 236 498 236 498 234 508 c 1,10,11
 150 702 150 702 58 958 c 0,12,13
 54 968 54 968 54 978 c 0,14,15
 54 1006 54 1006 63 1006 c 2,16,-1
 130 1006 l 2,17,18
 149 1006 149 1006 170 956 c 0,19,20
 171 955 171 955 216.5 832 c 128,-1,21
 262 709 262 709 297 630 c 0,22,23
 299 625 299 625 301 625 c 0,24,25
 306 625 306 625 307 630 c 0,26,27
 324 672 324 672 354.5 747.5 c 128,-1,28
 385 823 385 823 408.5 881 c 128,-1,29
 432 939 432 939 440 958 c 0,30,31
 460 1006 460 1006 478 1006 c 2,32,-1
 534 1006 l 2,33,34
 543 1006 543 1006 543 981 c 0,35,36
 543 967 543 967 539 960 c 1,37,38
 533 944 533 944 358 531 c 0,39,40
 355 522 355 522 355 520 c 128,-1,41
 355 518 355 518 356.5 512 c 128,-1,42
 358 506 358 506 358 504 c 0,43,44
 462 261 462 261 548 48 c 0,45,46
 552 40 552 40 552 28 c 0,47,48
 552 0 552 0 543 0 c 2,49,-1
 477 0 l 2,50,51
 465 0 465 0 452.5 14 c 128,-1,52
 440 28 440 28 432 50 c 1,53,54
 427 60 427 60 381 184.5 c 128,-1,55
 335 309 335 309 305 378 c 0,56,57
 302 385 302 385 299 385 c 0,58,59
 297 385 297 385 289 378 c 1,60,61
 178 95 178 95 158 47 c 1,62,63
 135 0 135 0 114 0 c 2,64,-1
 60 0 l 2,0,1
EndSplineSet
EndChar

StartChar: y
Encoding: 121 121 92
Width: 598
GlyphClass: 2
Flags: W
LayerCount: 2
Fore
SplineSet
111 -199 m 0,0,1
 111 -182 111 -182 115 -170.5 c 128,-1,2
 119 -159 119 -159 124 -154.5 c 128,-1,3
 129 -150 129 -150 133 -151 c 0,4,5
 186 -167 186 -167 206 -167 c 0,6,7
 234 -167 234 -167 251.5 -113 c 128,-1,8
 269 -59 269 -59 269 8 c 0,9,10
 269 37 269 37 250 117 c 2,11,-1
 53 947 l 1,12,13
 51 961 51 961 51 969 c 0,14,15
 51 1006 51 1006 67 1006 c 2,16,-1
 127 1006 l 2,17,18
 152 1006 152 1006 162 953 c 2,19,-1
 317 207 l 2,20,21
 320 197 320 197 322 197 c 128,-1,22
 324 197 324 197 326 208 c 2,23,-1
 446 950 l 2,24,25
 455 1006 455 1006 477 1006 c 2,26,-1
 535 1006 l 2,27,28
 552 1006 552 1006 552 965 c 0,29,30
 552 964 552 964 549 943 c 1,31,-1
 370 11 l 1,32,33
 341 -150 341 -150 311.5 -204.5 c 128,-1,34
 282 -259 282 -259 210 -259 c 0,35,36
 111 -259 111 -259 111 -199 c 0,0,1
EndSplineSet
EndChar

StartChar: z
Encoding: 122 122 93
Width: 513
GlyphClass: 2
Flags: W
LayerCount: 2
Fore
SplineSet
97 0 m 2,0,1
 91 0 91 0 85 4.5 c 128,-1,2
 79 9 79 9 79 18 c 2,3,-1
 79 70 l 2,4,5
 79 85 79 85 96 138 c 2,6,-1
 340 910 l 1,7,-1
 92 910 l 2,8,9
 80 910 80 910 80 934 c 2,10,-1
 80 985 l 2,11,12
 80 1006 80 1006 92 1006 c 2,13,-1
 428 1006 l 2,14,15
 446 1006 446 1006 446 985 c 2,16,-1
 446 931 l 2,17,18
 446 898 446 898 437 871 c 2,19,-1
 191 96 l 1,20,-1
 447 96 l 2,21,22
 459 96 459 96 459 76 c 2,23,-1
 459 20 l 2,24,25
 459 0 459 0 447 0 c 2,26,-1
 97 0 l 2,0,1
EndSplineSet
EndChar

StartChar: braceleft
Encoding: 123 123 94
Width: 507
GlyphClass: 2
Flags: W
LayerCount: 2
Fore
SplineSet
392 1543 m 2,0,1
 418 1543 418 1543 418 1504 c 2,2,-1
 418 1482 l 2,3,4
 418 1461 418 1461 407.5 1453.5 c 128,-1,5
 397 1446 397 1446 367 1446 c 0,6,7
 328 1446 328 1446 321 1405.5 c 128,-1,8
 314 1365 314 1365 314 1154 c 2,9,-1
 314 939 l 2,10,11
 314 834 314 834 301 791 c 128,-1,12
 288 748 288 748 247 739 c 0,13,14
 245 738 245 738 245 735 c 128,-1,15
 245 732 245 732 247 731 c 0,16,17
 287 721 287 721 300 679 c 128,-1,18
 313 637 313 637 313 534 c 2,19,-1
 313 319 l 2,20,21
 313 105 313 105 320.5 63 c 128,-1,22
 328 21 328 21 367 21 c 0,23,24
 397 21 397 21 407.5 13 c 128,-1,25
 418 5 418 5 418 -16 c 2,26,-1
 418 -37 l 2,27,28
 418 -77 418 -77 392 -77 c 2,29,-1
 337 -77 l 2,30,31
 298 -77 298 -77 276.5 -66.5 c 128,-1,32
 255 -56 255 -56 239 -17 c 128,-1,33
 223 22 223 22 217 94 c 128,-1,34
 211 166 211 166 211 292 c 2,35,-1
 211 491 l 1,36,37
 210 570 210 570 206 605.5 c 128,-1,38
 202 641 202 641 191.5 654.5 c 128,-1,39
 181 668 181 668 158 669 c 1,40,41
 124 669 124 669 112 678 c 128,-1,42
 100 687 100 687 100 724 c 2,43,-1
 100 744 l 2,44,45
 100 777 100 777 112.5 785 c 128,-1,46
 125 793 125 793 158 793 c 128,-1,47
 191 793 191 793 200.5 826.5 c 128,-1,48
 210 860 210 860 211 974 c 1,49,-1
 211 1180 l 2,50,51
 211 1345 211 1345 224 1422.5 c 128,-1,52
 237 1500 237 1500 261 1521.5 c 128,-1,53
 285 1543 285 1543 337 1543 c 2,54,-1
 392 1543 l 2,0,1
EndSplineSet
EndChar

StartChar: bar
Encoding: 124 124 95
Width: 294
GlyphClass: 2
Flags: W
LayerCount: 2
Fore
SplineSet
135 -150 m 2,0,1
 107 -150 107 -150 107 -89 c 2,2,-1
 107 1494 l 2,3,4
 107 1555 107 1555 135 1555 c 2,5,-1
 159 1555 l 2,6,7
 186 1555 186 1555 186 1494 c 2,8,-1
 186 -89 l 2,9,10
 186 -150 186 -150 159 -150 c 2,11,-1
 135 -150 l 2,0,1
EndSplineSet
EndChar

StartChar: braceright
Encoding: 125 125 96
Width: 507
GlyphClass: 2
Flags: W
LayerCount: 2
Fore
SplineSet
127 -77 m 2,0,1
 100 -77 100 -77 100 -37 c 2,2,-1
 100 -16 l 2,3,4
 100 5 100 5 111 13 c 128,-1,5
 122 21 122 21 152 21 c 0,6,7
 190 21 190 21 197.5 62 c 128,-1,8
 205 103 205 103 205 312 c 2,9,-1
 205 528 l 2,10,11
 205 632 205 632 218 675.5 c 128,-1,12
 231 719 231 719 271 728 c 0,13,14
 273 728 273 728 273.5 731.5 c 128,-1,15
 274 735 274 735 271 735 c 0,16,17
 231 745 231 745 218.5 787.5 c 128,-1,18
 206 830 206 830 206 932 c 2,19,-1
 206 1147 l 2,20,21
 206 1360 206 1360 198.5 1403 c 128,-1,22
 191 1446 191 1446 152 1446 c 0,23,24
 122 1446 122 1446 111 1453.5 c 128,-1,25
 100 1461 100 1461 100 1482 c 2,26,-1
 100 1504 l 2,27,28
 100 1543 100 1543 127 1543 c 2,29,-1
 182 1543 l 2,30,31
 221 1543 221 1543 242.5 1532.5 c 128,-1,32
 264 1522 264 1522 280 1483 c 128,-1,33
 296 1444 296 1444 302 1372 c 128,-1,34
 308 1300 308 1300 308 1174 c 2,35,-1
 308 975 l 2,36,37
 308 862 308 862 317.5 830 c 128,-1,38
 327 798 327 798 360 798 c 0,39,40
 394 798 394 798 406 789 c 128,-1,41
 418 780 418 780 418 743 c 2,42,-1
 418 722 l 2,43,44
 418 699 418 699 411 688.5 c 128,-1,45
 404 678 404 678 394 676 c 128,-1,46
 384 674 384 674 360 673 c 1,47,48
 327 673 327 673 318 639 c 128,-1,49
 309 605 309 605 308 492 c 0,50,51
 308 490 308 490 307.5 388.5 c 128,-1,52
 307 287 307 287 307 286 c 0,53,54
 307 160 307 160 301 89 c 128,-1,55
 295 18 295 18 279 -19.5 c 128,-1,56
 263 -57 263 -57 242.5 -67 c 128,-1,57
 222 -77 222 -77 182 -77 c 2,58,-1
 127 -77 l 2,0,1
EndSplineSet
EndChar

StartChar: asciitilde
Encoding: 126 126 97
Width: 1345
GlyphClass: 2
Flags: W
LayerCount: 2
Fore
SplineSet
418 276 m 0,0,1
 368 276 368 276 328.5 292 c 128,-1,2
 289 308 289 308 262 338.5 c 128,-1,3
 235 369 235 369 219.5 394.5 c 128,-1,4
 204 420 204 420 188 456 c 0,5,6
 180 474 180 474 180 485 c 0,7,8
 180 501 180 501 195.5 514.5 c 128,-1,9
 211 528 211 528 232 528 c 0,10,11
 236 528 236 528 239 527 c 128,-1,12
 242 526 242 526 244.5 525 c 128,-1,13
 247 524 247 524 249 522.5 c 128,-1,14
 251 521 251 521 252.5 519.5 c 128,-1,15
 254 518 254 518 255.5 515.5 c 128,-1,16
 257 513 257 513 257.5 511.5 c 128,-1,17
 258 510 258 510 259 508 c 128,-1,18
 260 506 260 506 260 505 c 0,19,20
 290 429 290 429 329.5 402 c 128,-1,21
 369 375 369 375 433 375 c 2,22,-1
 438 375 l 2,23,24
 485 375 485 375 554.5 401 c 128,-1,25
 624 427 624 427 684.5 458.5 c 128,-1,26
 745 490 745 490 819.5 516 c 128,-1,27
 894 542 894 542 950 542 c 0,28,29
 1025 542 1025 542 1069 503.5 c 128,-1,30
 1113 465 1113 465 1158 378 c 0,31,32
 1164 367 1164 367 1164 351 c 0,33,34
 1164 331 1164 331 1154 318.5 c 128,-1,35
 1144 306 1144 306 1130 305 c 0,36,37
 1109 304 1109 304 1094 330 c 1,38,39
 1057 386 1057 386 1025 415 c 128,-1,40
 993 444 993 444 954 444 c 0,41,42
 908 444 908 444 837 418 c 128,-1,43
 766 392 766 392 702.5 360 c 128,-1,44
 639 328 639 328 559 302 c 128,-1,45
 479 276 479 276 418 276 c 0,0,1
EndSplineSet
EndChar

StartChar: cent
Encoding: 162 162 99
Width: 528
GlyphClass: 2
Flags: W
LayerCount: 2
Fore
SplineSet
473 986 m 2,0,1
 473 926 l 2,2,3
 473 924 473 924 469.5 919 c 128,-1,4
 466 914 466 914 465 914 c 0,5,6
 405 929 405 929 386 931 c 1,7,-1
 386 76 l 1,8,9
 421 79 421 79 465 94 c 0,10,11
 466 94 466 94 470.5 88 c 128,-1,12
 475 82 475 82 475 81 c 2,13,-1
 475 23 l 2,14,15
 475 22 475 22 471 16.5 c 128,-1,16
 467 11 467 11 465 10 c 0,17,18
 438 -3 438 -3 386 -9 c 1,19,-1
 386 -144 l 2,20,21
 386 -194 386 -194 366 -194 c 2,22,-1
 352 -194 l 2,23,24
 332 -194 332 -194 332 -144 c 2,25,-1
 332 -12 l 1,26,27
 292 -10 292 -10 259.5 1.5 c 128,-1,28
 227 13 227 13 192 46.5 c 128,-1,29
 157 80 157 80 134 134.5 c 128,-1,30
 111 189 111 189 95.5 284 c 128,-1,31
 80 379 80 379 80 507 c 0,32,33
 80 634 80 634 95.5 728.5 c 128,-1,34
 111 823 111 823 134 876.5 c 128,-1,35
 157 930 157 930 192 962.5 c 128,-1,36
 227 995 227 995 259.5 1006 c 128,-1,37
 292 1017 292 1017 332 1018 c 1,38,-1
 332 1188 l 2,39,40
 332 1235 332 1235 352 1235 c 2,41,-1
 366 1235 l 2,42,43
 386 1235 386 1235 386 1188 c 2,44,-1
 386 1016 l 1,45,46
 473 1006 473 1006 473 986 c 2,0,1
332 78 m 1,47,-1
 332 929 l 1,48,49
 302 924 302 924 279 905.5 c 128,-1,50
 256 887 256 887 234 844 c 128,-1,51
 212 801 212 801 200 716 c 128,-1,52
 188 631 188 631 188 507 c 0,53,54
 188 386 188 386 199 301.5 c 128,-1,55
 210 217 210 217 231 171.5 c 128,-1,56
 252 126 252 126 276 105 c 128,-1,57
 300 84 300 84 332 78 c 1,47,-1
EndSplineSet
EndChar

StartChar: sterling
Encoding: 163 163 100
Width: 879
GlyphClass: 2
Flags: W
LayerCount: 2
Fore
SplineSet
561 1456 m 0,0,1
 687 1456 687 1456 783 1400 c 0,2,3
 821 1378 821 1378 821 1356 c 0,4,5
 821 1350 821 1350 820 1347 c 2,6,-1
 814 1321 l 1,7,8
 808 1302 808 1302 797 1300.5 c 128,-1,9
 786 1299 786 1299 766 1310 c 0,10,11
 761 1312 761 1312 736 1324 c 128,-1,12
 711 1336 711 1336 694.5 1342.5 c 128,-1,13
 678 1349 678 1349 644.5 1355.5 c 128,-1,14
 611 1362 611 1362 574 1362 c 0,15,16
 519 1362 519 1362 481 1353.5 c 128,-1,17
 443 1345 443 1345 415 1322.5 c 128,-1,18
 387 1300 387 1300 371 1269 c 128,-1,19
 355 1238 355 1238 345 1183 c 128,-1,20
 335 1128 335 1128 332 1066 c 128,-1,21
 329 1004 329 1004 329 910 c 2,22,-1
 329 762 l 1,23,-1
 656 762 l 2,24,25
 686 762 686 762 686 728 c 2,26,-1
 686 711 l 2,27,28
 686 677 686 677 656 677 c 2,29,-1
 327 677 l 1,30,-1
 327 129 l 2,31,32
 327 101 327 101 331.5 94 c 128,-1,33
 336 87 336 87 357 87 c 2,34,-1
 778 87 l 2,35,36
 797 87 797 87 803.5 81.5 c 128,-1,37
 810 76 810 76 810 57 c 2,38,-1
 810 27 l 2,39,40
 810 10 810 10 803.5 5 c 128,-1,41
 797 0 797 0 778 0 c 2,42,-1
 81 0 l 2,43,44
 53 0 53 0 44.5 6 c 128,-1,45
 36 12 36 12 36 32 c 2,46,-1
 36 55 l 2,47,48
 36 75 36 75 44.5 81 c 128,-1,49
 53 87 53 87 81 87 c 2,50,-1
 187 87 l 2,51,52
 205 87 205 87 209.5 91 c 128,-1,53
 214 95 214 95 214 110 c 2,54,-1
 214 634 l 2,55,56
 214 677 214 677 187 677 c 2,57,-1
 68 677 l 2,58,59
 36 677 36 677 36 711 c 2,60,-1
 36 728 l 2,61,62
 36 762 36 762 68 762 c 2,63,-1
 213 762 l 1,64,-1
 213 910 l 2,65,66
 213 988 213 988 215.5 1043 c 128,-1,67
 218 1098 218 1098 226 1159.5 c 128,-1,68
 234 1221 234 1221 249 1262 c 128,-1,69
 264 1303 264 1303 289.5 1342.5 c 128,-1,70
 315 1382 315 1382 352 1405 c 128,-1,71
 389 1428 389 1428 441.5 1442 c 128,-1,72
 494 1456 494 1456 561 1456 c 0,0,1
EndSplineSet
EndChar

StartChar: currency
Encoding: 164 164 101
Width: 1022
GlyphClass: 2
Flags: W
LayerCount: 2
Fore
SplineSet
511 628 m 128,-1,1
 434 628 434 628 378 646 c 128,-1,2
 322 664 322 664 266 701 c 1,3,-1
 242 675 l 1,4,5
 210 643 210 643 195 643 c 0,6,7
 183 643 183 643 175 654 c 1,8,-1
 149 679 l 1,9,10
 138 691 138 691 138 703 c 0,11,12
 138 719 138 719 167 748 c 2,13,-1
 188 769 l 1,14,15
 92 877 92 877 92 1037 c 0,16,17
 92 1198 92 1198 190 1310 c 1,18,-1
 167 1331 l 1,19,20
 136 1362 136 1362 136 1378 c 0,21,22
 136 1388 136 1388 146 1398 c 2,23,-1
 173 1423 l 1,24,25
 182 1435 182 1435 196 1435 c 128,-1,26
 210 1435 210 1435 242 1405 c 1,27,-1
 269 1378 l 1,28,29
 325 1414 325 1414 380 1431.5 c 128,-1,30
 435 1449 435 1449 511 1449 c 0,31,32
 643 1449 643 1449 754 1378 c 1,33,-1
 780 1404 l 2,34,35
 811 1435 811 1435 827 1435 c 0,36,37
 838 1435 838 1435 849 1423 c 1,38,-1
 876 1398 l 1,39,40
 885 1386 885 1386 885 1378 c 0,41,42
 885 1362 885 1362 854 1331 c 1,43,-1
 832 1310 l 1,44,45
 930 1197 930 1197 930 1037 c 0,46,47
 930 879 930 879 834 769 c 1,48,-1
 854 749 l 2,49,50
 885 718 885 718 885 703 c 0,51,52
 885 691 885 691 874 680 c 2,53,-1
 847 654 l 1,54,55
 838 643 838 643 827 643 c 0,56,57
 811 643 811 643 781 675 c 2,58,-1
 756 701 l 1,59,60
 699 664 699 664 643.5 646 c 128,-1,0
 588 628 588 628 511 628 c 128,-1,1
511 704 m 128,-1,62
 597 704 597 704 662.5 733.5 c 128,-1,63
 728 763 728 763 765 812 c 128,-1,64
 802 861 802 861 820.5 917 c 128,-1,65
 839 973 839 973 839 1033 c 0,66,67
 839 1097 839 1097 820.5 1154 c 128,-1,68
 802 1211 802 1211 765 1260 c 128,-1,69
 728 1309 728 1309 662.5 1338 c 128,-1,70
 597 1367 597 1367 511 1367 c 128,-1,71
 425 1367 425 1367 359 1338 c 128,-1,72
 293 1309 293 1309 255.5 1260 c 128,-1,73
 218 1211 218 1211 199.5 1154 c 128,-1,74
 181 1097 181 1097 181 1033 c 0,75,76
 181 973 181 973 199.5 917 c 128,-1,77
 218 861 218 861 255.5 812 c 128,-1,78
 293 763 293 763 359 733.5 c 128,-1,61
 425 704 425 704 511 704 c 128,-1,62
EndSplineSet
EndChar

StartChar: yen
Encoding: 165 165 102
Width: 645
GlyphClass: 2
Flags: W
LayerCount: 2
Fore
SplineSet
290 0 m 2,0,1
 278 0 278 0 272.5 10.5 c 128,-1,2
 267 21 267 21 267 52 c 2,3,-1
 267 370 l 1,4,-1
 141 370 l 2,5,6
 129 370 129 370 125 376.5 c 128,-1,7
 121 383 121 383 121 403 c 2,8,-1
 121 433 l 2,9,10
 121 453 121 453 125 459 c 128,-1,11
 129 465 129 465 141 465 c 2,12,-1
 263 465 l 1,13,-1
 259 567 l 1,14,-1
 141 567 l 2,15,16
 129 567 129 567 125 573 c 128,-1,17
 121 579 121 579 121 599 c 2,18,-1
 121 629 l 2,19,20
 121 649 121 649 125 655.5 c 128,-1,21
 129 662 129 662 141 662 c 2,22,-1
 243 662 l 1,23,-1
 47 1380 l 1,24,25
 40 1401 40 1401 40 1416 c 0,26,27
 40 1438 40 1438 60 1438 c 2,28,-1
 115 1438 l 2,29,30
 145 1438 145 1438 156 1396 c 2,31,-1
 325 729 l 1,32,-1
 330 729 l 1,33,-1
 500 1396 l 1,34,35
 504 1416 504 1416 515 1427 c 128,-1,36
 526 1438 526 1438 538 1438 c 2,37,-1
 586 1438 l 2,38,39
 605 1438 605 1438 605 1414 c 0,40,41
 605 1396 605 1396 600 1380 c 2,42,-1
 404 662 l 1,43,-1
 499 662 l 2,44,45
 511 662 511 662 515.5 655.5 c 128,-1,46
 520 649 520 649 520 629 c 2,47,-1
 520 599 l 2,48,49
 520 580 520 580 515.5 573.5 c 128,-1,50
 511 567 511 567 499 567 c 2,51,-1
 388 567 l 1,52,-1
 384 465 l 1,53,-1
 497 465 l 2,54,55
 509 465 509 465 514 458.5 c 128,-1,56
 519 452 519 452 519 433 c 2,57,-1
 519 403 l 2,58,59
 519 384 519 384 514 377 c 128,-1,60
 509 370 509 370 497 370 c 2,61,-1
 381 370 l 1,62,-1
 381 52 l 2,63,64
 381 21 381 21 375.5 10.5 c 128,-1,65
 370 0 370 0 358 0 c 2,66,-1
 290 0 l 2,0,1
EndSplineSet
EndChar

StartChar: brokenbar
Encoding: 166 166 103
Width: 428
GlyphClass: 2
Flags: W
LayerCount: 2
Fore
SplineSet
195 -90 m 2,0,1
 183 -90 183 -90 177.5 -79.5 c 128,-1,2
 172 -69 172 -69 172 -39 c 2,3,-1
 172 550 l 2,4,5
 172 580 172 580 177.5 590.5 c 128,-1,6
 183 601 183 601 195 601 c 2,7,-1
 232 601 l 2,8,9
 244 601 244 601 250 590.5 c 128,-1,10
 256 580 256 580 256 550 c 2,11,-1
 256 -39 l 2,12,13
 256 -69 256 -69 250 -79.5 c 128,-1,14
 244 -90 244 -90 232 -90 c 2,15,-1
 195 -90 l 2,0,1
195 831 m 2,16,17
 183 831 183 831 177.5 841.5 c 128,-1,18
 172 852 172 852 172 882 c 2,19,-1
 172 1474 l 2,20,21
 172 1504 172 1504 177.5 1514.5 c 128,-1,22
 183 1525 183 1525 195 1525 c 2,23,-1
 232 1525 l 2,24,25
 244 1525 244 1525 250 1514.5 c 128,-1,26
 256 1504 256 1504 256 1474 c 2,27,-1
 256 882 l 2,28,29
 256 852 256 852 250 841.5 c 128,-1,30
 244 831 244 831 232 831 c 2,31,-1
 195 831 l 2,16,17
EndSplineSet
EndChar

StartChar: section
Encoding: 167 167 104
Width: 731
GlyphClass: 2
Flags: W
LayerCount: 2
Fore
SplineSet
368 -14 m 0,0,1
 223 -14 223 -14 120 93 c 1,2,3
 115 96 115 96 115 121 c 0,4,5
 115 123 115 123 131 158 c 1,6,7
 132 164 132 164 143 169 c 128,-1,8
 154 174 154 174 158 172 c 1,9,10
 209 120 209 120 258.5 94.5 c 128,-1,11
 308 69 308 69 373 69 c 0,12,13
 452 69 452 69 493.5 123 c 128,-1,14
 535 177 535 177 535 258 c 0,15,16
 535 338 535 338 493.5 385.5 c 128,-1,17
 452 433 452 433 372 470 c 0,18,19
 328 490 328 490 301 504.5 c 128,-1,20
 274 519 274 519 240.5 545 c 128,-1,21
 207 571 207 571 188 599 c 128,-1,22
 169 627 169 627 156 669.5 c 128,-1,23
 143 712 143 712 143 765 c 0,24,25
 143 903 143 903 243 966 c 1,26,27
 143 1052 143 1052 143 1193 c 0,28,29
 143 1317 143 1317 210 1384 c 128,-1,30
 277 1451 277 1451 377 1451 c 0,31,32
 497 1451 497 1451 581 1373 c 0,33,34
 583 1372 583 1372 586 1362 c 128,-1,35
 589 1352 589 1352 589 1349 c 0,36,37
 589 1347 589 1347 569 1309 c 1,38,39
 568 1304 568 1304 558.5 1300.5 c 128,-1,40
 549 1297 549 1297 545 1299 c 1,41,42
 506 1335 506 1335 472 1351.5 c 128,-1,43
 438 1368 438 1368 384 1368 c 0,44,45
 309 1368 309 1368 272 1320.5 c 128,-1,46
 235 1273 235 1273 235 1201 c 0,47,48
 235 1126 235 1126 269 1083.5 c 128,-1,49
 303 1041 303 1041 384 1003 c 0,50,51
 430 982 430 982 459.5 966.5 c 128,-1,52
 489 951 489 951 524 924 c 128,-1,53
 559 897 559 897 579 867 c 128,-1,54
 599 837 599 837 612.5 791.5 c 128,-1,55
 626 746 626 746 626 690 c 0,56,57
 626 558 626 558 533 488 c 1,58,59
 626 397 626 397 626 262 c 0,60,61
 626 136 626 136 560 61 c 128,-1,62
 494 -14 494 -14 368 -14 c 0,0,1
468 537 m 1,63,64
 501 555 501 555 521.5 597 c 128,-1,65
 542 639 542 639 542 688 c 0,66,67
 542 768 542 768 499.5 814 c 128,-1,68
 457 860 457 860 372 898 c 1,69,70
 340 907 340 907 312 920 c 1,71,72
 272 904 272 904 250.5 865.5 c 128,-1,73
 229 827 229 827 229 774 c 0,74,75
 229 702 229 702 266 658 c 128,-1,76
 303 614 303 614 384 575 c 1,77,78
 402 568 402 568 433 553.5 c 128,-1,79
 464 539 464 539 468 537 c 1,63,64
EndSplineSet
EndChar

StartChar: dieresis
Encoding: 168 168 105
Width: 273
GlyphClass: 2
Flags: W
LayerCount: 2
Fore
SplineSet
85 0 m 2,0,1
 74 0 74 0 66 16 c 128,-1,2
 58 32 58 32 58 57 c 2,3,-1
 58 83 l 2,4,5
 58 108 58 108 66 124 c 128,-1,6
 74 140 74 140 85 140 c 2,7,-1
 134 140 l 2,8,9
 145 140 145 140 153 124 c 128,-1,10
 161 108 161 108 161 83 c 2,11,-1
 161 57 l 2,12,13
 161 32 161 32 153 16 c 128,-1,14
 145 0 145 0 134 0 c 2,15,-1
 85 0 l 2,0,1
305 0 m 2,16,17
 294 0 294 0 287 16 c 128,-1,18
 280 32 280 32 280 57 c 2,19,-1
 280 83 l 2,20,21
 280 108 280 108 287 124 c 128,-1,22
 294 140 294 140 305 140 c 2,23,-1
 353 140 l 2,24,25
 364 140 364 140 372 124 c 128,-1,26
 380 108 380 108 380 83 c 2,27,-1
 380 57 l 2,28,29
 380 32 380 32 372 16 c 128,-1,30
 364 0 364 0 353 0 c 2,31,-1
 305 0 l 2,16,17
EndSplineSet
EndChar

StartChar: copyright
Encoding: 169 169 106
Width: 1348
GlyphClass: 2
Flags: W
LayerCount: 2
Fore
SplineSet
694 338 m 0,0,1
 561 338 561 338 475 438 c 128,-1,2
 389 538 389 538 389 728 c 0,3,4
 389 828 389 828 415 904.5 c 128,-1,5
 441 981 441 981 485 1024.5 c 128,-1,6
 529 1068 529 1068 580.5 1090 c 128,-1,7
 632 1112 632 1112 688 1112 c 0,8,9
 803 1112 803 1112 877 1045 c 0,10,11
 883 1040 883 1040 883 1024 c 128,-1,12
 883 1008 883 1008 874 992 c 128,-1,13
 865 976 865 976 855 976 c 0,14,15
 854 976 854 976 850 978 c 0,16,17
 771 1034 771 1034 702 1034 c 0,18,19
 599 1034 599 1034 537 954 c 128,-1,20
 475 874 475 874 475 727 c 0,21,22
 475 573 475 573 537 495 c 128,-1,23
 599 417 599 417 699 417 c 0,24,25
 712 417 712 417 723.5 418 c 128,-1,26
 735 419 735 419 747 422 c 128,-1,27
 759 425 759 425 765.5 426.5 c 128,-1,28
 772 428 772 428 785 434 c 128,-1,29
 798 440 798 440 802 441.5 c 128,-1,30
 806 443 806 443 821.5 451 c 128,-1,31
 837 459 837 459 840 461 c 2,32,-1
 846 463 l 1,33,34
 858 463 858 463 868 448 c 128,-1,35
 878 433 878 433 878 415 c 0,36,37
 878 395 878 395 865 388 c 0,38,39
 813 359 813 359 781 348.5 c 128,-1,40
 749 338 749 338 694 338 c 0,0,1
676 64 m 128,-1,42
 782 64 782 64 867.5 102 c 128,-1,43
 953 140 953 140 1008.5 202.5 c 128,-1,44
 1064 265 1064 265 1101 350 c 128,-1,45
 1138 435 1138 435 1154 526 c 128,-1,46
 1170 617 1170 617 1170 715 c 0,47,48
 1170 817 1170 817 1154 909.5 c 128,-1,49
 1138 1002 1138 1002 1101 1088 c 128,-1,50
 1064 1174 1064 1174 1008.5 1237 c 128,-1,51
 953 1300 953 1300 867.5 1337.5 c 128,-1,52
 782 1375 782 1375 676 1375 c 128,-1,53
 570 1375 570 1375 484.5 1337.5 c 128,-1,54
 399 1300 399 1300 343.5 1237 c 128,-1,55
 288 1174 288 1174 251 1088 c 128,-1,56
 214 1002 214 1002 198 909.5 c 128,-1,57
 182 817 182 817 182 715 c 0,58,59
 182 617 182 617 198 526 c 128,-1,60
 214 435 214 435 251 350 c 128,-1,61
 288 265 288 265 343.5 202.5 c 128,-1,62
 399 140 399 140 484.5 102 c 128,-1,41
 570 64 570 64 676 64 c 128,-1,42
674 -14 m 128,-1,64
 526 -14 526 -14 412 45.5 c 128,-1,65
 298 105 298 105 229 208 c 128,-1,66
 160 311 160 311 125.5 440.5 c 128,-1,67
 91 570 91 570 91 719 c 0,68,69
 91 837 91 837 112 944 c 128,-1,70
 133 1051 133 1051 179 1144.5 c 128,-1,71
 225 1238 225 1238 292.5 1306 c 128,-1,72
 360 1374 360 1374 457.5 1413.5 c 128,-1,73
 555 1453 555 1453 674 1453 c 128,-1,74
 793 1453 793 1453 891 1413.5 c 128,-1,75
 989 1374 989 1374 1056 1306 c 128,-1,76
 1123 1238 1123 1238 1169 1144.5 c 128,-1,77
 1215 1051 1215 1051 1236 944.5 c 128,-1,78
 1257 838 1257 838 1257 719 c 0,79,80
 1257 569 1257 569 1222.5 440 c 128,-1,81
 1188 311 1188 311 1119.5 208 c 128,-1,82
 1051 105 1051 105 936.5 45.5 c 128,-1,63
 822 -14 822 -14 674 -14 c 128,-1,64
EndSplineSet
EndChar

StartChar: ordfeminine
Encoding: 170 170 107
Width: 669
GlyphClass: 2
Flags: W
LayerCount: 2
Fore
SplineSet
287 614 m 0,0,1
 204 614 204 614 164 666.5 c 128,-1,2
 124 719 124 719 124 814 c 0,3,4
 124 882 124 882 145 934 c 128,-1,5
 166 986 166 986 197 1014.5 c 128,-1,6
 228 1043 228 1043 269 1063.5 c 128,-1,7
 310 1084 310 1084 342.5 1091 c 128,-1,8
 375 1098 375 1098 407 1103.5 c 128,-1,9
 439 1109 439 1109 446 1112 c 1,10,-1
 446 1158 l 2,11,12
 446 1208 446 1208 442.5 1242 c 128,-1,13
 439 1276 439 1276 428.5 1307.5 c 128,-1,14
 418 1339 418 1339 396 1355 c 128,-1,15
 374 1371 374 1371 340 1371 c 0,16,17
 309 1371 309 1371 287 1362.5 c 128,-1,18
 265 1354 265 1354 250.5 1334 c 128,-1,19
 236 1314 236 1314 227.5 1296 c 128,-1,20
 219 1278 219 1278 208 1244 c 0,21,22
 199 1218 199 1218 184 1222 c 1,23,24
 142 1230 142 1230 139 1244 c 1,25,26
 135 1255 135 1255 143 1280 c 0,27,28
 166 1357 166 1357 210 1397.5 c 128,-1,29
 254 1438 254 1438 342 1438 c 0,30,31
 441 1438 441 1438 486 1367 c 128,-1,32
 531 1296 531 1296 531 1136 c 2,33,-1
 531 661 l 2,34,35
 531 621 531 621 516 621 c 2,36,-1
 505 621 l 2,37,38
 492 621 492 621 486 654 c 0,39,40
 485 663 485 663 476 717.5 c 128,-1,41
 467 772 467 772 466 788 c 1,42,43
 464 800 464 800 460 788 c 1,44,45
 424 614 424 614 287 614 c 0,0,1
300 680 m 0,46,47
 373 680 373 680 410.5 770.5 c 128,-1,48
 448 861 448 861 448 1002 c 0,49,50
 448 1052 448 1052 443 1052 c 0,51,52
 442 1052 442 1052 419 1049 c 128,-1,53
 396 1046 396 1046 395 1045 c 0,54,55
 285 1023 285 1023 242 966 c 128,-1,56
 199 909 199 909 199 822 c 0,57,58
 199 680 199 680 300 680 c 0,46,47
EndSplineSet
EndChar

StartChar: guillemotleft
Encoding: 171 171 108
Width: 714
GlyphClass: 2
Flags: W
LayerCount: 2
Fore
SplineSet
376 235 m 0,0,1
 374 235 374 235 308 301 c 0,2,3
 82 527 82 527 82 537 c 1,4,5
 62 556 62 556 62 616 c 0,6,7
 62 678 62 678 67 682 c 1,8,9
 67 705 67 705 143 785 c 0,10,11
 144 785 144 785 364 1018 c 0,12,13
 366 1020 366 1020 371 1020 c 128,-1,14
 376 1020 376 1020 378 1015 c 1,15,16
 387 1015 387 1015 387 956 c 0,17,18
 387 929 387 929 382 922 c 1,19,20
 382 912 382 912 378.5 902 c 128,-1,21
 375 892 375 892 367.5 882.5 c 128,-1,22
 360 873 360 873 354.5 866.5 c 128,-1,23
 349 860 349 860 340 851 c 128,-1,24
 331 842 331 842 329 840 c 128,-1,25
 327 838 327 838 231.5 735.5 c 128,-1,26
 136 633 136 633 136 632 c 0,27,28
 133 627 133 627 135 618 c 0,29,30
 135 614 135 614 172 577 c 0,31,32
 173 576 173 576 222.5 525.5 c 128,-1,33
 272 475 272 475 320 424.5 c 128,-1,34
 368 374 368 374 368 370 c 1,35,36
 387 351 387 351 387 290 c 0,37,38
 387 258 387 258 384 258 c 1,39,40
 383 233 383 233 376 235 c 0,0,1
647 234 m 2,41,42
 644 234 644 234 614 264.5 c 128,-1,43
 584 295 584 295 579 301 c 1,44,45
 572 306 572 306 462.5 418.5 c 128,-1,46
 353 531 353 531 353 537 c 1,47,48
 332 557 332 557 332 616 c 0,49,50
 332 678 332 678 337 682 c 1,51,52
 337 704 337 704 414 785 c 2,53,-1
 635 1018 l 2,54,55
 637 1020 637 1020 642 1020 c 0,56,57
 646 1020 646 1020 649 1015 c 1,58,59
 657 1015 657 1015 657 956 c 0,60,61
 657 930 657 930 653 922 c 1,62,63
 653 912 653 912 649.5 902 c 128,-1,64
 646 892 646 892 638.5 882.5 c 128,-1,65
 631 873 631 873 625.5 866.5 c 128,-1,66
 620 860 620 860 611 851 c 128,-1,67
 602 842 602 842 600 840 c 128,-1,68
 598 838 598 838 502.5 735.5 c 128,-1,69
 407 633 407 633 407 632 c 0,70,71
 405 628 405 628 405 618 c 0,72,73
 405 615 405 615 443 577 c 0,74,75
 444 576 444 576 493 525.5 c 128,-1,76
 542 475 542 475 590 424.5 c 128,-1,77
 638 374 638 374 638 370 c 1,78,79
 657 351 657 351 657 290 c 0,80,81
 657 258 657 258 654 258 c 1,82,83
 654 234 654 234 648 234 c 2,84,-1
 647 234 l 2,41,42
EndSplineSet
EndChar

StartChar: logicalnot
Encoding: 172 172 109
Width: 895
GlyphClass: 2
Flags: W
LayerCount: 2
Fore
SplineSet
713 288 m 2,0,1
 693 288 693 288 683.5 299 c 128,-1,2
 674 310 674 310 674 339 c 2,3,-1
 674 547 l 2,4,5
 674 572 674 572 654 572 c 2,6,-1
 171 572 l 2,7,8
 152 572 152 572 142.5 580.5 c 128,-1,9
 133 589 133 589 133 613 c 2,10,-1
 133 636 l 2,11,12
 133 660 133 660 142.5 668.5 c 128,-1,13
 152 677 152 677 171 677 c 2,14,-1
 737 677 l 2,15,16
 777 677 777 677 777 635 c 2,17,-1
 777 339 l 2,18,19
 777 310 777 310 768 299 c 128,-1,20
 759 288 759 288 740 288 c 2,21,-1
 713 288 l 2,0,1
EndSplineSet
EndChar

StartChar: uni00AD
Encoding: 173 173 110
Width: 540
GlyphClass: 2
Flags: W
LayerCount: 2
Fore
SplineSet
98 590 m 2,0,1
 86 590 86 590 80.5 594 c 128,-1,2
 75 598 75 598 75 615 c 2,3,-1
 75 623 l 2,4,5
 75 636 75 636 78.5 642 c 128,-1,6
 82 648 82 648 86 649 c 128,-1,7
 90 650 90 650 98 650 c 2,8,-1
 462 650 l 2,9,10
 474 650 474 650 479.5 646 c 128,-1,11
 485 642 485 642 485 625 c 2,12,-1
 485 617 l 2,13,14
 485 604 485 604 481.5 598 c 128,-1,15
 478 592 478 592 474 591 c 128,-1,16
 470 590 470 590 462 590 c 2,17,-1
 98 590 l 2,0,1
EndSplineSet
EndChar

StartChar: registered
Encoding: 174 174 111
Width: 1348
GlyphClass: 2
Flags: W
LayerCount: 2
Fore
SplineSet
486 334 m 2,0,1
 470 334 470 334 470 360 c 2,2,-1
 470 1090 l 2,3,4
 470 1118 470 1118 486 1118 c 2,5,-1
 647 1118 l 2,6,7
 694 1118 694 1118 722.5 1116 c 128,-1,8
 751 1114 751 1114 786.5 1103 c 128,-1,9
 822 1092 822 1092 841.5 1072 c 128,-1,10
 861 1052 861 1052 875 1014 c 128,-1,11
 889 976 889 976 889 921 c 0,12,13
 889 764 889 764 784 742 c 0,14,15
 778 740 778 740 785 736 c 1,16,17
 832 719 832 719 859.5 684.5 c 128,-1,18
 887 650 887 650 888 571 c 1,19,20
 888 365 l 2,21,22
 888 334 888 334 875 334 c 2,23,-1
 828 334 l 2,24,25
 814 334 814 334 813 368 c 0,26,27
 813 389 813 389 810.5 493.5 c 128,-1,28
 808 598 808 598 807 600 c 0,29,30
 804 670 804 670 770.5 690 c 128,-1,31
 737 710 737 710 665 710 c 2,32,-1
 553 710 l 2,33,34
 548 710 548 710 548 700 c 2,35,-1
 548 360 l 2,36,37
 548 334 548 334 533 334 c 2,38,-1
 486 334 l 2,0,1
552 777 m 2,39,-1
 672 777 l 2,40,41
 714 777 714 777 738 781.5 c 128,-1,42
 762 786 762 786 781 800.5 c 128,-1,43
 800 815 800 815 807.5 843.5 c 128,-1,44
 815 872 815 872 815 920 c 0,45,46
 815 960 815 960 807 986 c 128,-1,47
 799 1012 799 1012 788 1026.5 c 128,-1,48
 777 1041 777 1041 752.5 1047.5 c 128,-1,49
 728 1054 728 1054 709 1055.5 c 128,-1,50
 690 1057 690 1057 651 1057 c 2,51,-1
 553 1057 l 2,52,53
 548 1057 548 1057 548 1049 c 2,54,-1
 548 784 l 2,55,56
 548 777 548 777 552 777 c 2,39,-1
676 64 m 128,-1,58
 782 64 782 64 867.5 102 c 128,-1,59
 953 140 953 140 1008.5 202.5 c 128,-1,60
 1064 265 1064 265 1101 350 c 128,-1,61
 1138 435 1138 435 1154 526 c 128,-1,62
 1170 617 1170 617 1170 715 c 0,63,64
 1170 817 1170 817 1154 909.5 c 128,-1,65
 1138 1002 1138 1002 1101 1088 c 128,-1,66
 1064 1174 1064 1174 1008.5 1237 c 128,-1,67
 953 1300 953 1300 867.5 1337.5 c 128,-1,68
 782 1375 782 1375 676 1375 c 128,-1,69
 570 1375 570 1375 484.5 1337.5 c 128,-1,70
 399 1300 399 1300 343.5 1237 c 128,-1,71
 288 1174 288 1174 251 1088 c 128,-1,72
 214 1002 214 1002 198 909.5 c 128,-1,73
 182 817 182 817 182 715 c 0,74,75
 182 617 182 617 198 526 c 128,-1,76
 214 435 214 435 251 350 c 128,-1,77
 288 265 288 265 343.5 202.5 c 128,-1,78
 399 140 399 140 484.5 102 c 128,-1,57
 570 64 570 64 676 64 c 128,-1,58
674 -14 m 128,-1,80
 526 -14 526 -14 412 45.5 c 128,-1,81
 298 105 298 105 229 208 c 128,-1,82
 160 311 160 311 125.5 440.5 c 128,-1,83
 91 570 91 570 91 719 c 0,84,85
 91 837 91 837 112 944 c 128,-1,86
 133 1051 133 1051 179 1144.5 c 128,-1,87
 225 1238 225 1238 292.5 1306 c 128,-1,88
 360 1374 360 1374 457.5 1413.5 c 128,-1,89
 555 1453 555 1453 674 1453 c 128,-1,90
 793 1453 793 1453 891 1413.5 c 128,-1,91
 989 1374 989 1374 1056 1306 c 128,-1,92
 1123 1238 1123 1238 1169 1144.5 c 128,-1,93
 1215 1051 1215 1051 1236 944.5 c 128,-1,94
 1257 838 1257 838 1257 719 c 0,95,96
 1257 569 1257 569 1222.5 440 c 128,-1,97
 1188 311 1188 311 1119.5 208 c 128,-1,98
 1051 105 1051 105 936.5 45.5 c 128,-1,79
 822 -14 822 -14 674 -14 c 128,-1,80
EndSplineSet
EndChar

StartChar: macron
Encoding: 175 175 112
Width: 648
GlyphClass: 2
Flags: W
LayerCount: 2
Fore
SplineSet
152 217 m 2,0,1
 138 217 138 217 131.5 223 c 128,-1,2
 125 229 125 229 125 247 c 2,3,-1
 125 262 l 2,4,5
 125 281 125 281 131.5 287.5 c 128,-1,6
 138 294 138 294 152 294 c 2,7,-1
 514 294 l 2,8,9
 528 294 528 294 534.5 288 c 128,-1,10
 541 282 541 282 541 264 c 2,11,-1
 541 249 l 2,12,13
 541 229 541 229 534.5 223 c 128,-1,14
 528 217 528 217 514 217 c 2,15,-1
 152 217 l 2,0,1
EndSplineSet
EndChar

StartChar: degree
Encoding: 176 176 113
Width: 647
GlyphClass: 2
Flags: W
LayerCount: 2
Fore
SplineSet
324 1160 m 128,-1,1
 361 1160 361 1160 390.5 1186.5 c 128,-1,2
 420 1213 420 1213 420 1274 c 0,3,4
 420 1339 420 1339 390 1364 c 128,-1,5
 360 1389 360 1389 324 1389 c 0,6,7
 286 1389 286 1389 257 1364 c 128,-1,8
 228 1339 228 1339 228 1274 c 0,9,10
 228 1214 228 1214 257.5 1187 c 128,-1,0
 287 1160 287 1160 324 1160 c 128,-1,1
324 1112 m 0,11,12
 300 1112 300 1112 275.5 1119.5 c 128,-1,13
 251 1127 251 1127 225.5 1143.5 c 128,-1,14
 200 1160 200 1160 184 1194 c 128,-1,15
 168 1228 168 1228 168 1274 c 0,16,17
 168 1322 168 1322 183.5 1356.5 c 128,-1,18
 199 1391 199 1391 224 1407.5 c 128,-1,19
 249 1424 249 1424 273.5 1431 c 128,-1,20
 298 1438 298 1438 324 1438 c 0,21,22
 349 1438 349 1438 373 1431 c 128,-1,23
 397 1424 397 1424 422 1407.5 c 128,-1,24
 447 1391 447 1391 462.5 1356.5 c 128,-1,25
 478 1322 478 1322 478 1274 c 0,26,27
 478 1237 478 1237 467 1207.5 c 128,-1,28
 456 1178 456 1178 439.5 1160.5 c 128,-1,29
 423 1143 423 1143 401 1131.5 c 128,-1,30
 379 1120 379 1120 360.5 1116 c 128,-1,31
 342 1112 342 1112 324 1112 c 0,11,12
EndSplineSet
EndChar

StartChar: plusminus
Encoding: 177 177 114
Width: 801
GlyphClass: 2
Flags: W
LayerCount: 2
Fore
SplineSet
395 336 m 2,0,1
 378 336 378 336 370 344.5 c 128,-1,2
 362 353 362 353 362 381 c 2,3,-1
 362 579 l 2,4,5
 362 593 362 593 358.5 597 c 128,-1,6
 355 601 355 601 347 601 c 2,7,-1
 159 601 l 2,8,9
 144 601 144 601 136 608 c 128,-1,10
 128 615 128 615 128 638 c 2,11,-1
 128 653 l 2,12,13
 128 669 128 669 132.5 677.5 c 128,-1,14
 137 686 137 686 143 688 c 128,-1,15
 149 690 149 690 159 690 c 2,16,-1
 347 690 l 2,17,18
 355 690 355 690 358.5 694 c 128,-1,19
 362 698 362 698 362 712 c 2,20,-1
 362 905 l 2,21,22
 362 933 362 933 370 941.5 c 128,-1,23
 378 950 378 950 395 950 c 2,24,-1
 427 950 l 2,25,26
 443 950 443 950 450.5 941.5 c 128,-1,27
 458 933 458 933 458 905 c 2,28,-1
 458 712 l 2,29,30
 458 698 458 698 462 694 c 128,-1,31
 466 690 466 690 475 690 c 2,32,-1
 660 690 l 2,33,34
 675 690 675 690 683 683 c 128,-1,35
 691 676 691 676 691 653 c 2,36,-1
 691 638 l 2,37,38
 691 622 691 622 686 613.5 c 128,-1,39
 681 605 681 605 675 603 c 128,-1,40
 669 601 669 601 660 601 c 2,41,-1
 475 601 l 2,42,43
 466 601 466 601 462 597 c 128,-1,44
 458 593 458 593 458 579 c 2,45,-1
 458 381 l 2,46,47
 458 353 458 353 450.5 344.5 c 128,-1,48
 443 336 443 336 427 336 c 2,49,-1
 395 336 l 2,0,1
158 95 m 2,50,51
 143 95 143 95 135 102 c 128,-1,52
 127 109 127 109 127 132 c 2,53,-1
 127 147 l 2,54,55
 127 163 127 163 131.5 171.5 c 128,-1,56
 136 180 136 180 142 182 c 128,-1,57
 148 184 148 184 158 184 c 2,58,-1
 660 184 l 2,59,60
 675 184 675 184 683 177 c 128,-1,61
 691 170 691 170 691 147 c 2,62,-1
 691 132 l 2,63,64
 691 116 691 116 686 107.5 c 128,-1,65
 681 99 681 99 675 97 c 128,-1,66
 669 95 669 95 660 95 c 2,67,-1
 158 95 l 2,50,51
EndSplineSet
EndChar

StartChar: acute
Encoding: 180 180 115
Width: 596
GlyphClass: 2
Flags: W
LayerCount: 2
Fore
SplineSet
376 1167 m 2,0,1
 361 1167 361 1167 361 1199 c 0,2,3
 361 1220 361 1220 362 1234 c 2,4,-1
 383 1548 l 2,5,6
 385 1580 385 1580 391 1591.5 c 128,-1,7
 397 1603 397 1603 409 1603 c 2,8,-1
 472 1603 l 2,9,10
 482 1603 482 1603 482 1575 c 0,11,12
 482 1562 482 1562 478 1538 c 2,13,-1
 416 1206 l 2,14,15
 409 1167 409 1167 396 1167 c 2,16,-1
 376 1167 l 2,0,1
EndSplineSet
EndChar

StartChar: paragraph
Encoding: 182 182 116
Width: 1002
GlyphClass: 2
Flags: W
LayerCount: 2
Fore
SplineSet
530 -1 m 2,0,1
 505 -1 505 -1 496.5 16 c 128,-1,2
 488 33 488 33 488 68 c 2,3,-1
 488 863 l 1,4,-1
 467 863 l 2,5,6
 412 863 412 863 362.5 872 c 128,-1,7
 313 881 313 881 266 902 c 128,-1,8
 219 923 219 923 184.5 955 c 128,-1,9
 150 987 150 987 129.5 1036.5 c 128,-1,10
 109 1086 109 1086 109 1149 c 0,11,12
 109 1303 109 1303 212 1370.5 c 128,-1,13
 315 1438 315 1438 547 1438 c 0,14,15
 732 1438 732 1438 824 1415 c 0,16,17
 848 1409 848 1409 855 1396.5 c 128,-1,18
 862 1384 862 1384 862 1359 c 2,19,20
 862 1337 l 1,21,-1
 862 68 l 2,22,23
 862 33 862 33 853 16 c 128,-1,24
 844 -1 844 -1 819 -1 c 2,25,-1
 806 -1 l 2,26,27
 781 -1 781 -1 772.5 16 c 128,-1,28
 764 33 764 33 764 68 c 2,29,-1
 764 842 l 2,30,31
 764 851 764 851 758.5 857 c 128,-1,32
 753 863 753 863 745 863 c 2,33,-1
 588 863 l 1,34,-1
 588 68 l 2,35,36
 588 33 588 33 579.5 16 c 128,-1,37
 571 -1 571 -1 546 -1 c 2,38,-1
 530 -1 l 2,0,1
EndSplineSet
EndChar

StartChar: cedilla
Encoding: 184 184 117
Width: 339
GlyphClass: 2
Flags: W
LayerCount: 2
Fore
SplineSet
190 -606 m 0,0,1
 140 -606 140 -606 106 -567 c 128,-1,2
 72 -528 72 -528 72 -452 c 0,3,4
 72 -361 72 -361 93 -361 c 2,5,-1
 124 -361 l 2,6,7
 138 -361 138 -361 138 -395 c 0,8,9
 138 -406 138 -406 136.5 -425 c 128,-1,10
 135 -444 135 -444 135 -448 c 0,11,12
 135 -489 135 -489 150.5 -516 c 128,-1,13
 166 -543 166 -543 195 -543 c 0,14,15
 253 -543 253 -543 253 -395 c 0,16,17
 253 -339 253 -339 230.5 -278.5 c 128,-1,18
 208 -218 208 -218 190 -218 c 2,19,-1
 172 -218 l 1,20,-1
 170 -218 l 2,21,22
 168 -218 168 -218 166.5 -215.5 c 128,-1,23
 165 -213 165 -213 165 -208 c 2,24,-1
 165 -161 l 2,25,26
 165 -144 165 -144 172 -144 c 2,27,-1
 209 -144 l 2,28,29
 247 -144 247 -144 281.5 -221.5 c 128,-1,30
 316 -299 316 -299 316 -383 c 0,31,32
 316 -500 316 -500 287 -553 c 128,-1,33
 258 -606 258 -606 190 -606 c 0,0,1
EndSplineSet
EndChar

StartChar: ordmasculine
Encoding: 186 186 118
Width: 702
GlyphClass: 2
Flags: W
LayerCount: 2
Fore
SplineSet
352 681 m 0,0,1
 382 681 382 681 403 693.5 c 128,-1,2
 424 706 424 706 443.5 741 c 128,-1,3
 463 776 463 776 472.5 847 c 128,-1,4
 482 918 482 918 482 1026 c 0,5,6
 482 1116 482 1116 475 1180.5 c 128,-1,7
 468 1245 468 1245 456.5 1281 c 128,-1,8
 445 1317 445 1317 427 1337.5 c 128,-1,9
 409 1358 409 1358 392 1364 c 128,-1,10
 375 1370 375 1370 352 1370 c 0,11,12
 328 1370 328 1370 311 1364 c 128,-1,13
 294 1358 294 1358 276 1337 c 128,-1,14
 258 1316 258 1316 246.5 1280 c 128,-1,15
 235 1244 235 1244 228 1179.5 c 128,-1,16
 221 1115 221 1115 221 1026 c 0,17,18
 221 919 221 919 230.5 848 c 128,-1,19
 240 777 240 777 259 742 c 128,-1,20
 278 707 278 707 299.5 694 c 128,-1,21
 321 681 321 681 352 681 c 0,0,1
353 613 m 0,22,23
 318 613 318 613 290.5 621 c 128,-1,24
 263 629 263 629 232.5 654.5 c 128,-1,25
 202 680 202 680 181.5 723.5 c 128,-1,26
 161 767 161 767 147.5 844.5 c 128,-1,27
 134 922 134 922 134 1026 c 0,28,29
 134 1132 134 1132 147 1209 c 128,-1,30
 160 1286 160 1286 180 1329.5 c 128,-1,31
 200 1373 200 1373 230.5 1398 c 128,-1,32
 261 1423 261 1423 289 1430.5 c 128,-1,33
 317 1438 317 1438 353 1438 c 128,-1,34
 389 1438 389 1438 416.5 1430.5 c 128,-1,35
 444 1423 444 1423 474 1398 c 128,-1,36
 504 1373 504 1373 523.5 1329.5 c 128,-1,37
 543 1286 543 1286 555.5 1209 c 128,-1,38
 568 1132 568 1132 568 1026 c 0,39,40
 568 939 568 939 559.5 870.5 c 128,-1,41
 551 802 551 802 534.5 758 c 128,-1,42
 518 714 518 714 498.5 684.5 c 128,-1,43
 479 655 479 655 453 640 c 128,-1,44
 427 625 427 625 404 619 c 128,-1,45
 381 613 381 613 353 613 c 0,22,23
EndSplineSet
EndChar

StartChar: guillemotright
Encoding: 187 187 119
Width: 714
GlyphClass: 2
Flags: W
LayerCount: 2
Fore
SplineSet
71 233 m 0,0,1
 62 233 62 233 62 268 c 2,2,-1
 62 319 l 2,3,4
 62 350 62 350 66.5 361.5 c 128,-1,5
 71 373 71 373 86 388 c 2,6,-1
 311 604 l 2,7,8
 315 608 315 608 315 617 c 0,9,10
 315 627 315 627 311 631 c 2,11,-1
 85 867 l 1,12,13
 71 884 71 884 66.5 896.5 c 128,-1,14
 62 909 62 909 62 940 c 2,15,-1
 62 984 l 2,16,17
 62 1024 62 1024 73 1024 c 0,18,19
 79 1024 79 1024 86 1016 c 2,20,-1
 361 727 l 2,21,22
 387 701 387 701 387 657 c 2,23,-1
 387 581 l 2,24,25
 387 535 387 535 362 512 c 2,26,-1
 85 243 l 1,27,28
 73 233 73 233 71 233 c 0,0,1
342 233 m 0,29,30
 332 233 332 233 332 268 c 2,31,-1
 332 319 l 2,32,33
 332 349 332 349 336.5 360.5 c 128,-1,34
 341 372 341 372 356 388 c 1,35,-1
 581 604 l 2,36,37
 585 608 585 608 585 617 c 0,38,39
 585 628 585 628 582 631 c 2,40,-1
 356 867 l 2,41,42
 341 884 341 884 336.5 896.5 c 128,-1,43
 332 909 332 909 332 940 c 2,44,-1
 332 984 l 2,45,46
 332 1024 332 1024 344 1024 c 0,47,48
 349 1024 349 1024 356 1016 c 2,49,-1
 632 727 l 2,50,51
 657 701 657 701 657 657 c 2,52,-1
 657 581 l 2,53,54
 657 535 657 535 632 512 c 2,55,-1
 355 243 l 2,56,57
 345 233 345 233 342 233 c 0,29,30
EndSplineSet
EndChar

StartChar: onequarter
Encoding: 188 188 120
Width: 1727
GlyphClass: 2
Flags: W
LayerCount: 2
Fore
SplineSet
309 286 m 2,0,1
 291 286 291 286 291 340 c 2,2,-1
 291 1305 l 2,3,4
 291 1316 291 1316 288 1321 c 128,-1,5
 285 1326 285 1326 280 1324 c 2,6,-1
 206 1305 l 2,7,8
 197 1303 197 1303 192.5 1307.5 c 128,-1,9
 188 1312 188 1312 188 1328 c 2,10,-1
 188 1371 l 2,11,12
 188 1388 188 1388 206 1393 c 2,13,-1
 352 1433 l 1,14,15
 366 1439 366 1439 373.5 1434 c 128,-1,16
 381 1429 381 1429 381 1405 c 2,17,-1
 381 340 l 2,18,19
 381 286 381 286 363 286 c 2,20,-1
 309 286 l 2,0,1
554 122 m 2,21,22
 547 122 547 122 547 141 c 0,23,24
 547 146 547 146 548 149 c 2,25,-1
 789 1577 l 1,26,27
 792 1604 792 1604 803 1604 c 2,28,-1
 849 1604 l 2,29,30
 853 1604 853 1604 855 1595 c 128,-1,31
 857 1586 857 1586 855 1577 c 2,32,-1
 615 149 l 1,33,34
 612 122 612 122 601 122 c 2,35,-1
 554 122 l 2,21,22
1370 286 m 2,36,37
 1355 286 1355 286 1348.5 294.5 c 128,-1,38
 1342 303 1342 303 1342 327 c 2,39,-1
 1342 513 l 1,40,-1
 1043 513 l 2,41,42
 1021 513 1021 513 1007 524.5 c 128,-1,43
 993 536 993 536 993 557 c 0,44,45
 993 563 993 563 994 567 c 2,46,-1
 1102 1383 l 2,47,48
 1106 1413 1106 1413 1111.5 1425 c 128,-1,49
 1117 1437 1117 1437 1131 1437 c 2,50,-1
 1163 1437 l 2,51,52
 1185 1437 1185 1437 1185 1401 c 0,53,54
 1185 1393 1185 1393 1183 1383 c 2,55,-1
 1091 617 l 2,56,57
 1088 598 1088 598 1107 598 c 2,58,59
 1342 598 l 1,60,-1
 1342 1394 l 2,61,62
 1342 1437 1342 1437 1370 1437 c 2,63,-1
 1399 1437 l 2,64,65
 1427 1437 1427 1437 1427 1394 c 2,66,-1
 1427 598 l 1,67,-1
 1556 598 l 2,68,69
 1581 598 1581 598 1589.5 592 c 128,-1,70
 1598 586 1598 586 1598 565 c 2,71,-1
 1598 547 l 2,72,73
 1598 526 1598 526 1589 519.5 c 128,-1,74
 1580 513 1580 513 1556 513 c 2,75,-1
 1427 513 l 1,76,-1
 1427 327 l 2,77,78
 1427 303 1427 303 1420.5 294.5 c 128,-1,79
 1414 286 1414 286 1399 286 c 2,80,-1
 1370 286 l 2,36,37
EndSplineSet
EndChar

StartChar: onehalf
Encoding: 189 189 121
Width: 1639
GlyphClass: 2
Flags: W
LayerCount: 2
Fore
SplineSet
328 286 m 2,0,1
 310 286 310 286 310 340 c 2,2,-1
 310 1305 l 2,3,4
 310 1316 310 1316 307 1321 c 128,-1,5
 304 1326 304 1326 299 1324 c 2,6,-1
 225 1305 l 2,7,8
 216 1303 216 1303 211.5 1307.5 c 128,-1,9
 207 1312 207 1312 207 1328 c 2,10,-1
 207 1371 l 2,11,12
 207 1388 207 1388 225 1393 c 2,13,-1
 371 1433 l 1,14,15
 385 1439 385 1439 392.5 1434 c 128,-1,16
 400 1429 400 1429 400 1405 c 2,17,-1
 400 340 l 2,18,19
 400 286 400 286 382 286 c 2,20,-1
 328 286 l 2,0,1
573 122 m 2,21,22
 567 122 567 122 567 141 c 2,23,-1
 567 149 l 1,24,-1
 808 1577 l 1,25,26
 811 1604 811 1604 822 1604 c 2,27,-1
 868 1604 l 2,28,29
 872 1604 872 1604 874 1595 c 128,-1,30
 876 1586 876 1586 874 1577 c 2,31,-1
 634 149 l 1,32,33
 631 122 631 122 620 122 c 2,34,-1
 573 122 l 2,21,22
1420 286 m 2,35,36
 1031 286 l 2,37,38
 1021 286 1021 286 1016.5 293 c 128,-1,39
 1012 300 1012 300 1012 321 c 0,40,41
 1012 368 1012 368 1013 370 c 0,42,43
 1014 452 1014 452 1035 527.5 c 128,-1,44
 1056 603 1056 603 1088 660.5 c 128,-1,45
 1120 718 1120 718 1158 771 c 128,-1,46
 1196 824 1196 824 1234 872 c 128,-1,47
 1272 920 1272 920 1303.5 965.5 c 128,-1,48
 1335 1011 1335 1011 1354.5 1063 c 128,-1,49
 1374 1115 1374 1115 1374 1168 c 0,50,51
 1374 1252 1374 1252 1330.5 1307 c 128,-1,52
 1287 1362 1287 1362 1215 1362 c 0,53,54
 1178 1362 1178 1362 1147.5 1357 c 128,-1,55
 1117 1352 1117 1352 1100.5 1346.5 c 128,-1,56
 1084 1341 1084 1341 1056 1329.5 c 128,-1,57
 1028 1318 1028 1318 1010 1312 c 1,58,59
 1005 1307 1005 1307 1003 1315 c 1,60,61
 997 1322 997 1322 991.5 1339 c 128,-1,62
 986 1356 986 1356 986 1367 c 0,63,64
 986 1394 986 1394 990 1397 c 1,65,66
 1059 1425 1059 1425 1104.5 1436.5 c 128,-1,67
 1150 1448 1150 1448 1216 1448 c 0,68,69
 1267 1448 1267 1448 1312 1433 c 128,-1,70
 1357 1418 1357 1418 1395.5 1386.5 c 128,-1,71
 1434 1355 1434 1355 1456 1298.5 c 128,-1,72
 1478 1242 1478 1242 1478 1167 c 0,73,74
 1478 1084 1478 1084 1442.5 1006 c 128,-1,75
 1407 928 1407 928 1355.5 863 c 128,-1,76
 1304 798 1304 798 1251.5 731.5 c 128,-1,77
 1199 665 1199 665 1159 578 c 128,-1,78
 1119 491 1119 491 1113 395 c 0,79,80
 1112 393 1112 393 1113.5 384 c 128,-1,81
 1115 375 1115 375 1116 375 c 2,82,-1
 1421 375 l 2,83,84
 1429 375 1429 375 1433 369.5 c 128,-1,85
 1437 364 1437 364 1437 347 c 2,86,-1
 1437 313 l 2,87,88
 1437 296 1437 296 1433 291 c 128,-1,89
 1429 286 1429 286 1420 286 c 2,35,36
EndSplineSet
EndChar

StartChar: threequarters
Encoding: 190 190 122
Width: 1869
GlyphClass: 2
Flags: W
LayerCount: 2
Fore
SplineSet
517 1132 m 0,0,1
 517 1262 517 1262 477.5 1317 c 128,-1,2
 438 1372 438 1372 358 1372 c 0,3,4
 263 1372 263 1372 187 1328 c 0,5,6
 185 1327 185 1327 184 1327 c 0,7,8
 183 1328 183 1328 182 1333 c 1,9,10
 179 1333 179 1333 176 1346.5 c 128,-1,11
 173 1360 173 1360 173 1368 c 0,12,13
 173 1393 173 1393 186 1402 c 1,14,15
 263 1447 263 1447 364 1447 c 0,16,17
 605 1447 605 1447 605 1135 c 0,18,19
 605 1021 605 1021 566.5 958.5 c 128,-1,20
 528 896 528 896 449 873 c 1,21,22
 614 844 614 844 614 582 c 0,23,24
 614 275 614 275 352 275 c 0,25,26
 248 275 248 275 188 310 c 1,27,28
 178 317 178 317 178 343 c 0,29,30
 178 380 178 380 187 380 c 1,31,32
 189 390 189 390 193 386 c 1,33,34
 258 349 258 349 346 349 c 0,35,36
 443 349 443 349 486 406.5 c 128,-1,37
 529 464 529 464 529 599 c 1,38,39
 528 725 528 725 487 777 c 128,-1,40
 446 829 446 829 360 832 c 1,41,-1
 331 832 l 2,42,43
 314 832 314 832 314 853 c 2,44,-1
 314 895 l 2,45,46
 314 915 314 915 331 915 c 0,47,48
 432 915 432 915 474.5 964 c 128,-1,49
 517 1013 517 1013 517 1132 c 0,0,1
735 121 m 2,50,51
 729 121 729 121 729 140 c 0,52,53
 729 145 729 145 730 148 c 2,54,-1
 970 1576 l 1,55,56
 973 1603 973 1603 985 1603 c 2,57,-1
 1030 1603 l 2,58,59
 1034 1603 1034 1603 1036 1594 c 128,-1,60
 1038 1585 1038 1585 1036 1576 c 2,61,-1
 796 148 l 1,62,63
 793 121 793 121 782 121 c 2,64,-1
 735 121 l 2,50,51
1551 285 m 2,65,66
 1536 285 1536 285 1529.5 293.5 c 128,-1,67
 1523 302 1523 302 1523 326 c 2,68,-1
 1523 512 l 1,69,-1
 1224 512 l 2,70,71
 1202 512 1202 512 1188 523.5 c 128,-1,72
 1174 535 1174 535 1174 556 c 0,73,74
 1174 562 1174 562 1175 566 c 2,75,-1
 1283 1382 l 2,76,77
 1287 1411 1287 1411 1293 1423.5 c 128,-1,78
 1299 1436 1299 1436 1313 1436 c 2,79,-1
 1344 1436 l 2,80,81
 1366 1436 1366 1436 1366 1400 c 0,82,83
 1366 1387 1366 1387 1365 1382 c 2,84,-1
 1273 616 l 2,85,86
 1270 597 1270 597 1288 597 c 2,87,88
 1523 597 l 1,89,-1
 1523 1393 l 2,90,91
 1523 1436 1523 1436 1551 1436 c 2,92,-1
 1581 1436 l 2,93,94
 1609 1436 1609 1436 1609 1393 c 2,95,-1
 1609 597 l 1,96,-1
 1738 597 l 2,97,98
 1762 597 1762 597 1770.5 591 c 128,-1,99
 1779 585 1779 585 1779 564 c 2,100,-1
 1779 546 l 2,101,102
 1779 525 1779 525 1770.5 518.5 c 128,-1,103
 1762 512 1762 512 1738 512 c 2,104,-1
 1609 512 l 1,105,-1
 1609 326 l 2,106,107
 1609 302 1609 302 1602.5 293.5 c 128,-1,108
 1596 285 1596 285 1581 285 c 2,109,-1
 1551 285 l 2,65,66
EndSplineSet
EndChar

StartChar: AE
Encoding: 198 198 130
Width: 993
GlyphClass: 2
Flags: W
LayerCount: 2
Fore
SplineSet
70 0 m 2,0,1
 58 0 58 0 58 31 c 0,2,3
 58 34 58 34 57 38 c 128,-1,4
 56 42 56 42 56 44 c 0,5,6
 56 50 56 50 61 56 c 1,7,-1
 438 1383 l 2,8,9
 453 1438 453 1438 480 1438 c 2,10,-1
 874 1438 l 2,11,12
 886 1438 886 1438 891.5 1433 c 128,-1,13
 897 1428 897 1428 897 1407 c 2,14,-1
 897 1379 l 2,15,16
 897 1364 897 1364 893.5 1357 c 128,-1,17
 890 1350 890 1350 886.5 1349 c 128,-1,18
 883 1348 883 1348 874 1348 c 2,19,-1
 652 1348 l 2,20,21
 642 1348 642 1348 642 1320 c 2,22,-1
 642 801 l 2,23,24
 642 798 642 798 644.5 792.5 c 128,-1,25
 647 787 647 787 648 787 c 2,26,-1
 872 787 l 2,27,28
 885 787 885 787 890.5 781 c 128,-1,29
 896 775 896 775 896 756 c 2,30,-1
 896 727 l 2,31,32
 896 706 896 706 890.5 700 c 128,-1,33
 885 694 885 694 872 694 c 2,34,-1
 648 694 l 2,35,36
 647 694 647 694 644.5 685 c 128,-1,37
 642 676 642 676 642 673 c 2,38,-1
 642 90 l 1,39,-1
 907 90 l 2,40,41
 916 90 916 90 919.5 89 c 128,-1,42
 923 88 923 88 926.5 81 c 128,-1,43
 930 74 930 74 930 59 c 2,44,-1
 930 31 l 2,45,46
 930 10 930 10 925 5 c 128,-1,47
 920 0 920 0 907 0 c 2,48,-1
 550 0 l 2,49,50
 541 0 541 0 537 1.5 c 128,-1,51
 533 3 533 3 530 11 c 128,-1,52
 527 19 527 19 527 35 c 2,53,-1
 527 347 l 1,54,-1
 257 347 l 2,55,56
 254 347 254 347 251 336 c 2,57,-1
 170 50 l 1,58,59
 164 21 164 21 155 10.5 c 128,-1,60
 146 0 146 0 131 0 c 0,61,62
 70 0 l 2,0,1
294 427 m 2,63,64
 525 427 l 2,65,66
 527 427 527 427 527 445 c 2,67,-1
 527 1321 l 2,68,69
 527 1335 527 1335 526 1335 c 2,70,-1
 522 1324 l 1,71,-1
 285 447 l 2,72,73
 283 437 283 437 283 436 c 0,74,75
 283 427 283 427 294 427 c 2,63,64
EndSplineSet
EndChar

StartChar: Eth
Encoding: 208 208 140
Width: 899
GlyphClass: 2
Flags: W
LayerCount: 2
Fore
SplineSet
234 90 m 2,0,1
 423 90 l 2,2,3
 490 90 490 90 535.5 109.5 c 128,-1,4
 581 129 581 129 613.5 171.5 c 128,-1,5
 646 214 646 214 664 290.5 c 128,-1,6
 682 367 682 367 689.5 469 c 128,-1,7
 697 571 697 571 697 723 c 0,8,9
 697 1057 697 1057 635.5 1202.5 c 128,-1,10
 574 1348 574 1348 426 1348 c 2,11,-1
 233 1348 l 2,12,13
 222 1348 222 1348 222 1331 c 2,14,-1
 222 770 l 1,15,-1
 395 770 l 2,16,17
 411 770 411 770 418.5 764 c 128,-1,18
 426 758 426 758 426 738 c 2,19,-1
 426 711 l 1,20,21
 423 686 423 686 395 686 c 2,22,-1
 222 686 l 1,23,-1
 222 110 l 2,24,25
 222 90 222 90 234 90 c 2,0,1
131 0 m 2,26,27
 118 0 118 0 113 7.5 c 128,-1,28
 108 15 108 15 108 39 c 2,29,-1
 108 686 l 1,30,-1
 37 686 l 2,31,32
 21 686 21 686 13.5 692.5 c 128,-1,33
 6 699 6 699 6 718 c 2,34,-1
 6 737 l 2,35,36
 6 758 6 758 13.5 764 c 128,-1,37
 21 770 21 770 37 770 c 2,38,-1
 108 770 l 1,39,-1
 108 1407 l 2,40,41
 108 1426 108 1426 113.5 1432 c 128,-1,42
 119 1438 119 1438 131 1438 c 2,43,-1
 434 1438 l 2,44,45
 508 1438 508 1438 564.5 1418 c 128,-1,46
 621 1398 621 1398 669 1348.5 c 128,-1,47
 717 1299 717 1299 747.5 1218.5 c 128,-1,48
 778 1138 778 1138 795 1014 c 128,-1,49
 812 890 812 890 812 723 c 0,50,51
 812 541 812 541 797.5 414.5 c 128,-1,52
 783 288 783 288 755.5 206.5 c 128,-1,53
 728 125 728 125 679 79.5 c 128,-1,54
 630 34 630 34 571.5 17 c 128,-1,55
 513 0 513 0 426 0 c 2,56,-1
 131 0 l 2,26,27
EndSplineSet
EndChar

StartChar: multiply
Encoding: 215 215 147
Width: 801
GlyphClass: 2
Flags: W
LayerCount: 2
Fore
SplineSet
203 377 m 1,0,1
 181 400 l 2,2,3
 170 411 170 411 170 420 c 0,4,5
 170 433 170 433 191 454 c 2,6,-1
 342 605 l 1,7,-1
 191 756 l 2,8,9
 171 776 171 776 171 790 c 0,10,11
 171 800 171 800 182 811 c 2,12,-1
 205 834 l 2,13,14
 216 845 216 845 224 845 c 0,15,16
 238 845 238 845 258 824 c 2,17,-1
 410 673 l 1,18,-1
 561 824 l 2,19,20
 581 844 581 844 595 844 c 0,21,22
 605 844 605 844 615 834 c 2,23,-1
 638 811 l 2,24,25
 649 800 649 800 649 790 c 0,26,27
 649 776 649 776 629 756 c 2,28,-1
 478 605 l 1,29,-1
 629 454 l 2,30,31
 650 433 650 433 650 420 c 0,32,33
 650 412 650 412 639 401 c 2,34,-1
 616 377 l 2,35,36
 605 366 605 366 595 366 c 0,37,38
 581 366 581 366 561 386 c 2,39,-1
 410 537 l 1,40,-1
 258 386 l 2,41,42
 237 365 237 365 225 365 c 0,43,44
 217 365 217 365 203 377 c 1,0,1
EndSplineSet
EndChar

StartChar: Oslash
Encoding: 216 216 148
Width: 870
GlyphClass: 2
Flags: W
LayerCount: 2
Fore
SplineSet
293 -205 m 2,0,1
 290 -205 290 -205 287.5 -193 c 128,-1,2
 285 -181 285 -181 287 -172 c 2,3,-1
 312 2 l 1,4,5
 230 28 230 28 182 105 c 128,-1,6
 134 182 134 182 111.5 331 c 128,-1,7
 89 480 89 480 89 725 c 0,8,9
 89 1005 89 1005 124 1163 c 128,-1,10
 159 1321 159 1321 232.5 1387 c 128,-1,11
 306 1453 306 1453 434 1453 c 0,12,13
 481 1453 481 1453 516 1446 c 1,14,-1
 539 1614 l 1,15,16
 542 1647 542 1647 555 1647 c 2,17,-1
 603 1647 l 2,18,19
 607 1647 607 1647 609 1636 c 128,-1,20
 611 1625 611 1625 609 1614 c 2,21,-1
 582 1426 l 1,22,23
 689 1376 689 1376 735 1214.5 c 128,-1,24
 781 1053 781 1053 781 725 c 0,25,26
 781 542 781 542 769 415.5 c 128,-1,27
 757 289 757 289 733 204 c 128,-1,28
 709 119 709 119 666 71.5 c 128,-1,29
 623 24 623 24 568.5 5 c 128,-1,30
 514 -14 514 -14 434 -14 c 0,31,32
 404 -14 404 -14 379 -11 c 1,33,-1
 357 -172 l 2,34,35
 352 -205 352 -205 342 -205 c 2,36,-1
 293 -205 l 2,0,1
328 119 m 1,37,38
 502 1351 l 1,39,40
 466 1360 466 1360 434 1360 c 0,41,42
 346 1360 346 1360 297 1299 c 128,-1,43
 248 1238 248 1238 226 1102.5 c 128,-1,44
 204 967 204 967 204 725 c 0,45,46
 204 437 204 437 232.5 300 c 128,-1,47
 261 163 261 163 328 119 c 1,37,38
434 80 m 0,48,49
 525 80 525 80 572 128.5 c 128,-1,50
 619 177 619 177 642.5 316 c 128,-1,51
 666 455 666 455 666 725 c 0,52,53
 666 973 666 973 642.5 1107 c 128,-1,54
 619 1241 619 1241 564 1297 c 1,55,-1
 393 83 l 1,56,57
 412 80 412 80 434 80 c 0,48,49
EndSplineSet
EndChar

StartChar: Thorn
Encoding: 222 222 154
Width: 796
GlyphClass: 2
Flags: W
LayerCount: 2
Fore
SplineSet
131 0 m 2,0,1
 119 0 119 0 113.5 9 c 128,-1,2
 108 18 108 18 108 45 c 2,3,-1
 108 1361 l 2,4,5
 108 1388 108 1388 113.5 1397 c 128,-1,6
 119 1406 119 1406 131 1406 c 2,7,-1
 199 1406 l 2,8,9
 211 1406 211 1406 216.5 1397 c 128,-1,10
 222 1388 222 1388 222 1361 c 2,11,-1
 222 1180 l 1,12,-1
 364 1180 l 2,13,14
 434 1180 434 1180 476 1176 c 128,-1,15
 518 1172 518 1172 574 1150 c 128,-1,16
 630 1128 630 1128 660.5 1086.5 c 128,-1,17
 691 1045 691 1045 713.5 965.5 c 128,-1,18
 736 886 736 886 736 771 c 0,19,20
 736 694 736 694 726 633.5 c 128,-1,21
 716 573 716 573 700.5 532 c 128,-1,22
 685 491 685 491 658.5 461.5 c 128,-1,23
 632 432 632 432 606 416 c 128,-1,24
 580 400 580 400 541.5 391.5 c 128,-1,25
 503 383 503 383 472 380.5 c 128,-1,26
 441 378 441 378 396 378 c 2,27,-1
 230 378 l 2,28,29
 222 378 222 378 222 364 c 2,30,-1
 222 45 l 2,31,32
 222 19 222 19 216.5 9.5 c 128,-1,33
 211 0 211 0 199 0 c 2,34,-1
 131 0 l 2,0,1
229 469 m 2,35,36
 388 469 l 2,37,38
 432 469 432 469 460.5 472 c 128,-1,39
 489 475 489 475 518.5 485.5 c 128,-1,40
 548 496 548 496 565 516 c 128,-1,41
 582 536 582 536 596 569.5 c 128,-1,42
 610 603 610 603 616 652.5 c 128,-1,43
 622 702 622 702 622 771 c 0,44,45
 622 822 622 822 617.5 864 c 128,-1,46
 613 906 613 906 606.5 937 c 128,-1,47
 600 968 600 968 587.5 992 c 128,-1,48
 575 1016 575 1016 563 1032 c 128,-1,49
 551 1048 551 1048 531 1059 c 128,-1,50
 511 1070 511 1070 495.5 1076 c 128,-1,51
 480 1082 480 1082 454 1085.5 c 128,-1,52
 428 1089 428 1089 409 1089.5 c 128,-1,53
 390 1090 390 1090 360 1090 c 2,54,-1
 230 1090 l 2,55,56
 222 1090 222 1090 222 1077 c 2,57,-1
 222 481 l 2,58,59
 222 469 222 469 229 469 c 2,35,36
EndSplineSet
EndChar

StartChar: germandbls
Encoding: 223 223 155
Width: 812
GlyphClass: 2
Flags: W
LayerCount: 2
Fore
SplineSet
176 0 m 2,0,-1
 111 0 l 2,1,2
 101 0 101 0 96.5 1.5 c 128,-1,3
 92 3 92 3 88 12 c 128,-1,4
 84 21 84 21 84 39 c 2,5,-1
 84 1045 l 2,6,7
 84 1438 84 1438 381 1438 c 0,8,9
 519 1438 519 1438 599 1357.5 c 128,-1,10
 679 1277 679 1277 679 1117 c 0,11,12
 679 1014 679 1014 644 950 c 128,-1,13
 609 886 609 886 526 855 c 0,14,15
 521 853 521 853 519 850 c 128,-1,16
 517 847 517 847 519 843.5 c 128,-1,17
 521 840 521 840 527 838 c 0,18,19
 589 816 589 816 632 775.5 c 128,-1,20
 675 735 675 735 696.5 679.5 c 128,-1,21
 718 624 718 624 727 568 c 128,-1,22
 736 512 736 512 736 444 c 0,23,24
 736 317 736 317 705 228.5 c 128,-1,25
 674 140 674 140 615.5 91 c 128,-1,26
 557 42 557 42 483.5 21 c 128,-1,27
 410 0 410 0 313 0 c 0,28,29
 297 0 297 0 297 46 c 0,30,31
 297 88 297 88 313 88 c 0,32,33
 478 88 478 88 551 174.5 c 128,-1,34
 624 261 624 261 624 440 c 0,35,36
 624 801 624 801 386 801 c 0,37,38
 369 801 369 801 369 846 c 0,39,40
 369 887 369 887 386 887 c 0,41,42
 441 887 441 887 478 904 c 128,-1,43
 515 921 515 921 534.5 954 c 128,-1,44
 554 987 554 987 561.5 1024.5 c 128,-1,45
 569 1062 569 1062 569 1113 c 0,46,47
 569 1232 569 1232 526 1290 c 128,-1,48
 483 1348 483 1348 383 1348 c 0,49,50
 337 1348 337 1348 303.5 1332.5 c 128,-1,51
 270 1317 270 1317 249.5 1291 c 128,-1,52
 229 1265 229 1265 217 1224.5 c 128,-1,53
 205 1184 205 1184 200.5 1140 c 128,-1,54
 196 1096 196 1096 196 1038 c 2,55,-1
 196 38 l 2,56,57
 196 0 196 0 176 0 c 2,0,-1
EndSplineSet
EndChar

StartChar: ae
Encoding: 230 230 162
Width: 1052
GlyphClass: 2
Flags: W
LayerCount: 2
Fore
SplineSet
276 -12 m 0,0,1
 173 -12 173 -12 123 54 c 128,-1,2
 73 120 73 120 73 238 c 0,3,4
 73 323 73 323 98.5 388 c 128,-1,5
 124 453 124 453 160.5 489 c 128,-1,6
 197 525 197 525 246 550 c 128,-1,7
 295 575 295 575 334 584 c 128,-1,8
 373 593 373 593 412 600 c 128,-1,9
 451 607 451 607 459 610 c 1,10,-1
 459 654 l 2,11,12
 459 717 459 717 454.5 761 c 128,-1,13
 450 805 450 805 437 847.5 c 128,-1,14
 424 890 424 890 396.5 912 c 128,-1,15
 369 934 369 934 327 934 c 0,16,17
 289 934 289 934 261 918 c 128,-1,18
 233 902 233 902 216.5 874 c 128,-1,19
 200 846 200 846 192.5 825 c 128,-1,20
 185 804 185 804 178 776 c 0,21,22
 169 742 169 742 148 748 c 0,23,24
 134 751 134 751 115 758.5 c 128,-1,25
 96 766 96 766 94 772 c 0,26,27
 89 784 89 784 97 820 c 0,28,29
 105 852 105 852 120 883 c 128,-1,30
 135 914 135 914 161 946 c 128,-1,31
 187 978 187 978 229.5 998 c 128,-1,32
 272 1018 272 1018 325 1018 c 0,33,34
 490 1018 490 1018 525 828 c 1,35,36
 546 924 546 924 599 971.5 c 128,-1,37
 652 1019 652 1019 714 1019 c 0,38,39
 827 1019 827 1019 879.5 914.5 c 128,-1,40
 932 810 932 810 940 590 c 0,41,42
 940 581 940 581 938 559.5 c 128,-1,43
 936 538 936 538 926 509.5 c 128,-1,44
 916 481 916 481 901 481 c 2,45,-1
 572 481 l 2,46,47
 566 481 566 481 566 466 c 0,48,49
 568 73 568 73 729 73 c 0,50,51
 753 73 753 73 772 80.5 c 128,-1,52
 791 88 791 88 803.5 98 c 128,-1,53
 816 108 816 108 825.5 126 c 128,-1,54
 835 144 835 144 840.5 158.5 c 128,-1,55
 846 173 846 173 850 197 c 128,-1,56
 854 221 854 221 855.5 233.5 c 128,-1,57
 857 246 857 246 859 270 c 0,58,59
 860 280 860 280 860 285 c 0,60,61
 862 304 862 304 868 304 c 2,62,-1
 916 304 l 2,63,64
 929 304 929 304 929 291 c 1,65,66
 930 289 930 289 930 252 c 0,67,68
 930 179 930 179 911.5 122 c 128,-1,69
 893 65 893 65 844.5 26.5 c 128,-1,70
 796 -12 796 -12 723 -12 c 0,71,72
 647 -12 647 -12 591 50 c 128,-1,73
 535 112 535 112 508 228 c 1,74,75
 454 -12 454 -12 276 -12 c 0,0,1
291 69 m 0,76,77
 337 69 337 69 371 100.5 c 128,-1,78
 405 132 405 132 424 189 c 128,-1,79
 443 246 443 246 452 316 c 128,-1,80
 461 386 461 386 461 473 c 0,81,82
 461 536 461 536 454 536 c 0,83,84
 453 536 453 536 425 532 c 128,-1,85
 397 528 397 528 395 527 c 0,86,87
 166 473 166 473 166 244 c 1,88,89
 167 158 167 158 196 113.5 c 128,-1,90
 225 69 225 69 291 69 c 0,76,77
570 549 m 2,91,92
 853 549 l 2,93,94
 854 549 854 549 854 558 c 0,95,96
 847 751 847 751 817.5 842.5 c 128,-1,97
 788 934 788 934 712 934 c 0,98,99
 652 934 652 934 613 855 c 128,-1,100
 574 776 574 776 567 608 c 1,101,102
 567 549 567 549 570 549 c 2,91,92
EndSplineSet
EndChar

StartChar: eth
Encoding: 240 240 172
Width: 758
GlyphClass: 2
Flags: W
LayerCount: 2
Fore
SplineSet
371 -14 m 0,0,1
 317 -14 317 -14 273.5 -2.5 c 128,-1,2
 230 9 230 9 190 39.5 c 128,-1,3
 150 70 150 70 123 118.5 c 128,-1,4
 96 167 96 167 80 245.5 c 128,-1,5
 64 324 64 324 64 427 c 0,6,7
 64 503 64 503 73.5 566.5 c 128,-1,8
 83 630 83 630 105.5 685.5 c 128,-1,9
 128 741 128 741 162 779 c 128,-1,10
 196 817 196 817 247.5 839 c 128,-1,11
 299 861 299 861 364 861 c 0,12,13
 468 861 468 861 545 783 c 1,14,15
 515 931 515 931 396 1094 c 1,16,-1
 229 1008 l 1,17,18
 208 996 208 996 192 1022 c 1,19,20
 168 1056 168 1056 194 1072 c 1,21,-1
 344 1147 l 1,22,23
 260 1233 260 1233 162 1296 c 0,24,25
 154 1301 154 1301 154 1310 c 0,26,27
 154 1318 154 1318 166.5 1331.5 c 128,-1,28
 179 1345 179 1345 190 1345 c 1,29,30
 194 1354 194 1354 203 1354 c 0,31,32
 207 1354 207 1354 209 1353 c 0,33,34
 329 1281 329 1281 415 1193 c 1,35,-1
 587 1282 l 1,36,37
 609 1297 609 1297 624 1268 c 1,38,39
 650 1232 650 1232 623 1217 c 1,40,-1
 466 1139 l 1,41,42
 676 865 676 865 676 516 c 0,43,44
 676 410 676 410 667.5 330 c 128,-1,45
 659 250 659 250 638 183 c 128,-1,46
 617 116 617 116 582 74 c 128,-1,47
 547 32 547 32 494.5 9 c 128,-1,48
 442 -14 442 -14 371 -14 c 0,0,1
368 70 m 0,49,50
 402 70 402 70 428 77.5 c 128,-1,51
 454 85 454 85 483 110 c 128,-1,52
 512 135 512 135 530.5 177.5 c 128,-1,53
 549 220 549 220 561 296.5 c 128,-1,54
 573 373 573 373 573 478 c 0,55,56
 573 775 573 775 357 775 c 0,57,58
 311 775 311 775 277 756 c 128,-1,59
 243 737 243 737 222.5 707 c 128,-1,60
 202 677 202 677 189 632 c 128,-1,61
 176 587 176 587 171.5 541 c 128,-1,62
 167 495 167 495 167 439 c 0,63,64
 167 300 167 300 190.5 218 c 128,-1,65
 214 136 214 136 256.5 103 c 128,-1,66
 299 70 299 70 368 70 c 0,49,50
EndSplineSet
EndChar

StartChar: divide
Encoding: 247 247 179
Width: 310
GlyphClass: 2
Flags: W
LayerCount: 2
Fore
SplineSet
122 150 m 2,0,1
 114 150 114 150 109.5 153 c 128,-1,2
 105 156 105 156 102 167 c 128,-1,3
 99 178 99 178 99 199 c 2,4,-1
 99 271 l 2,5,6
 99 301 99 301 104.5 310.5 c 128,-1,7
 110 320 110 320 122 320 c 2,8,-1
 198 320 l 2,9,10
 210 320 210 320 215.5 310.5 c 128,-1,11
 221 301 221 301 221 271 c 2,12,-1
 221 199 l 2,13,14
 221 168 221 168 215.5 159 c 128,-1,15
 210 150 210 150 198 150 c 2,16,-1
 122 150 l 2,0,1
122 698 m 2,17,18
 116 698 116 698 112 699.5 c 128,-1,19
 108 701 108 701 105 706 c 128,-1,20
 102 711 102 711 100.5 721 c 128,-1,21
 99 731 99 731 99 747 c 2,22,-1
 99 819 l 2,23,24
 99 849 99 849 104.5 858.5 c 128,-1,25
 110 868 110 868 122 868 c 2,26,27
 198 868 l 2,28,29
 210 868 210 868 215.5 858.5 c 128,-1,30
 221 849 221 849 221 819 c 2,31,-1
 221 747 l 2,32,33
 221 716 221 716 215.5 707 c 128,-1,34
 210 698 210 698 198 698 c 2,35,-1
 122 698 l 2,17,18
493 473 m 2,36,37
 493 461 493 461 482 455.5 c 128,-1,38
 471 450 471 450 440 450 c 2,39,-1
 -117 450 l 2,40,41
 -148 450 -148 450 -159 455.5 c 128,-1,42
 -170 461 -170 461 -170 473 c 2,43,-1
 -170 533 l 2,44,45
 -170 545 -170 545 -159 550.5 c 128,-1,46
 -148 556 -148 556 -117 556 c 2,47,-1
 440 556 l 2,48,49
 471 556 471 556 482 550.5 c 128,-1,50
 493 545 493 545 493 533 c 2,51,-1
 493 473 l 2,36,37
EndSplineSet
EndChar

StartChar: oslash
Encoding: 248 248 180
Width: 702
GlyphClass: 2
Flags: W
LayerCount: 2
Fore
SplineSet
154 -74 m 1,0,-1
 120 -59 l 2,1,2
 119 -59 119 -59 119 -56 c 0,3,4
 119 -51 119 -51 123 -37 c 1,5,-1
 552 1079 l 1,6,7
 562 1098 562 1098 566 1098 c 2,8,-1
 567 1098 l 1,9,-1
 600 1085 l 2,10,11
 602 1085 602 1085 602 1080 c 0,12,13
 602 1073 602 1073 597 1063 c 1,14,-1
 168 -55 l 1,15,16
 162 -74 162 -74 155 -74 c 2,17,-1
 154 -74 l 1,0,-1
352 73 m 128,-1,19
 390 73 390 73 416.5 88.5 c 128,-1,20
 443 104 443 104 467 147.5 c 128,-1,21
 491 191 491 191 503 280 c 128,-1,22
 515 369 515 369 515 504 c 0,23,24
 515 616 515 616 506 696.5 c 128,-1,25
 497 777 497 777 483 822.5 c 128,-1,26
 469 868 469 868 446 893.5 c 128,-1,27
 423 919 423 919 402 926.5 c 128,-1,28
 381 934 381 934 352 934 c 128,-1,29
 323 934 323 934 301.5 926.5 c 128,-1,30
 280 919 280 919 257 893 c 128,-1,31
 234 867 234 867 220 821.5 c 128,-1,32
 206 776 206 776 197 696 c 128,-1,33
 188 616 188 616 188 504 c 0,34,35
 188 370 188 370 200 281.5 c 128,-1,36
 212 193 212 193 236 149 c 128,-1,37
 260 105 260 105 287 89 c 128,-1,18
 314 73 314 73 352 73 c 128,-1,19
353 -12 m 0,38,39
 310 -12 310 -12 275.5 -2 c 128,-1,40
 241 8 241 8 202.5 40 c 128,-1,41
 164 72 164 72 138.5 126.5 c 128,-1,42
 113 181 113 181 96.5 277.5 c 128,-1,43
 80 374 80 374 80 504 c 0,44,45
 80 636 80 636 96 733 c 128,-1,46
 112 830 112 830 137 884 c 128,-1,47
 162 938 162 938 200 969.5 c 128,-1,48
 238 1001 238 1001 273 1010 c 128,-1,49
 308 1019 308 1019 353 1019 c 128,-1,50
 398 1019 398 1019 432.5 1010 c 128,-1,51
 467 1001 467 1001 504.5 969.5 c 128,-1,52
 542 938 542 938 566 884 c 128,-1,53
 590 830 590 830 606 733 c 128,-1,54
 622 636 622 636 622 504 c 0,55,56
 622 374 622 374 605.5 277.5 c 128,-1,57
 589 181 589 181 564 127 c 128,-1,58
 539 73 539 73 501.5 40.5 c 128,-1,59
 464 8 464 8 429.5 -2 c 128,-1,60
 395 -12 395 -12 353 -12 c 0,38,39
EndSplineSet
EndChar

StartChar: thorn
Encoding: 254 254 186
Width: 709
GlyphClass: 2
Flags: W
LayerCount: 2
Fore
SplineSet
121 -469 m 2,0,1
 98 -469 98 -469 98 -400 c 2,2,-1
 98 1366 l 2,3,4
 98 1435 98 1435 121 1435 c 2,5,-1
 178 1435 l 2,6,7
 201 1435 201 1435 201 1366 c 2,8,-1
 201 845 l 2,9,10
 201 834 201 834 204 834 c 128,-1,11
 207 834 207 834 207 839 c 1,12,13
 237 927 237 927 288.5 973 c 128,-1,14
 340 1019 340 1019 398 1019 c 0,15,16
 447 1019 447 1019 486.5 994 c 128,-1,17
 526 969 526 969 560 913.5 c 128,-1,18
 594 858 594 858 613 753.5 c 128,-1,19
 632 649 632 649 632 503 c 0,20,21
 632 363 632 363 610 258.5 c 128,-1,22
 588 154 588 154 551.5 97.5 c 128,-1,23
 515 41 515 41 473.5 14.5 c 128,-1,24
 432 -12 432 -12 386 -12 c 0,25,26
 331 -12 331 -12 281.5 32 c 128,-1,27
 232 76 232 76 201 166 c 1,28,-1
 201 -400 l 2,29,30
 201 -469 201 -469 178 -469 c 2,31,-1
 121 -469 l 2,0,1
367 73 m 0,32,33
 440 73 440 73 483.5 177 c 128,-1,34
 527 281 527 281 527 506 c 0,35,36
 527 728 527 728 485.5 831 c 128,-1,37
 444 934 444 934 374 934 c 0,38,39
 305 934 305 934 253 814.5 c 128,-1,40
 201 695 201 695 201 506 c 0,41,42
 201 323 201 323 249 198 c 128,-1,43
 297 73 297 73 367 73 c 0,32,33
EndSplineSet
EndChar

StartChar: Dcroat
Encoding: 272 272 204
Width: 899
GlyphClass: 2
Flags: W
LayerCount: 2
Fore
SplineSet
234 90 m 2,0,1
 423 90 l 2,2,3
 490 90 490 90 535.5 109.5 c 128,-1,4
 581 129 581 129 613.5 171.5 c 128,-1,5
 646 214 646 214 664 290.5 c 128,-1,6
 682 367 682 367 689.5 469 c 128,-1,7
 697 571 697 571 697 723 c 0,8,9
 697 1057 697 1057 635.5 1202.5 c 128,-1,10
 574 1348 574 1348 426 1348 c 2,11,-1
 233 1348 l 2,12,13
 222 1348 222 1348 222 1331 c 2,14,-1
 222 766 l 1,15,-1
 418 766 l 2,16,17
 432 766 432 766 438.5 760 c 128,-1,18
 445 754 445 754 445 737 c 2,19,-1
 445 722 l 2,20,21
 445 703 445 703 438.5 697.5 c 128,-1,22
 432 692 432 692 418 692 c 2,23,-1
 222 692 l 1,24,-1
 222 110 l 2,25,26
 222 90 222 90 234 90 c 2,0,1
131 0 m 2,27,28
 118 0 118 0 113 7.5 c 128,-1,29
 108 15 108 15 108 39 c 2,30,-1
 108 692 l 1,31,-1
 39 692 l 2,32,33
 25 692 25 692 18.5 697.5 c 128,-1,34
 12 703 12 703 12 721 c 2,35,-1
 12 735 l 2,36,37
 12 754 12 754 18.5 760 c 128,-1,38
 25 766 25 766 39 766 c 2,39,-1
 108 766 l 1,40,-1
 108 1407 l 2,41,42
 108 1426 108 1426 113.5 1432 c 128,-1,43
 119 1438 119 1438 131 1438 c 2,44,-1
 434 1438 l 2,45,46
 508 1438 508 1438 564.5 1418 c 128,-1,47
 621 1398 621 1398 669 1348.5 c 128,-1,48
 717 1299 717 1299 747.5 1218.5 c 128,-1,49
 778 1138 778 1138 795 1014 c 128,-1,50
 812 890 812 890 812 723 c 0,51,52
 812 541 812 541 797.5 414.5 c 128,-1,53
 783 288 783 288 755.5 206.5 c 128,-1,54
 728 125 728 125 679 79.5 c 128,-1,55
 630 34 630 34 571.5 17 c 128,-1,56
 513 0 513 0 426 0 c 2,57,-1
 131 0 l 2,27,28
EndSplineSet
EndChar

StartChar: dcroat
Encoding: 273 273 205
Width: 718
GlyphClass: 2
Flags: W
LayerCount: 2
Fore
SplineSet
328 -12 m 0,0,1
 289 -12 289 -12 257 -2.5 c 128,-1,2
 225 7 225 7 190 39.5 c 128,-1,3
 155 72 155 72 132 126 c 128,-1,4
 109 180 109 180 93.5 276.5 c 128,-1,5
 78 373 78 373 78 504 c 0,6,7
 78 633 78 633 92 727.5 c 128,-1,8
 106 822 106 822 127.5 877.5 c 128,-1,9
 149 933 149 933 183 965.5 c 128,-1,10
 217 998 217 998 250.5 1008.5 c 128,-1,11
 284 1019 284 1019 327 1019 c 0,12,13
 384 1019 384 1019 430 974.5 c 128,-1,14
 476 930 476 930 506 842 c 0,15,16
 506 841 506 841 508 836.5 c 128,-1,17
 510 832 510 832 511 830 c 0,18,19
 512 830 512 830 512 852 c 2,20,-1
 512 1186 l 1,21,-1
 309 1186 l 2,22,23
 295 1186 295 1186 288.5 1191.5 c 128,-1,24
 282 1197 282 1197 282 1215 c 2,25,-1
 282 1229 l 2,26,27
 282 1248 282 1248 288.5 1254 c 128,-1,28
 295 1260 295 1260 309 1260 c 2,29,-1
 512 1260 l 1,30,-1
 512 1370 l 2,31,32
 512 1435 512 1435 537 1435 c 2,33,-1
 596 1435 l 2,34,35
 620 1435 620 1435 620 1370 c 2,36,-1
 620 1260 l 1,37,-1
 688 1260 l 2,38,39
 702 1260 702 1260 708.5 1254 c 128,-1,40
 715 1248 715 1248 715 1231 c 2,41,-1
 715 1216 l 2,42,43
 715 1197 715 1197 708.5 1191.5 c 128,-1,44
 702 1186 702 1186 688 1186 c 2,45,-1
 620 1186 l 1,46,-1
 620 67 l 2,47,48
 620 0 620 0 600 0 c 1,49,-1
 580 7 l 1,50,51
 568 19 568 19 561 62 c 0,52,53
 552 114 552 114 543 201 c 0,54,55
 542 216 542 216 539 224 c 1,56,57
 508 99 508 99 457 43.5 c 128,-1,58
 406 -12 406 -12 328 -12 c 0,0,1
512 506 m 0,59,60
 512 707 512 707 465 820.5 c 128,-1,61
 418 934 418 934 346 934 c 0,62,63
 317 934 317 934 295 924 c 128,-1,64
 273 914 273 914 252 886 c 128,-1,65
 231 858 231 858 217 811.5 c 128,-1,66
 203 765 203 765 194.5 688 c 128,-1,67
 186 611 186 611 186 507 c 0,68,69
 186 340 186 340 206.5 241.5 c 128,-1,70
 227 143 227 143 260.5 108 c 128,-1,71
 294 73 294 73 345 73 c 0,72,73
 419 73 419 73 465.5 191.5 c 128,-1,74
 512 310 512 310 512 506 c 0,59,60
EndSplineSet
EndChar

StartChar: Hbar
Encoding: 294 294 224
Width: 881
GlyphClass: 2
Flags: W
LayerCount: 2
Fore
SplineSet
132 0 m 2,0,1
 119 0 119 0 113.5 8.5 c 128,-1,2
 108 17 108 17 108 47 c 2,3,-1
 108 1186 l 1,4,-1
 45 1186 l 2,5,6
 31 1186 31 1186 24.5 1191.5 c 128,-1,7
 18 1197 18 1197 18 1215 c 2,8,-1
 18 1229 l 2,9,10
 18 1248 18 1248 24.5 1254 c 128,-1,11
 31 1260 31 1260 45 1260 c 2,12,-1
 108 1260 l 1,13,-1
 108 1391 l 2,14,15
 108 1421 108 1421 113.5 1429.5 c 128,-1,16
 119 1438 119 1438 132 1438 c 2,17,-1
 196 1438 l 2,18,19
 210 1438 210 1438 216 1429.5 c 128,-1,20
 222 1421 222 1421 222 1391 c 2,21,-1
 222 1260 l 1,22,-1
 658 1260 l 1,23,-1
 658 1391 l 2,24,25
 658 1421 658 1421 664 1429.5 c 128,-1,26
 670 1438 670 1438 685 1438 c 2,27,-1
 751 1438 l 2,28,29
 763 1438 763 1438 768.5 1429.5 c 128,-1,30
 774 1421 774 1421 774 1391 c 2,31,32
 774 1260 l 1,33,-1
 836 1260 l 2,34,35
 849 1260 849 1260 855.5 1254 c 128,-1,36
 862 1248 862 1248 862 1231 c 2,37,-1
 862 1216 l 2,38,39
 862 1197 862 1197 856 1191.5 c 128,-1,40
 850 1186 850 1186 836 1186 c 2,41,-1
 774 1186 l 1,42,-1
 774 47 l 2,43,44
 774 17 774 17 768.5 8.5 c 128,-1,45
 763 0 763 0 751 0 c 2,46,-1
 685 0 l 2,47,48
 670 0 670 0 664 8.5 c 128,-1,49
 658 17 658 17 658 47 c 2,50,-1
 658 672 l 2,51,52
 658 675 658 675 654.5 683 c 128,-1,53
 651 691 651 691 650 691 c 2,54,-1
 229 691 l 2,55,56
 228 691 228 691 225.5 684 c 128,-1,57
 223 677 223 677 223 674 c 2,58,-1
 223 47 l 2,59,60
 223 17 223 17 217 8.5 c 128,-1,61
 211 0 211 0 197 0 c 2,62,-1
 132 0 l 2,0,1
228 787 m 2,63,-1
 649 787 l 2,64,65
 650 787 650 787 654 795.5 c 128,-1,66
 658 804 658 804 658 807 c 2,67,-1
 658 1186 l 1,68,-1
 222 1186 l 1,69,-1
 222 804 l 2,70,71
 222 801 222 801 224.5 794 c 128,-1,72
 227 787 227 787 228 787 c 2,63,-1
EndSplineSet
EndChar

StartChar: hbar
Encoding: 295 295 225
Width: 684
GlyphClass: 2
Flags: W
LayerCount: 2
Fore
SplineSet
122 0 m 2,0,1
 110 0 110 0 104.5 10.5 c 128,-1,2
 99 21 99 21 99 51 c 2,3,-1
 99 1186 l 1,4,-1
 41 1186 l 2,5,6
 27 1186 27 1186 20.5 1191.5 c 128,-1,7
 14 1197 14 1197 14 1215 c 2,8,-1
 14 1229 l 2,9,10
 14 1248 14 1248 20.5 1254 c 128,-1,11
 27 1260 27 1260 41 1260 c 2,12,-1
 99 1260 l 1,13,-1
 99 1383 l 2,14,15
 99 1438 99 1438 122 1438 c 2,16,-1
 183 1438 l 2,17,18
 207 1438 207 1438 207 1383 c 2,19,-1
 207 1260 l 1,20,-1
 447 1260 l 2,21,22
 461 1260 461 1260 467.5 1254 c 128,-1,23
 474 1248 474 1248 474 1231 c 2,24,-1
 474 1216 l 2,25,26
 474 1197 474 1197 467.5 1191.5 c 128,-1,27
 461 1186 461 1186 447 1186 c 2,28,-1
 207 1186 l 1,29,-1
 207 839 l 2,30,31
 207 831 207 831 210 831 c 0,32,33
 214 831 214 831 215 835 c 0,34,35
 246 931 246 931 299 975 c 128,-1,36
 352 1019 352 1019 409 1019 c 0,37,38
 475 1019 475 1019 514 983.5 c 128,-1,39
 553 948 553 948 574.5 853 c 128,-1,40
 596 758 596 758 596 591 c 2,41,-1
 596 51 l 2,42,43
 596 0 596 0 573 0 c 2,44,-1
 511 0 l 2,45,46
 499 0 499 0 493.5 10.5 c 128,-1,47
 488 21 488 21 488 51 c 2,48,-1
 488 621 l 2,49,50
 488 789 488 789 465.5 861.5 c 128,-1,51
 443 934 443 934 386 934 c 0,52,53
 317 934 317 934 262 832 c 128,-1,54
 207 730 207 730 207 605 c 2,55,-1
 207 51 l 2,56,57
 207 21 207 21 201.5 10.5 c 128,-1,58
 196 0 196 0 184 0 c 2,59,-1
 122 0 l 2,0,1
EndSplineSet
EndChar

StartChar: dotlessi
Encoding: 305 305 235
Width: 306
GlyphClass: 2
Flags: W
LayerCount: 2
Fore
SplineSet
130 0 m 2,0,1
 118 0 118 0 112.5 11 c 128,-1,2
 107 22 107 22 107 53 c 2,3,-1
 107 953 l 2,4,5
 107 984 107 984 112.5 995 c 128,-1,6
 118 1006 118 1006 130 1006 c 2,7,-1
 187 1006 l 2,8,9
 199 1006 199 1006 204.5 995 c 128,-1,10
 210 984 210 984 210 953 c 2,11,-1
 210 53 l 2,12,13
 210 22 210 22 204.5 11 c 128,-1,14
 199 0 199 0 187 0 c 2,15,-1
 130 0 l 2,0,1
EndSplineSet
EndChar

StartChar: kgreenlandic
Encoding: 312 312 242
Width: 654
GlyphClass: 2
Flags: W
LayerCount: 2
Fore
SplineSet
123 0 m 2,0,1
 100 0 100 0 100 65 c 2,2,-1
 100 941 l 2,3,4
 100 1006 100 1006 123 1006 c 2,5,-1
 181 1006 l 2,6,7
 205 1006 205 1006 205 941 c 2,8,-1
 205 481 l 2,9,10
 205 470 205 470 209 470 c 1,11,-1
 212 473 l 1,12,-1
 478 943 l 2,13,14
 500 982 500 982 511 994 c 128,-1,15
 522 1006 522 1006 538 1006 c 2,16,-1
 600 1006 l 2,17,18
 610 1006 610 1006 610 987 c 0,19,20
 610 967 610 967 596 943 c 2,21,-1
 382 567 l 2,22,23
 378 559 378 559 378 555 c 0,24,25
 378 552 378 552 380 548.5 c 128,-1,26
 382 545 382 545 382 544 c 2,27,-1
 612 64 l 2,28,29
 622 44 622 44 622 24 c 0,30,31
 622 0 622 0 610 0 c 2,32,-1
 540 0 l 2,33,34
 523 0 523 0 498 61 c 1,35,-1
 311 479 l 1,36,37
 309 487 309 487 304 487 c 0,38,39
 302 487 302 487 298 482 c 0,40,41
 289 468 289 468 267 430.5 c 128,-1,42
 245 393 245 393 228 362.5 c 128,-1,43
 211 332 211 332 210 332 c 0,44,45
 205 320 205 320 205 302 c 2,46,-1
 205 65 l 2,47,48
 205 0 205 0 181 0 c 2,49,-1
 123 0 l 2,0,1
EndSplineSet
EndChar

StartChar: Lslash
Encoding: 321 321 251
Width: 574
GlyphClass: 2
Flags: W
LayerCount: 2
Fore
SplineSet
500 0 m 2,0,1
 131 0 l 2,2,3
 118 0 118 0 113 8.5 c 128,-1,4
 108 17 108 17 108 47 c 2,5,-1
 108 711 l 1,6,-1
 27 687 l 2,7,8
 3 680 3 680 3 717 c 2,9,-1
 3 753 l 2,10,11
 3 760 3 760 4 765 c 128,-1,12
 5 770 5 770 6 772.5 c 128,-1,13
 7 775 7 775 10.5 777.5 c 128,-1,14
 14 780 14 780 15 780.5 c 128,-1,15
 16 781 16 781 21 782.5 c 128,-1,16
 26 784 26 784 27 784 c 2,17,-1
 108 808 l 1,18,-1
 108 1391 l 2,19,20
 108 1421 108 1421 113 1429.5 c 128,-1,21
 118 1438 118 1438 131 1438 c 2,22,-1
 199 1438 l 2,23,24
 212 1438 212 1438 217 1429.5 c 128,-1,25
 222 1421 222 1421 222 1391 c 2,26,-1
 222 841 l 1,27,-1
 390 891 l 2,28,29
 400 894 400 894 406.5 887 c 128,-1,30
 413 880 413 880 413 861 c 2,31,-1
 413 824 l 2,32,33
 413 817 413 817 412 812 c 128,-1,34
 411 807 411 807 410 804.5 c 128,-1,35
 409 802 409 802 406 800 c 128,-1,36
 403 798 403 798 401.5 797.5 c 128,-1,37
 400 797 400 797 396 795.5 c 128,-1,38
 392 794 392 794 390 794 c 2,39,-1
 222 744 l 1,40,-1
 222 110 l 2,41,42
 222 101 222 101 224 96 c 128,-1,43
 226 91 226 91 228.5 90.5 c 128,-1,44
 231 90 231 90 236 90 c 2,45,-1
 500 90 l 2,46,47
 513 90 513 90 518.5 85.5 c 128,-1,48
 524 81 524 81 524 61 c 2,49,-1
 524 31 l 2,50,51
 524 17 524 17 520.5 10 c 128,-1,52
 517 3 517 3 513 1.5 c 128,-1,53
 509 0 509 0 500 0 c 2,0,1
EndSplineSet
EndChar

StartChar: lslash
Encoding: 322 322 252
Width: 306
GlyphClass: 2
Flags: W
LayerCount: 2
Fore
SplineSet
189 0 m 2,0,1
 132 0 l 2,2,3
 109 0 109 0 109 63 c 2,4,-1
 109 772 l 1,5,-1
 -7 742 l 2,6,7
 -20 738 -20 738 -27 745 c 128,-1,8
 -34 752 -34 752 -34 781 c 2,9,-1
 -34 811 l 2,10,11
 -34 826 -34 826 -31 834.5 c 128,-1,12
 -28 843 -28 843 -26.5 845 c 128,-1,13
 -25 847 -25 847 -16.5 848.5 c 128,-1,14
 -8 850 -8 850 -7 850 c 2,15,-1
 109 880 l 1,16,-1
 109 1380 l 2,17,18
 109 1445 109 1445 132 1445 c 2,19,-1
 189 1445 l 2,20,21
 212 1445 212 1445 212 1380 c 2,22,-1
 212 907 l 1,23,-1
 325 936 l 2,24,25
 338 940 338 940 345 933 c 128,-1,26
 352 926 352 926 352 897 c 2,27,-1
 352 867 l 2,28,29
 352 852 352 852 349 843.5 c 128,-1,30
 346 835 346 835 344.5 833 c 128,-1,31
 343 831 343 831 334.5 829.5 c 128,-1,32
 326 828 326 828 325 828 c 2,33,-1
 212 799 l 1,34,-1
 212 63 l 2,35,36
 212 0 212 0 189 0 c 2,0,1
EndSplineSet
EndChar

StartChar: OE
Encoding: 338 338 265
Width: 1013
GlyphClass: 2
Flags: W
LayerCount: 2
Fore
SplineSet
445 0 m 2,0,1
 370 0 370 0 317 17.5 c 128,-1,2
 264 35 264 35 218.5 81.5 c 128,-1,3
 173 128 173 128 146 209 c 128,-1,4
 119 290 119 290 104 417 c 128,-1,5
 89 544 89 544 89 723 c 0,6,7
 89 993 89 993 129 1152 c 128,-1,8
 169 1311 169 1311 243.5 1374.5 c 128,-1,9
 318 1438 318 1438 440 1438 c 2,10,-1
 917 1438 l 2,11,12
 929 1438 929 1438 934.5 1430 c 128,-1,13
 940 1422 940 1422 940 1401 c 2,14,-1
 940 1385 l 2,15,16
 940 1363 940 1363 934.5 1355.5 c 128,-1,17
 929 1348 929 1348 917 1348 c 2,18,-1
 667 1348 l 2,19,20
 657 1348 657 1348 657 1320 c 2,21,-1
 657 800 l 2,22,23
 657 797 657 797 659.5 791.5 c 128,-1,24
 662 786 662 786 663 786 c 2,25,-1
 897 786 l 2,26,27
 921 786 921 786 921 751 c 2,28,-1
 921 734 l 2,29,30
 921 712 921 712 915 704.5 c 128,-1,31
 909 697 909 697 897 697 c 2,32,-1
 664 697 l 2,33,34
 663 697 663 697 660 688 c 128,-1,35
 657 679 657 679 657 676 c 2,36,-1
 657 109 l 2,37,38
 657 90 657 90 660 90 c 2,39,-1
 924 90 l 2,40,41
 935 90 935 90 940.5 82.5 c 128,-1,42
 946 75 946 75 946 53 c 2,43,-1
 946 37 l 2,44,45
 946 0 946 0 924 0 c 2,46,-1
 445 0 l 2,0,1
540 89 m 2,47,48
 542 89 542 89 542 718 c 0,49,50
 542 1348 542 1348 540 1348 c 2,51,-1
 443 1348 l 1,52,53
 357 1347 357 1347 305.5 1287.5 c 128,-1,54
 254 1228 254 1228 229 1091.5 c 128,-1,55
 204 955 204 955 204 723 c 0,56,57
 204 468 204 468 230.5 328.5 c 128,-1,58
 257 189 257 189 306.5 139.5 c 128,-1,59
 356 90 356 90 443 90 c 2,60,-1
 540 89 l 2,47,48
EndSplineSet
EndChar

StartChar: oe
Encoding: 339 339 266
Width: 1065
GlyphClass: 2
Flags: W
LayerCount: 2
Fore
SplineSet
343 -12 m 0,0,1
 300 -12 300 -12 266 -2 c 128,-1,2
 232 8 232 8 195.5 40 c 128,-1,3
 159 72 159 72 135 126.5 c 128,-1,4
 111 181 111 181 95.5 277 c 128,-1,5
 80 373 80 373 80 504 c 0,6,7
 80 637 80 637 95.5 733 c 128,-1,8
 111 829 111 829 134.5 883.5 c 128,-1,9
 158 938 158 938 194.5 969.5 c 128,-1,10
 231 1001 231 1001 265 1010 c 128,-1,11
 299 1019 299 1019 345 1019 c 0,12,13
 490 1019 490 1019 547 830 c 1,14,15
 582 930 582 930 631 974.5 c 128,-1,16
 680 1019 680 1019 753 1019 c 0,17,18
 867 1019 867 1019 921.5 914 c 128,-1,19
 976 809 976 809 984 590 c 0,20,21
 984 581 984 581 982 559.5 c 128,-1,22
 980 538 980 538 970 509.5 c 128,-1,23
 960 481 960 481 945 481 c 2,24,-1
 604 481 l 2,25,26
 597 481 597 481 597 466 c 0,27,28
 597 394 597 394 605 330.5 c 128,-1,29
 613 267 613 267 630.5 206 c 128,-1,30
 648 145 648 145 683.5 109 c 128,-1,31
 719 73 719 73 768 73 c 0,32,33
 802 73 802 73 826.5 87.5 c 128,-1,34
 851 102 851 102 864 120.5 c 128,-1,35
 877 139 877 139 886 171.5 c 128,-1,36
 895 204 895 204 897.5 223.5 c 128,-1,37
 900 243 900 243 903 276 c 0,38,39
 904 282 904 282 904 285 c 0,40,41
 906 304 906 304 912 304 c 2,42,-1
 961 304 l 2,43,44
 973 304 973 304 973 291 c 1,45,46
 975 287 975 287 975 252 c 0,47,48
 975 140 975 140 922.5 64 c 128,-1,49
 870 -12 870 -12 764 -12 c 0,50,51
 687 -12 687 -12 635 39 c 128,-1,52
 583 90 583 90 550 202 c 1,53,54
 501 -12 501 -12 343 -12 c 0,0,1
601 549 m 2,55,56
 897 549 l 2,57,58
 898 549 898 549 898 558 c 0,59,60
 895 651 895 651 887 716.5 c 128,-1,61
 879 782 879 782 862.5 833 c 128,-1,62
 846 884 846 884 818.5 909 c 128,-1,63
 791 934 791 934 752 934 c 0,64,65
 711 934 711 934 682.5 910 c 128,-1,66
 654 886 654 886 631 811.5 c 128,-1,67
 608 737 608 737 599 608 c 1,68,69
 599 549 599 549 601 549 c 2,55,56
340 73 m 0,70,71
 377 73 377 73 402.5 88.5 c 128,-1,72
 428 104 428 104 450.5 148 c 128,-1,73
 473 192 473 192 484 280.5 c 128,-1,74
 495 369 495 369 495 504 c 0,75,76
 495 598 495 598 489.5 669.5 c 128,-1,77
 484 741 484 741 473.5 787 c 128,-1,78
 463 833 463 833 450 863.5 c 128,-1,79
 437 894 437 894 418 908.5 c 128,-1,80
 399 923 399 923 381.5 928.5 c 128,-1,81
 364 934 364 934 340 934 c 0,82,83
 302 934 302 934 277.5 920 c 128,-1,84
 253 906 253 906 229.5 864 c 128,-1,85
 206 822 206 822 195 732.5 c 128,-1,86
 184 643 184 643 184 504 c 0,87,88
 184 369 184 369 195 281 c 128,-1,89
 206 193 206 193 228 149 c 128,-1,90
 250 105 250 105 276 89 c 128,-1,91
 302 73 302 73 340 73 c 0,70,71
EndSplineSet
EndChar

StartChar: florin
Encoding: 402 402 305
Width: 447
GlyphClass: 2
Flags: W
LayerCount: 2
Fore
SplineSet
-13 -106 m 2,0,1
 -23 -106 l 2,2,3
 -40 -106 -40 -106 -41 -97 c 1,4,5
 -47 -97 -47 -97 -47 -71 c 0,6,7
 -46 -43 -46 -43 -43 -30 c 128,-1,8
 -40 -17 -40 -17 -30 -17 c 2,9,-1
 -19 -17 l 2,10,11
 49 -17 49 -17 74.5 31 c 128,-1,12
 100 79 100 79 115 234 c 2,13,-1
 165 751 l 2,14,15
 166 766 166 766 165.5 771 c 128,-1,16
 165 776 165 776 159 776 c 2,17,-1
 79 776 l 2,18,19
 66 776 66 776 61.5 781.5 c 128,-1,20
 57 787 57 787 59 804 c 2,21,-1
 62 841 l 2,22,23
 64 858 64 858 71 864 c 128,-1,24
 78 870 78 870 90 870 c 2,25,-1
 170 870 l 2,26,27
 178 870 178 870 183 922 c 0,28,29
 200 1086 200 1086 227 1170 c 128,-1,30
 254 1254 254 1254 297.5 1286.5 c 128,-1,31
 341 1319 341 1319 420 1319 c 0,32,33
 427 1319 427 1319 435 1318 c 128,-1,34
 443 1317 443 1317 448 1315 c 128,-1,35
 453 1313 453 1313 453 1312 c 1,36,37
 458 1312 458 1312 461.5 1303 c 128,-1,38
 465 1294 465 1294 465 1283 c 0,39,40
 465 1229 465 1229 447 1229 c 2,41,-1
 426 1229 l 2,42,43
 359 1229 359 1229 333.5 1180.5 c 128,-1,44
 308 1132 308 1132 292 979 c 2,45,-1
 281 876 l 2,46,47
 281 870 281 870 284 870 c 2,48,-1
 394 870 l 2,49,50
 405 870 405 870 409.5 865 c 128,-1,51
 414 860 414 860 412 844 c 2,52,-1
 408 804 l 2,53,54
 407 787 407 787 401 781.5 c 128,-1,55
 395 776 395 776 383 776 c 2,56,-1
 281 776 l 2,57,58
 271 776 271 776 270 751 c 1,59,-1
 226 291 l 2,60,61
 211 132 211 132 183.5 47 c 128,-1,62
 156 -38 156 -38 110.5 -72 c 128,-1,63
 65 -106 65 -106 -13 -106 c 2,0,1
EndSplineSet
EndChar

StartChar: uni0237
Encoding: 567 567 348
Width: 343
GlyphClass: 2
Flags: W
LayerCount: 2
Fore
SplineSet
37 -304 m 2,0,1
 16 -304 16 -304 16 -269 c 2,2,-1
 16 -229 l 2,3,4
 16 -198 16 -198 37 -198 c 2,5,-1
 76 -198 l 2,6,7
 116 -198 116 -198 129 -157.5 c 128,-1,8
 142 -117 142 -117 142 11 c 2,9,-1
 142 953 l 2,10,11
 142 1006 142 1006 165 1006 c 2,12,-1
 221 1006 l 2,13,14
 234 1006 234 1006 239.5 995 c 128,-1,15
 245 984 245 984 245 953 c 2,16,-1
 245 3 l 2,17,18
 245 -100 245 -100 236.5 -162 c 128,-1,19
 228 -224 228 -224 206.5 -255 c 128,-1,20
 185 -286 185 -286 159.5 -295 c 128,-1,21
 134 -304 134 -304 90 -304 c 2,22,-1
 37 -304 l 2,0,1
EndSplineSet
EndChar

StartChar: circumflex
Encoding: 710 710 349
Width: 298
GlyphClass: 2
Flags: W
LayerCount: 2
Fore
SplineSet
62 1235 m 0,0,1
 51 1235 51 1235 39 1240.5 c 128,-1,2
 27 1246 27 1246 27 1254 c 1,3,4
 23 1255 23 1255 23 1263 c 0,5,6
 23 1267 23 1267 25 1275 c 1,7,-1
 86 1433 l 2,8,9
 101 1470 101 1470 112.5 1486 c 128,-1,10
 124 1502 124 1502 139 1502 c 2,11,-1
 158 1502 l 2,12,13
 173 1502 173 1502 185 1486.5 c 128,-1,14
 197 1471 197 1471 212 1433 c 2,15,-1
 273 1275 l 1,16,17
 275 1267 275 1267 275 1262 c 0,18,19
 275 1254 275 1254 271 1254 c 1,20,21
 271 1246 271 1246 259 1240.5 c 128,-1,22
 247 1235 247 1235 236 1235 c 0,23,24
 222 1235 222 1235 212 1253 c 1,25,-1
 158 1363 l 2,26,27
 153 1375 153 1375 149 1375 c 0,28,29
 146 1375 146 1375 139 1363 c 1,30,-1
 86 1253 l 1,31,32
 76 1235 76 1235 62 1235 c 0,0,1
EndSplineSet
EndChar

StartChar: caron
Encoding: 711 711 350
Width: 298
GlyphClass: 2
Flags: W
LayerCount: 2
Fore
SplineSet
139 1235 m 2,0,1
 124 1235 124 1235 112.5 1251 c 128,-1,2
 101 1267 101 1267 86 1305 c 2,3,-1
 25 1463 l 1,4,5
 23 1471 23 1471 23 1475 c 0,6,7
 23 1483 23 1483 27 1484 c 1,8,9
 27 1492 27 1492 39 1497 c 128,-1,10
 51 1502 51 1502 62 1502 c 0,11,12
 77 1502 77 1502 86 1484 c 2,13,-1
 139 1375 l 1,14,15
 146 1363 146 1363 149 1363 c 0,16,17
 153 1363 153 1363 158 1375 c 2,18,-1
 212 1484 l 2,19,20
 221 1502 221 1502 236 1502 c 0,21,22
 247 1502 247 1502 258.5 1497 c 128,-1,23
 270 1492 270 1492 270 1484 c 1,24,25
 275 1483 275 1483 275 1474 c 0,26,27
 275 1469 275 1469 273 1463 c 2,28,-1
 212 1305 l 2,29,30
 197 1267 197 1267 185 1251 c 128,-1,31
 173 1235 173 1235 158 1235 c 2,32,-1
 139 1235 l 2,0,1
EndSplineSet
EndChar

StartChar: breve
Encoding: 728 728 351
Width: 1277
GlyphClass: 2
Flags: W
LayerCount: 2
Fore
SplineSet
601 1293 m 0,0,1
 530 1293 530 1293 478.5 1338 c 128,-1,2
 427 1383 427 1383 427 1467 c 1,3,-1
 495 1467 l 1,4,5
 495 1421 495 1421 526.5 1396.5 c 128,-1,6
 558 1372 558 1372 602 1372 c 0,7,8
 647 1372 647 1372 679 1396.5 c 128,-1,9
 711 1421 711 1421 711 1467 c 1,10,-1
 778 1467 l 1,11,12
 778 1384 778 1384 725.5 1338.5 c 128,-1,13
 673 1293 673 1293 601 1293 c 0,0,1
EndSplineSet
EndChar

StartChar: dotaccent
Encoding: 729 729 352
Width: 352
GlyphClass: 2
Flags: W
LayerCount: 2
Fore
SplineSet
-3 98 m 2,0,1
 -29 98 -29 98 -29 153 c 2,2,-1
 -29 230 l 2,3,4
 -29 285 -29 285 -3 285 c 2,5,-1
 97 285 l 2,6,7
 123 285 123 285 123 230 c 2,8,-1
 123 153 l 2,9,10
 123 98 123 98 97 98 c 2,11,-1
 -3 98 l 2,0,1
EndSplineSet
EndChar

StartChar: ring
Encoding: 730 730 353
Width: 803
GlyphClass: 2
Flags: W
LayerCount: 2
Fore
SplineSet
400 539 m 128,-1,1
 437 539 437 539 466 565.5 c 128,-1,2
 495 592 495 592 495 653 c 0,3,4
 495 718 495 718 465.5 743 c 128,-1,5
 436 768 436 768 400 768 c 0,6,7
 362 768 362 768 332.5 743 c 128,-1,8
 303 718 303 718 303 653 c 0,9,10
 303 593 303 593 333 566 c 128,-1,0
 363 539 363 539 400 539 c 128,-1,1
400 491 m 0,11,12
 376 491 376 491 351.5 498.5 c 128,-1,13
 327 506 327 506 301.5 522.5 c 128,-1,14
 276 539 276 539 260 573 c 128,-1,15
 244 607 244 607 244 653 c 0,16,17
 244 701 244 701 259.5 735.5 c 128,-1,18
 275 770 275 770 300 786.5 c 128,-1,19
 325 803 325 803 349.5 810 c 128,-1,20
 374 817 374 817 400 817 c 0,21,22
 425 817 425 817 449 810 c 128,-1,23
 473 803 473 803 498 786.5 c 128,-1,24
 523 770 523 770 538.5 735.5 c 128,-1,25
 554 701 554 701 554 653 c 0,26,27
 554 616 554 616 543 586.5 c 128,-1,28
 532 557 532 557 515.5 539.5 c 128,-1,29
 499 522 499 522 477 510.5 c 128,-1,30
 455 499 455 499 436.5 495 c 128,-1,31
 418 491 418 491 400 491 c 0,11,12
EndSplineSet
EndChar

StartChar: ogonek
Encoding: 731 731 354
Width: 716
GlyphClass: 2
Flags: W
LayerCount: 2
Fore
SplineSet
479 -329 m 0,0,1
 475 -329 475 -329 461.5 -328.5 c 128,-1,2
 448 -328 448 -328 445 -328 c 0,3,4
 344 -324 344 -324 290.5 -278 c 128,-1,5
 237 -232 237 -232 237 -170 c 0,6,7
 237 -100 237 -100 288.5 -48 c 128,-1,8
 340 4 340 4 430 22 c 1,9,-1
 430 -6 l 1,10,11
 386 -24 386 -24 361.5 -59.5 c 128,-1,12
 337 -95 337 -95 337 -139 c 0,13,14
 337 -189 337 -189 371 -222 c 128,-1,15
 405 -255 405 -255 475 -255 c 2,16,-1
 480 -255 l 2,17,18
 485 -255 485 -255 490 -257.5 c 128,-1,19
 495 -260 495 -260 495 -265 c 2,20,-1
 495 -312 l 2,21,22
 495 -329 495 -329 479 -329 c 0,0,1
EndSplineSet
EndChar

StartChar: tilde
Encoding: 732 732 355
Width: 476
GlyphClass: 2
Flags: W
LayerCount: 2
Fore
SplineSet
419 825 m 0,0,1
 405 825 405 825 391 846 c 0,2,3
 389 850 389 850 382.5 859.5 c 128,-1,4
 376 869 376 869 373.5 873 c 128,-1,5
 371 877 371 877 366 884 c 128,-1,6
 361 891 361 891 357 893.5 c 128,-1,7
 353 896 353 896 348 898.5 c 128,-1,8
 343 901 343 901 337 901 c 0,9,10
 319 901 319 901 255.5 864.5 c 128,-1,11
 192 828 192 828 152 828 c 0,12,13
 127 828 127 828 107.5 836 c 128,-1,14
 88 844 88 844 74.5 859.5 c 128,-1,15
 61 875 61 875 54 886.5 c 128,-1,16
 47 898 47 898 39 915 c 1,17,18
 32 926 32 926 32 938 c 0,19,20
 32 953 32 953 39.5 962.5 c 128,-1,21
 47 972 47 972 60 972 c 0,22,23
 78 972 78 972 89 949 c 1,24,25
 109 897 109 897 143 897 c 0,26,27
 166 897 166 897 229.5 933.5 c 128,-1,28
 293 970 293 970 329 970 c 0,29,30
 363 970 363 970 387.5 946.5 c 128,-1,31
 412 923 412 923 435 881 c 1,32,33
 444 867 444 867 444 854 c 128,-1,34
 444 841 444 841 437 833 c 128,-1,35
 430 825 430 825 419 825 c 0,0,1
EndSplineSet
EndChar

StartChar: hungarumlaut
Encoding: 733 733 356
Width: 595
GlyphClass: 2
Flags: W
LayerCount: 2
Fore
SplineSet
241 1167 m 2,0,1
 233 1167 233 1167 230 1173.5 c 128,-1,2
 227 1180 227 1180 227 1199 c 0,3,4
 227 1206 227 1206 229 1234 c 2,5,-1
 249 1548 l 2,6,7
 251 1580 251 1580 256.5 1591.5 c 128,-1,8
 262 1603 262 1603 274 1603 c 2,9,-1
 338 1603 l 2,10,11
 347 1603 347 1603 347 1575 c 0,12,13
 347 1554 347 1554 343 1538 c 2,14,-1
 274 1206 l 2,15,16
 273 1203 273 1203 272 1197 c 128,-1,17
 271 1191 271 1191 270.5 1188 c 128,-1,18
 270 1185 270 1185 268.5 1181 c 128,-1,19
 267 1177 267 1177 266 1175 c 128,-1,20
 265 1173 265 1173 263 1171 c 128,-1,21
 261 1169 261 1169 259 1168 c 128,-1,22
 257 1167 257 1167 254 1167 c 2,23,-1
 241 1167 l 2,0,1
375 1167 m 2,24,25
 367 1167 367 1167 364 1173.5 c 128,-1,26
 361 1180 361 1180 361 1199 c 0,27,28
 361 1220 361 1220 362 1234 c 2,29,-1
 383 1548 l 2,30,31
 385 1580 385 1580 391 1591.5 c 128,-1,32
 397 1603 397 1603 409 1603 c 2,33,-1
 472 1603 l 2,34,35
 482 1603 482 1603 482 1575 c 0,36,37
 482 1562 482 1562 478 1538 c 1,38,-1
 407 1206 l 1,39,-1
 406 1202 l 2,40,41
 406 1198 406 1198 405 1197 c 0,42,43
 400 1167 400 1167 389 1167 c 2,44,-1
 375 1167 l 2,24,25
EndSplineSet
EndChar

StartChar: endash
Encoding: 8211 8211 379
Width: 1024
GlyphClass: 2
Flags: W
LayerCount: 2
Fore
SplineSet
115 633 m 2,0,1
 82 633 82 633 82 670 c 2,2,-1
 82 693 l 2,3,4
 82 732 82 732 115 732 c 2,5,-1
 906 732 l 2,6,7
 939 732 939 732 939 694 c 2,8,-1
 939 672 l 2,9,10
 939 633 939 633 906 633 c 2,11,-1
 115 633 l 2,0,1
EndSplineSet
EndChar

StartChar: emdash
Encoding: 8212 8212 380
Width: 2048
GlyphClass: 2
Flags: W
LayerCount: 2
Fore
SplineSet
115 633 m 2,0,1
 82 633 82 633 82 670 c 2,2,-1
 82 693 l 2,3,4
 82 732 82 732 115 732 c 2,5,-1
 1930 732 l 2,6,7
 1962 732 1962 732 1962 694 c 2,8,-1
 1962 672 l 2,9,10
 1962 633 1962 633 1930 633 c 2,11,-1
 115 633 l 2,0,1
EndSplineSet
EndChar

StartChar: quoteleft
Encoding: 8216 8216 381
Width: 310
GlyphClass: 2
Flags: W
LayerCount: 2
Fore
SplineSet
115 895 m 2,0,1
 103 895 103 895 95.5 915.5 c 128,-1,2
 88 936 88 936 88 968 c 2,3,-1
 88 1128 l 2,4,5
 88 1292 88 1292 121 1395 c 128,-1,6
 154 1498 154 1498 195 1518 c 0,7,8
 197 1519 197 1519 200 1519 c 0,9,10
 219 1519 219 1519 219 1473 c 2,11,-1
 219 1461 l 2,12,13
 219 1445 219 1445 218.5 1435.5 c 128,-1,14
 218 1426 218 1426 216 1418.5 c 128,-1,15
 214 1411 214 1411 212.5 1408.5 c 128,-1,16
 211 1406 211 1406 205.5 1398.5 c 128,-1,17
 200 1391 200 1391 197 1386 c 0,18,19
 180 1357 180 1357 169.5 1311 c 128,-1,20
 159 1265 159 1265 159 1236 c 0,21,22
 159 1209 159 1209 165 1209 c 2,23,-1
 198 1209 l 2,24,25
 219 1209 219 1209 219 1157 c 2,26,-1
 219 957 l 2,27,28
 219 895 219 895 198 895 c 2,29,-1
 115 895 l 2,0,1
EndSplineSet
EndChar

StartChar: quoteright
Encoding: 8217 8217 382
Width: 304
GlyphClass: 2
Flags: W
LayerCount: 2
Fore
SplineSet
114 897 m 0,0,1
 112 896 112 896 109 896 c 0,2,3
 91 896 91 896 91 942 c 2,4,-1
 91 954 l 2,5,6
 91 970 91 970 91.5 979.5 c 128,-1,7
 92 989 92 989 94 996.5 c 128,-1,8
 96 1004 96 1004 97.5 1006.5 c 128,-1,9
 99 1009 99 1009 104.5 1016.5 c 128,-1,10
 110 1024 110 1024 113 1029 c 0,11,12
 130 1057 130 1057 140.5 1103.5 c 128,-1,13
 151 1150 151 1150 151 1179 c 0,14,15
 151 1206 151 1206 145 1206 c 2,16,-1
 112 1206 l 2,17,18
 91 1206 91 1206 91 1258 c 2,19,-1
 91 1457 l 2,20,21
 91 1520 91 1520 112 1520 c 2,22,-1
 195 1520 l 2,23,24
 206 1520 206 1520 214 1499.5 c 128,-1,25
 222 1479 222 1479 222 1447 c 2,26,-1
 222 1287 l 2,27,28
 222 1123 222 1123 188.5 1020 c 128,-1,29
 155 917 155 917 114 897 c 0,0,1
EndSplineSet
EndChar

StartChar: quotesinglbase
Encoding: 8218 8218 383
Width: 374
GlyphClass: 2
Flags: W
LayerCount: 2
Fore
SplineSet
178 -217 m 2,0,1
 163 -217 163 -217 160 -156 c 2,2,-1
 132 272 l 1,3,-1
 132 282 l 2,4,5
 132 305 132 305 139 323 c 128,-1,6
 146 341 146 341 156 341 c 2,7,-1
 218 341 l 2,8,9
 228 341 228 341 234.5 321.5 c 128,-1,10
 241 302 241 302 241 276 c 2,11,-1
 241 271 l 1,12,-1
 215 -156 l 2,13,14
 214 -175 214 -175 213.5 -182.5 c 128,-1,15
 213 -190 213 -190 211 -200 c 128,-1,16
 209 -210 209 -210 205.5 -213.5 c 128,-1,17
 202 -217 202 -217 197 -217 c 2,18,-1
 178 -217 l 2,0,1
EndSplineSet
EndChar

StartChar: quotedblleft
Encoding: 8220 8220 384
Width: 530
GlyphClass: 2
Flags: W
LayerCount: 2
Fore
SplineSet
115 895 m 2,0,1
 103 895 103 895 95.5 915.5 c 128,-1,2
 88 936 88 936 88 968 c 2,3,-1
 88 1128 l 2,4,5
 88 1292 88 1292 121 1395 c 128,-1,6
 154 1498 154 1498 195 1518 c 0,7,8
 197 1519 197 1519 200 1519 c 0,9,10
 219 1519 219 1519 219 1473 c 2,11,-1
 219 1461 l 2,12,13
 219 1445 219 1445 218.5 1435.5 c 128,-1,14
 218 1426 218 1426 216 1418.5 c 128,-1,15
 214 1411 214 1411 212.5 1408.5 c 128,-1,16
 211 1406 211 1406 205.5 1398.5 c 128,-1,17
 200 1391 200 1391 197 1386 c 0,18,19
 180 1357 180 1357 169.5 1311 c 128,-1,20
 159 1265 159 1265 159 1236 c 0,21,22
 159 1209 159 1209 165 1209 c 2,23,-1
 198 1209 l 2,24,25
 219 1209 219 1209 219 1157 c 2,26,-1
 219 957 l 2,27,28
 219 895 219 895 198 895 c 2,29,-1
 115 895 l 2,0,1
340 895 m 2,30,31
 328 895 328 895 320.5 915.5 c 128,-1,32
 313 936 313 936 313 968 c 2,33,-1
 313 1128 l 2,34,35
 313 1292 313 1292 346 1395 c 128,-1,36
 379 1498 379 1498 420 1518 c 0,37,38
 422 1519 422 1519 425 1519 c 0,39,40
 444 1519 444 1519 444 1473 c 2,41,-1
 444 1461 l 2,42,43
 444 1445 444 1445 443.5 1435.5 c 128,-1,44
 443 1426 443 1426 441 1418.5 c 128,-1,45
 439 1411 439 1411 437.5 1408.5 c 128,-1,46
 436 1406 436 1406 430.5 1398.5 c 128,-1,47
 425 1391 425 1391 422 1386 c 0,48,49
 405 1357 405 1357 394.5 1311 c 128,-1,50
 384 1265 384 1265 384 1236 c 0,51,52
 384 1209 384 1209 390 1209 c 2,53,-1
 423 1209 l 2,54,55
 444 1209 444 1209 444 1157 c 2,56,-1
 444 957 l 2,57,58
 444 895 444 895 423 895 c 2,59,-1
 340 895 l 2,30,31
EndSplineSet
EndChar

StartChar: quotedblright
Encoding: 8221 8221 385
Width: 531
GlyphClass: 2
Flags: W
LayerCount: 2
Fore
SplineSet
114 897 m 0,0,1
 112 896 112 896 109 896 c 0,2,3
 91 896 91 896 91 942 c 2,4,-1
 91 954 l 2,5,6
 91 970 91 970 91.5 979.5 c 128,-1,7
 92 989 92 989 94 996.5 c 128,-1,8
 96 1004 96 1004 97.5 1006.5 c 128,-1,9
 99 1009 99 1009 104.5 1016.5 c 128,-1,10
 110 1024 110 1024 113 1029 c 0,11,12
 130 1057 130 1057 140.5 1103.5 c 128,-1,13
 151 1150 151 1150 151 1179 c 0,14,15
 151 1206 151 1206 145 1206 c 2,16,-1
 112 1206 l 2,17,18
 91 1206 91 1206 91 1258 c 2,19,-1
 91 1457 l 2,20,21
 91 1520 91 1520 112 1520 c 2,22,-1
 195 1520 l 2,23,24
 206 1520 206 1520 214 1499.5 c 128,-1,25
 222 1479 222 1479 222 1447 c 2,26,-1
 222 1287 l 2,27,28
 222 1123 222 1123 188.5 1020 c 128,-1,29
 155 917 155 917 114 897 c 0,0,1
332 897 m 0,30,31
 330 896 330 896 327 896 c 0,32,33
 309 896 309 896 309 942 c 2,34,-1
 309 954 l 2,35,36
 309 974 309 974 311 986 c 128,-1,37
 313 998 313 998 313.5 1001.5 c 128,-1,38
 314 1005 314 1005 321 1015 c 128,-1,39
 328 1025 328 1025 331 1029 c 0,40,41
 348 1057 348 1057 358.5 1103.5 c 128,-1,42
 369 1150 369 1150 369 1179 c 0,43,44
 369 1206 369 1206 363 1206 c 2,45,-1
 330 1206 l 2,46,47
 309 1206 309 1206 309 1258 c 2,48,-1
 309 1457 l 2,49,50
 309 1520 309 1520 330 1520 c 2,51,-1
 414 1520 l 2,52,53
 425 1520 425 1520 432.5 1499.5 c 128,-1,54
 440 1479 440 1479 440 1447 c 2,55,-1
 440 1287 l 2,56,57
 440 1123 440 1123 406.5 1020 c 128,-1,58
 373 917 373 917 332 897 c 0,30,31
EndSplineSet
EndChar

StartChar: quotedblbase
Encoding: 8222 8222 386
Width: 560
GlyphClass: 2
Flags: W
LayerCount: 2
Fore
SplineSet
365 -217 m 2,0,1
 350 -217 350 -217 347 -156 c 2,2,-1
 319 272 l 1,3,-1
 319 282 l 2,4,5
 319 305 319 305 326 323 c 128,-1,6
 333 341 333 341 343 341 c 2,7,-1
 405 341 l 2,8,9
 415 341 415 341 421.5 321.5 c 128,-1,10
 428 302 428 302 428 276 c 2,11,-1
 428 271 l 1,12,-1
 402 -156 l 2,13,14
 401 -175 401 -175 400.5 -182.5 c 128,-1,15
 400 -190 400 -190 398 -200 c 128,-1,16
 396 -210 396 -210 392.5 -213.5 c 128,-1,17
 389 -217 389 -217 384 -217 c 2,18,-1
 365 -217 l 2,0,1
178 -217 m 2,19,20
 163 -217 163 -217 160 -156 c 2,21,-1
 132 272 l 1,22,-1
 132 282 l 2,23,24
 132 305 132 305 139 323 c 128,-1,25
 146 341 146 341 156 341 c 2,26,-1
 218 341 l 2,27,28
 228 341 228 341 234.5 321.5 c 128,-1,29
 241 302 241 302 241 276 c 2,30,-1
 241 271 l 1,31,-1
 215 -156 l 2,32,33
 214 -175 214 -175 213.5 -182.5 c 128,-1,34
 213 -190 213 -190 211 -200 c 128,-1,35
 209 -210 209 -210 205.5 -213.5 c 128,-1,36
 202 -217 202 -217 197 -217 c 2,37,-1
 178 -217 l 2,19,20
EndSplineSet
EndChar

StartChar: dagger
Encoding: 8224 8224 387
Width: 672
GlyphClass: 2
Flags: W
LayerCount: 2
Fore
SplineSet
316 0 m 2,0,1
 293 0 293 0 293 63 c 2,2,-1
 293 960 l 1,3,-1
 42 960 l 2,4,5
 -14 960 -14 960 -14 983 c 2,6,-1
 -14 1039 l 2,7,8
 -14 1064 -14 1064 42 1064 c 2,9,-1
 293 1064 l 1,10,-1
 293 1380 l 2,11,12
 293 1445 293 1445 316 1445 c 2,13,-1
 372 1445 l 2,14,15
 396 1445 396 1445 396 1380 c 2,16,-1
 396 1064 l 1,17,-1
 630 1064 l 2,18,19
 686 1064 686 1064 686 1039 c 2,20,-1
 686 983 l 2,21,22
 686 960 686 960 630 960 c 2,23,-1
 396 960 l 1,24,-1
 396 63 l 2,25,26
 396 0 396 0 372 0 c 2,27,-1
 316 0 l 2,0,1
EndSplineSet
EndChar

StartChar: daggerdbl
Encoding: 8225 8225 388
Width: 672
GlyphClass: 2
Flags: W
LayerCount: 2
Fore
SplineSet
316 0 m 2,0,1
 293 0 293 0 293 63 c 2,2,-1
 293 414 l 1,3,-1
 42 414 l 2,4,5
 -14 414 -14 414 -14 437 c 2,6,-1
 -14 493 l 2,7,8
 -14 518 -14 518 42 518 c 2,9,-1
 293 518 l 1,10,-1
 293 971 l 1,11,-1
 42 971 l 2,12,13
 -14 971 -14 971 -14 994 c 2,14,-1
 -14 1050 l 2,15,16
 -14 1075 -14 1075 42 1075 c 2,17,-1
 293 1075 l 1,18,-1
 293 1380 l 2,19,20
 293 1445 293 1445 316 1445 c 2,21,-1
 372 1445 l 2,22,23
 396 1445 396 1445 396 1380 c 2,24,-1
 396 1075 l 1,25,-1
 630 1075 l 2,26,27
 686 1075 686 1075 686 1050 c 2,28,-1
 686 994 l 2,29,30
 686 971 686 971 630 971 c 2,31,-1
 396 971 l 1,32,-1
 396 518 l 1,33,-1
 630 518 l 2,34,35
 686 518 686 518 686 493 c 2,36,-1
 686 437 l 2,37,38
 686 414 686 414 630 414 c 2,39,-1
 396 414 l 1,40,-1
 396 63 l 2,41,42
 396 0 396 0 372 0 c 2,43,-1
 316 0 l 2,0,1
EndSplineSet
EndChar

